<svg id="Layer_1" data-name="Layer 1" xmlns="http://www.w3.org/2000/svg" xmlns:xlink="http://www.w3.org/1999/xlink" width="256" height="256" viewBox="0 0 256 256"><defs><linearGradient id="linear-gradient" x1="64.25" y1="62.43" x2="194.33" y2="192.51" gradientUnits="userSpaceOnUse"><stop offset="0" stop-color="#5ac6d9"/><stop offset="1" stop-color="#06bbd3"/></linearGradient><linearGradient id="linear-gradient-2" x1="127.85" y1="217.46" x2="131.76" y2="221.37" xlink:href="#linear-gradient"/><linearGradient id="linear-gradient-3" x1="77.7" y1="53.47" x2="77.88" y2="53.65" xlink:href="#linear-gradient"/><linearGradient id="linear-gradient-4" x1="77.01" y1="53.9" x2="77.13" y2="54.03" xlink:href="#linear-gradient"/><linearGradient id="linear-gradient-5" x1="76.73" y1="54.07" x2="76.85" y2="54.18" xlink:href="#linear-gradient"/><linearGradient id="linear-gradient-6" x1="77.19" y1="53.82" x2="77.27" y2="53.89" xlink:href="#linear-gradient"/></defs><title>moments-app-icon</title><image width="276" height="275" transform="translate(-10 -7)" opacity="0.1" xlink:href="moments-app-icon1.png"/><circle cx="128" cy="126.4" r="125.4" fill="#f5f5f5"/><path d="M128,4.1c68.7,0,124.5,55.4,125.4,123.9v-1.6a125.4,125.4,0,0,0-250.8,0V128C3.5,59.5,59.3,4.1,128,4.1Z" fill="#fff" fill-opacity="0.2"/><path d="M128,251.9c68.7,0,124.5-55.4,125.4-123.9v1.6a125.4,125.4,0,0,1-250.8,0V128C3.5,196.5,59.3,251.9,128,251.9Z" fill="#212121" fill-opacity="0.1"/><path d="M35.9,112.4a50.6,50.6,0,0,0-1,6.8c-.1.9-.1,1.8-.2,2.7a.6.6,0,0,1-.1.4v5.8a6.2,6.2,0,0,1,.2,1.9c.1,3.2.4,6.4.8,9.5a84.3,84.3,0,0,0,2,10c.5,1.8,1,3.6,1.4,5.5s.4,1.3.7,2a30.5,30.5,0,0,1,1.3,3.2,73.4,73.4,0,0,0,3.9,8.6,96.2,96.2,0,0,0,6.7,11.1A81.8,81.8,0,0,0,60,190a102,102,0,0,0,11.6,10.2,97.7,97.7,0,0,0,24.6,13.3,95.5,95.5,0,0,0,16.7,4.4,70,70,0,0,0,8,1.1l5.1.3h7.6a35.9,35.9,0,0,0,4.7-.3,49.5,49.5,0,0,0,6.6-.8,90.9,90.9,0,0,0,21.6-6.4,98.6,98.6,0,0,0,22-13.9,92.6,92.6,0,0,0,18.9-22,89.8,89.8,0,0,0,9.7-21.1,87.5,87.5,0,0,0,3.4-14.3,77.7,77.7,0,0,0,.8-9.6,1.3,1.3,0,0,1,.1-.6v-5.2c-.1-2.9-.1-5.8-.4-8.6-.2-1.2-.2-2.5-.4-3.7a.8.8,0,0,1-.1-.4h0a28.4,28.4,0,0,0-.6-3.1,98.8,98.8,0,0,0-3.7-14.2A90.5,90.5,0,0,0,200.1,67a79.5,79.5,0,0,0-6.8-7.4,94,94,0,0,0-10.4-8.5A98.4,98.4,0,0,0,171.2,44a83.8,83.8,0,0,0-20.7-7.4c-2.6-.6-5.3-1-8-1.4h-2.2a12,12,0,0,1-2,.3,44,44,0,0,0-6.2,1.8,15.8,15.8,0,0,0-2.6,1.3,28,28,0,0,1-3,1.5,1.8,1.8,0,0,0-1.2,1.2,8.8,8.8,0,0,0-.5,1.5L123,48.6a16.6,16.6,0,0,0-.3,2.2c-.2.1-.3,0-.4-.1a9.9,9.9,0,0,0-3.3-1.1,44,44,0,0,0-8.9-.8l-5.7.4h-1.8a11.4,11.4,0,0,0-2.6.2l-4.1.4a7.8,7.8,0,0,0-2.1.4,77.5,77.5,0,0,0-8.3,2.1,1.3,1.3,0,0,1-1.2-.1c-.2,0-.2-.2,0-.3a.5.5,0,0,1,.5-.3,12.5,12.5,0,0,1,2.5-.9l1.7-.6c.1-.1.3-.1.3-.3s-.2-.2-.4-.2a6.9,6.9,0,0,0-3.2.1L82,50.9a18.5,18.5,0,0,0-2.9,1.3l-.3.3c-.2.2-.3.4-.1.6s.2.3.1.5a2.9,2.9,0,0,1-2.3,2.2h-.3a.5.5,0,0,1-.3-.7l.6-.7a.6.6,0,0,0-.6.1,86,86,0,0,0-11.1,7.9A87.3,87.3,0,0,0,56,70.8,80.3,80.3,0,0,0,45.6,85.1a67.1,67.1,0,0,0-4.9,10.1Q39.2,99,38,102.7a32.2,32.2,0,0,0-1.6,6.1c-.2,1.2-.4,2.4-.5,3.6m155.2,13.3v4.2a57.3,57.3,0,0,1-.7,5.8,70.3,70.3,0,0,1-2,9.1,60.7,60.7,0,0,1-32.3,37.7,58.4,58.4,0,0,1-16.9,5.3,41.8,41.8,0,0,1-6.1.5h-4.4a77.1,77.1,0,0,1-21-3.3,60.7,60.7,0,0,1-25-15.4,45.1,45.1,0,0,1-4.7-5.9,47.7,47.7,0,0,1-5.2-8.7,12.2,12.2,0,0,1-1-2.4l-.2-.6a4.3,4.3,0,0,1-.5-1.6c-.2-.7-.5-1.4-.7-2.1a60.8,60.8,0,0,1-2.2-7.6c-.4-1.8-.6-3.6-.9-5.4s-.5-6.1-.8-9.1v-6.6a24,24,0,0,0-.3-2.8c0-.5-.2-.5-.4-.2a1.7,1.7,0,0,1-1.3.5,1.7,1.7,0,0,0-1.1.4.8.8,0,0,1,0-.7c.1-1.2.3-2.4.5-3.6s.1-.5.2-.8.8-3.2,1.3-4.8A49.6,49.6,0,0,1,72.5,94a64.4,64.4,0,0,1,9.3-10.2A90.1,90.1,0,0,1,91,76.7l1.7-1.1,1.3-.7c2.8-1.3,5.5-2.7,8.3-3.7l8.5-2.8,1.5-.6c.4-.2.4-.3,0-.6a5.9,5.9,0,0,0-1.4-.6l-.4-.2c0-.2.2-.2.3-.2a22.4,22.4,0,0,1,5.2-.3l4.7.6c.1,0,.4.1.5-.1s-.1-.2-.3-.3a12.1,12.1,0,0,0-2-.9,8,8,0,0,0-2.1-.5h-8.7l-2.7.2a6.7,6.7,0,0,1-2,0h-1.3a16,16,0,0,0-2.3.3H98.3l-1,.2a.6.6,0,0,1-.7-.2.4.4,0,0,1,.2-.6,1.8,1.8,0,0,1,.9-.4,28,28,0,0,1,5-1.2l5.7-1a5.2,5.2,0,0,0,1.6-.6l.8-.9a4.6,4.6,0,0,1,1.5-.9l2.2-.5a2,2,0,0,0,1.3-.4,4.7,4.7,0,0,1,1.5-.6l2.5-.6c.1-.1.3-.1.4-.3a.5.5,0,0,0-.3-.4,5.9,5.9,0,0,0-1.6-.7,52.3,52.3,0,0,0-5.4-1.2,9.7,9.7,0,0,1-3.3-1h-.5a4.7,4.7,0,0,1-1.7.1c-.1,0-.3.1-.4-.1a.4.4,0,0,1,.2-.5,2,2,0,0,1,1.1-.6.9.9,0,0,1,1,.6c.1.2.3.2.5.1a6.6,6.6,0,0,1,3.1-.9,24.5,24.5,0,0,1,2.7-.2l4.9-.5a5,5,0,0,0,2-.8,2,2,0,0,1,.1.7,36.9,36.9,0,0,0-.3,5.8,14.9,14.9,0,0,0,.8,4.1,6.5,6.5,0,0,0,2.5,3,18.7,18.7,0,0,0,6.5,2.3l8.5,1.4A74,74,0,0,1,151,70.7l3,.8,1.1.5,1.3.4.5.2c2.3,1.1,4.6,2.2,6.8,3.5a50.5,50.5,0,0,1,7.8,6,55.6,55.6,0,0,1,11.8,15,52.8,52.8,0,0,1,5.1,12l1,3.4c.4,1.8.8,3.6,1.1,5.4A51.2,51.2,0,0,1,191.1,125.7Z" fill="url(#linear-gradient)"/><path d="M125.9,219.5h7.8v-.2H126Z" fill="url(#linear-gradient-2)"/><path d="M78.1,53.4h.1c-.1-.1-.1-.1-.2,0a.5.5,0,0,0-.5.4C77.7,53.7,78,53.6,78.1,53.4Z" fill="url(#linear-gradient-3)"/><path d="M77.2,53.9H77C77.1,54,77.2,54,77.2,53.9Z" fill="url(#linear-gradient-4)"/><path d="M76.7,54.2,77,54h-.1c-.1,0-.2,0-.2.1h0Zm0,0Z" fill="url(#linear-gradient-5)"/><path d="M77.3,53.8a.1.1,0,0,0-.1.1h0C77.3,53.9,77.3,53.9,77.3,53.8Z" fill="url(#linear-gradient-6)"/></svg>