<svg xmlns="http://www.w3.org/2000/svg"><symbol id="check" viewBox="0 0 24 24"><path fill="none" d="M0 0h24v24H0z"/><path d="M9 16.1L4.8 12l-1.4 1.4L9 19 21 7l-1.4-1.5z"/></symbol><symbol id="flash" viewBox="0 0 24 24"><path fill="none" d="M0 0h24v24H0z"/><path d="M7 2v11h3v9l7-12h-4l4-8z"/></symbol><symbol id="focus" viewBox="0 0 24 24"><path fill="none" d="M0 0h24v24H0z"/><path d="M12 8a4 4 0 1 0 4 4 4 4 0 0 0-4-4zm-7 7H3v4a2 2 0 0 0 2 2h4v-2H5zM5 5h4V3H5a2 2 0 0 0-2 2v4h2zm14-2h-4v2h4v4h2V5a2 2 0 0 0-2-2zm0 16h-4v2h4a2 2 0 0 0 2-2v-4h-2z"/></symbol><symbol id="music" viewBox="0 0 24 24"><path fill="none" d="M0 0h24v24H0z"/><path d="M12 3v10.6a3.6 3.6 0 0 0-2-.6 4 4 0 1 0 4 4V7h4V3z"/></symbol><symbol id="play" viewBox="0 0 24 24"><path d="M6.5 5v14l11-7z"/></symbol><symbol id="history" viewBox="0 0 24 24"><path d="M13.5 3a9 9 0 0 0-9 9h-3l3.9 3.9h.1l4-4h-3a7 7 0 1 1 7 7 6.7 6.7 0 0 1-4.9-2.1l-1.5 1.6a9.3 9.3 0 0 0 6.4 2.6 9 9 0 0 0 0-18zm-1 5v5l4.3 2.5.7-1.2-3.5-2.1V8z"/></symbol><symbol id="settings" viewBox="0 0 24 24"><path d="M19.4 13a3.4 3.4 0 0 0 .1-1 3.4 3.4 0 0 0-.1-1l2.1-1.6a.6.6 0 0 0 .2-.7l-2-3.4c-.2-.2-.4-.3-.6-.2l-2.5 1a7.5 7.5 0 0 0-1.7-1l-.4-2.7A.5.5 0 0 0 14 2h-4c-.2 0-.5.2-.5.4l-.4 2.7a7.5 7.5 0 0 0-1.7 1L5 5.1a.6.6 0 0 0-.7.2l-2 3.4a.6.6 0 0 0 .2.7L4.6 11a3.4 3.4 0 0 0-.1 1 3.4 3.4 0 0 0 .1 1l-2.1 1.6a.7.7 0 0 0-.2.7l2 3.4a.6.6 0 0 0 .7.2l2.4-1a7.5 7.5 0 0 0 1.7 1l.4 2.7c0 .2.3.4.5.4h4a.5.5 0 0 0 .5-.4l.4-2.7a7.5 7.5 0 0 0 1.7-1l2.5 1c.2.1.4 0 .6-.2l2-3.4a.7.7 0 0 0-.2-.7zM12 15.5a3.5 3.5 0 1 1 3.5-3.5 3.5 3.5 0 0 1-3.5 3.5z"/></symbol><symbol id="share" viewBox="0 0 24 24"><path fill="none" d="M0 0h24v24H0z"/><path d="M18 16.1a3 3 0 0 0-2 .8l-7.1-4.2A1.7 1.7 0 0 0 9 12a1.7 1.7 0 0 0-.1-.7L16 7.2a2.8 2.8 0 0 0 2 .8 2.9 2.9 0 0 0 3-3 3 3 0 0 0-6 0 1.7 1.7 0 0 0 .1.7L8 9.8A2.8 2.8 0 0 0 6 9a3 3 0 0 0 0 6 2.8 2.8 0 0 0 2-.8l7.2 4.1a2 2 0 0 0-.1.7 2.9 2.9 0 1 0 2.9-2.9z"/></symbol><symbol id="spa" viewBox="0 0 24 24"><path fill="none" d="M0 0h24v24H0zm14 21.5l-2 .5zm-2 .5l-2-.5z"/><path fill="#607d8b" d="M8.6 12A11.7 11.7 0 0 0 5 10.4 11.7 11.7 0 0 1 8.6 12zM19 10.4a11.7 11.7 0 0 0-3.6 1.6 11.7 11.7 0 0 1 3.6-1.6z"/><path d="M15.5 9.6A11.8 11.8 0 0 0 12.1 2a11.8 11.8 0 0 0-3.6 7.6 13.1 13.1 0 0 1 3.5 2.7 13.1 13.1 0 0 1 3.5-2.7zM9 12.3l-.5-.3zm6.4-.3l-.4.3zM12 15.4A12 12 0 0 0 2 10a12.3 12.3 0 0 0 8 11.5l2 .5 2-.5A12.3 12.3 0 0 0 22 10a12 12 0 0 0-10 5.4z"/></symbol><symbol id="star" viewBox="0 0 24 24"><path d="M12 15.1l4.9 3.6-1.8-5.8L20 9.3h-6.1l-1.9-6-1.9 6H4l4.9 3.6-1.8 5.8z"/><path fill="none" d="M0 0h24v24H0z"/></symbol><symbol id="stop" viewBox="0 0 24 24"><path fill="none" d="M0 0h24v24H0z"/><path d="M6 6h12v12H6z"/></symbol><symbol id="today" viewBox="0 0 24 24"><path fill="none" d="M0 0h24v24H0z"/><path d="M19 3h-1V1h-2v2H8V1H6v2H5a2 2 0 0 0-2 2v14a2 2 0 0 0 2 2h14a2 2 0 0 0 2-2V5a2 2 0 0 0-2-2zm0 16H5V8h14zM7 10h5v5H7z"/></symbol></svg>