<svg id="Layer_1" data-name="Layer 1" xmlns="http://www.w3.org/2000/svg" xmlns:xlink="http://www.w3.org/1999/xlink" width="256" height="256" viewBox="0 0 256 256"><defs><symbol id="material_product_icon_border" data-name="material_product_icon_border" viewBox="0 0 192 192"><rect width="192" height="192" fill="none"/></symbol></defs><title>Artboard 1</title><g id="back"><circle cx="128" cy="128" r="127"/></g><g id="front"><path d="M62.2,128A65.8,65.8,0,1,0,174.5,81.5L159,97a43.4,43.4,0,0,1,12.9,31A43.9,43.9,0,1,1,117,85.7V63.2A65.7,65.7,0,0,0,62.2,128Z" fill="#2196f3"/><path d="M205.5,50.5,190,66a87.7,87.7,0,1,1-73-25V18.9a109.7,109.7,0,1,0,88.5,31.6Z" fill="#f44336"/><path d="M117,63.2v46a21.6,21.6,0,0,0-10.9,18.9A21.9,21.9,0,1,0,139,109.2V18.4H128a99,99,0,0,0-11,.5V63.2Z" fill="#ffd600"/></g><g id="front_edge" data-name="front, edge"><path d="M128,21.1a79.4,79.4,0,0,1,11,.6V18.9c-3.6-.3-7.2-.5-11-.5h-5.5l-5.5.4-3.6.5h-1.6l-3.4.6-1.9.3-3.3.7-1.7.4-3.4.9-1.7.4-3.3,1a5.9,5.9,0,0,0-1.6.6l-3.3,1.2-1.5.5-3.3,1.5-1.4.6-3.3,1.6-1.3.5L74,32.1l-1,.5-3.3,2.1-.9.5c-1.1.8-2.3,1.5-3.3,2.3s-.4.3-.5.5l-3.5,2.6h-.3A109.6,109.6,0,0,0,38,65.1a.5.5,0,0,0-.3.4c-.7,1.2-1.5,2.2-2.2,3.3s-.4.6-.6,1.1S33.6,72,33.1,73l-.8,1.3c-.5,1-1.1,2.1-1.5,3.1a7.1,7.1,0,0,0-.8,1.5C29.6,80,29,81,28.6,82a6.1,6.1,0,0,0-.7,1.7c-.5,1-.9,1.9-1.3,2.9a7.3,7.3,0,0,0-.7,1.9,14.5,14.5,0,0,0-1.1,2.9,17.2,17.2,0,0,1-.7,2.1c-.3.9-.6,1.9-.8,2.8s-.5,1.5-.8,2.3-.4,1.7-.7,2.7a18.3,18.3,0,0,1-.6,2.5c-.1.8-.4,1.7-.5,2.6s-.3,1.8-.5,2.7-.3,1.7-.4,2.5l-.4,3a18.1,18.1,0,0,0-.3,2.3c-.2,1.1-.2,2.3-.3,3.5s-.2,1.3-.2,1.8c-.2,2.2-.2,3.9-.2,5.8v1.3A109.5,109.5,0,0,1,128,21.1Z" fill="#fff" fill-opacity="0.2" opacity="0.68" style="isolation:isolate"/><path d="M205.5,50.5,204,52a108.5,108.5,0,0,1,33.5,77.4v-1.3A108.4,108.4,0,0,0,205.5,50.5Z" fill="#fff" fill-opacity="0.2" opacity="0.68" style="isolation:isolate"/><path d="M139,109.1A21.5,21.5,0,0,1,149.9,128,21.9,21.9,0,1,1,117,109.1V85.6A43.9,43.9,0,1,0,171.9,128,43.4,43.4,0,0,0,159,97l14.6-14.6A65.7,65.7,0,0,0,139,65Z" fill="none"/><path d="M193.8,128h0a65.4,65.4,0,0,0-19.3-46.6h0A65.9,65.9,0,0,1,193.8,128Z"/><path d="M174.5,81.5l-.9.9a65.7,65.7,0,0,1,20.2,46.5V128A65.5,65.5,0,0,0,174.5,81.5Z" fill="#fff" fill-opacity="0.2" opacity="0.68" style="isolation:isolate"/><path d="M128,192.2a65.7,65.7,0,0,0,65.8-64.9v.8A65.8,65.8,0,1,1,62.2,128v-.9A65.8,65.8,0,0,0,128,192.2Z" fill="#212121" fill-opacity="0.1" opacity="0.68" style="isolation:isolate"/><path d="M128,234.9A109.5,109.5,0,0,0,237.6,126.6v1.3a109.6,109.6,0,0,1-219.2,0v-1.3A109.5,109.5,0,0,0,128,234.9Z" fill="#212121" fill-opacity="0.1" opacity="0.68" style="isolation:isolate"/><path d="M117,63.2A65.7,65.7,0,0,0,62.2,128v.9A65.9,65.9,0,0,1,117,64.8Z" fill="#fff" fill-opacity="0.2" opacity="0.68" style="isolation:isolate"/></g><g id="border"><use width="192" height="192" transform="translate(-10.5 -10.5) scale(1.44)" xlink:href="#material_product_icon_border"/></g></svg>