<svg xmlns="http://www.w3.org/2000/svg"><symbol id="battery-full" viewBox="0 0 24 24"><path d="M15.7 4H14V2h-4v2H8.3A1.3 1.3 0 0 0 7 5.3v15.4A1.3 1.3 0 0 0 8.3 22h7.4a1.3 1.3 0 0 0 1.3-1.3V5.3A1.3 1.3 0 0 0 15.7 4z"/></symbol><symbol id="bluetooth" viewBox="0 0 24 24"><path d="M18.4 7.7L12.6 2h-1v7.6L7.1 5 5.6 6.4l5.6 5.6-5.6 5.6L7.1 19l4.5-4.6V22h1l5.8-5.7-4.3-4.3zm-4.8-1.9l1.9 1.9-1.9 1.9zm1.9 10.5l-1.9 1.9v-3.8z"/></symbol><symbol id="bluetooth-disabled" viewBox="0 0 24 24"><path fill="none" d="M0 0h24v24H0z"/><path d="M13 5.8l1.9 1.9-1.6 1.6 1.4 1.4 3-3L12 2h-1v5l2 2zM5.4 4L4 5.4l6.6 6.6L5 17.6 6.4 19l4.6-4.6V22h1l4.3-4.3 2.3 2.3 1.4-1.4zM13 18.2v-3.8l1.9 1.9z"/></symbol><symbol id="battery-charging" viewBox="0 0 24 24"><path d="M15.7 4H14V2h-4v2H8.3A1.3 1.3 0 0 0 7 5.3v15.4A1.3 1.3 0 0 0 8.3 22h7.4a1.3 1.3 0 0 0 1.3-1.3V5.3A1.3 1.3 0 0 0 15.7 4zM11 20v-5.5H9L13 7v5.5h2z"/></symbol><symbol id="pause" viewBox="0 0 24 24"><path d="M6 19h4V5H6zm8-14v14h4V5z"/></symbol><symbol id="history" viewBox="0 0 24 24"><path d="M13.5 3a9 9 0 0 0-9 9h-3l3.9 3.9h.1l4-4h-3a7 7 0 1 1 7 7 6.7 6.7 0 0 1-4.9-2.1l-1.5 1.6a9.3 9.3 0 0 0 6.4 2.6 9 9 0 0 0 0-18zm-1 5v5l4.3 2.5.7-1.2-3.5-2.1V8z"/></symbol><symbol id="play" viewBox="0 0 24 24"><path d="M6.5 5v14l11-7z"/></symbol><symbol id="settings" viewBox="0 0 24 24"><path d="M19.4 13a3.4 3.4 0 0 0 .1-1 3.4 3.4 0 0 0-.1-1l2.1-1.6a.6.6 0 0 0 .2-.7l-2-3.4c-.2-.2-.4-.3-.6-.2l-2.5 1a7.5 7.5 0 0 0-1.7-1l-.4-2.7A.5.5 0 0 0 14 2h-4c-.2 0-.5.2-.5.4l-.4 2.7a7.5 7.5 0 0 0-1.7 1L5 5.1a.6.6 0 0 0-.7.2l-2 3.4a.6.6 0 0 0 .2.7L4.6 11a3.4 3.4 0 0 0-.1 1 3.4 3.4 0 0 0 .1 1l-2.1 1.6a.7.7 0 0 0-.2.7l2 3.4a.6.6 0 0 0 .7.2l2.4-1a7.5 7.5 0 0 0 1.7 1l.4 2.7c0 .2.3.4.5.4h4a.5.5 0 0 0 .5-.4l.4-2.7a7.5 7.5 0 0 0 1.7-1l2.5 1c.2.1.4 0 .6-.2l2-3.4a.7.7 0 0 0-.2-.7zM12 15.5a3.5 3.5 0 1 1 3.5-3.5 3.5 3.5 0 0 1-3.5 3.5z"/></symbol><symbol id="stars" viewBox="0 0 24 24"><path d="M12 2a10 10 0 1 0 10 10A10 10 0 0 0 12 2zm4.2 16L12 15.4 7.8 18l1.1-4.8L5.2 10l4.9-.5L12 5l1.9 4.5 4.9.5-3.7 3.2z"/></symbol><symbol id="track-changes" viewBox="0 0 24 24"><path d="M19.1 4.9l-1.4 1.4A8.4 8.4 0 0 1 20 12a8 8 0 1 1-9-7.9v2a6 6 0 1 0 7 5.9 5.6 5.6 0 0 0-1.8-4.2l-1.4 1.4A3.6 3.6 0 0 1 16 12a4 4 0 0 1-8 0 4.1 4.1 0 0 1 3-3.9v2.2a1.9 1.9 0 0 0-1 1.7 2 2 0 0 0 4 0 1.9 1.9 0 0 0-1-1.7V2h-1a9.9 9.9 0 1 0 7.1 2.9z"/></symbol><symbol id="timer" viewBox="0 0 24 24"><path fill="none" d="M0 0h24v24H0z"/><path d="M15 1.5H9v2h6zm-4 13h2v-6h-2zm8-6.6l1.4-1.4A9.3 9.3 0 0 0 19 5.1l-1.4 1.4a8.5 8.5 0 0 0-5.6-2 9 9 0 1 0 9 9 8.5 8.5 0 0 0-2-5.6zm-7 12.6a7 7 0 1 1 7-7 7 7 0 0 1-7 7z"/></symbol><symbol id="timeline" viewBox="0 0 24 24"><defs><clipPath id="a"><path fill="none" d="M0 0h24v24H0z"/></clipPath></defs><g clip-path="url(#a)"><path d="M23 8a2 2 0 0 1-2 2h-.5l-3.6 3.6a.7.7 0 0 1 .1.5 2 2 0 0 1-4 0 .7.7 0 0 1 .1-.5L10.5 11h-1l-4.6 4.5a.7.7 0 0 1 .1.5 2 2 0 1 1-2-2h.5l4.6-4.5A.7.7 0 0 1 8 9a2 2 0 0 1 4 0 .7.7 0 0 1-.1.5l2.6 2.6h1l3.6-3.6A.7.7 0 0 1 19 8a2 2 0 0 1 4 0z"/></g></symbol></svg>