<?xml version="1.0" standalone="no"?>
<!DOCTYPE svg PUBLIC "-//W3C//DTD SVG 20010904//EN"
 "http://www.w3.org/TR/2001/REC-SVG-20010904/DTD/svg10.dtd">
<svg version="1.0" xmlns="http://www.w3.org/2000/svg"
 width="1025.000000pt" height="1025.000000pt" viewBox="0 0 1025.000000 1025.000000"
 preserveAspectRatio="xMidYMid meet">
<metadata>
Created by potrace 1.11, written by Peter Selinger 2001-2013
</metadata>
<g transform="translate(0.000000,1025.000000) scale(0.100000,-0.100000)"
fill="#000000" stroke="none">
<path d="M960 5130 c0 -3321 3 -4160 13 -4161 16 -1 939 -1 952 0 7 1 10 970
10 2897 0 1593 3 2898 7 2901 5 2 8 -6 9 -19 0 -13 2 -30 4 -38 3 -19 12 -72
20 -125 3 -22 8 -47 10 -55 2 -8 7 -35 10 -60 7 -50 12 -83 20 -120 3 -14 14
-81 25 -150 11 -69 22 -136 25 -150 3 -14 8 -43 11 -65 2 -22 12 -80 20 -130
20 -116 19 -114 60 -360 45 -270 40 -245 59 -355 9 -52 18 -107 21 -122 2 -16
6 -43 9 -60 3 -18 10 -58 15 -88 5 -30 12 -68 14 -85 3 -16 12 -73 21 -125 9
-52 18 -106 20 -120 4 -26 42 -256 50 -300 4 -27 34 -207 41 -255 3 -16 10
-57 15 -90 6 -33 13 -73 15 -90 2 -16 6 -41 9 -55 3 -14 10 -54 15 -90 6 -36
13 -76 16 -90 2 -14 9 -54 14 -90 5 -36 12 -75 14 -86 2 -12 7 -39 10 -60 4
-22 34 -203 67 -404 33 -201 62 -376 64 -390 2 -14 18 -108 35 -210 17 -102
33 -198 36 -215 3 -16 7 -37 9 -45 2 -8 6 -37 10 -65 3 -27 8 -57 10 -65 2 -8
6 -33 10 -55 3 -22 17 -107 31 -190 15 -82 28 -166 31 -185 2 -19 13 -84 23
-143 11 -60 22 -130 26 -155 3 -26 10 -66 15 -89 5 -22 12 -65 15 -95 3 -29 8
-55 10 -57 3 -3 452 -5 490 -2 9 1 17 32 39 166 3 17 7 40 9 51 2 12 7 39 11
60 3 22 8 50 10 64 2 14 9 57 15 95 11 73 17 106 24 140 2 11 9 56 16 100 7
44 14 89 16 100 2 11 11 63 19 115 9 52 18 109 21 125 6 35 63 376 70 420 2
17 6 41 9 55 3 14 7 39 9 55 3 17 16 98 30 180 14 83 28 168 31 190 3 22 10
63 15 90 6 28 12 68 15 90 3 22 13 78 21 125 9 46 17 99 20 117 2 18 15 97 28
176 14 78 27 160 30 182 4 23 8 50 10 62 3 11 7 38 10 59 6 36 17 99 32 184 3
19 7 44 9 55 12 83 22 146 30 185 3 14 8 48 11 75 4 28 8 53 10 56 2 4 6 28 9
55 3 27 8 58 12 68 3 11 7 36 9 55 2 20 6 49 10 66 4 16 8 39 10 50 2 18 37
229 48 295 5 29 45 272 52 313 8 52 15 92 24 147 5 30 12 69 14 85 3 17 8 41
10 55 3 14 8 43 11 65 3 22 17 108 31 190 14 83 27 164 30 180 2 17 6 41 9 55
4 23 9 49 19 118 21 134 108 648 110 650 2 1 3 -1305 3 -2903 0 -1598 3 -2908
6 -2912 9 -9 958 -10 978 -1 15 7 16 349 16 4163 l0 4155 -698 0 c-385 0 -699
-1 -699 -3 0 -1 -13 -67 -30 -145 -16 -79 -32 -155 -35 -170 -2 -15 -43 -220
-90 -457 -48 -236 -88 -441 -91 -455 -8 -41 -54 -273 -60 -300 -4 -22 -21
-109 -39 -205 -3 -16 -19 -95 -35 -175 -16 -80 -31 -156 -34 -170 -2 -14 -7
-36 -10 -50 -3 -14 -8 -36 -10 -50 -2 -14 -7 -36 -10 -50 -3 -14 -8 -36 -10
-50 -2 -14 -29 -149 -59 -300 -31 -151 -58 -286 -60 -300 -3 -14 -12 -59 -20
-100 -9 -41 -18 -86 -20 -100 -4 -22 -73 -366 -82 -412 -4 -19 -84 -416 -91
-451 -2 -12 -9 -51 -15 -87 -16 -91 -25 -102 -34 -44 -5 27 -9 54 -11 59 -5
22 -56 272 -60 295 -4 22 -11 60 -28 145 -2 11 -16 81 -31 155 -15 74 -44 223
-66 330 -22 107 -42 206 -44 220 -3 14 -16 84 -30 155 -14 72 -28 141 -31 155
-3 14 -11 57 -19 95 -8 39 -17 86 -20 105 -3 19 -8 42 -10 50 -2 8 -6 26 -9
40 -2 14 -34 174 -70 355 -36 182 -68 341 -71 355 -3 14 -12 59 -20 100 -8 41
-16 84 -19 95 -4 21 -44 223 -52 265 -3 14 -16 81 -30 150 -14 69 -28 136 -30
150 -3 14 -25 126 -50 250 -25 124 -47 239 -50 255 -3 17 -18 89 -32 160 l-27
130 -687 3 -688 2 0 -4160z m985 1660 c3 -5 1 -10 -4 -10 -6 0 -11 5 -11 10 0
6 2 10 4 10 3 0 8 -4 11 -10z"/>
<path d="M6012 5131 l0 -4161 21 -1 c124 -5 1116 -3 1127 2 13 6 15 201 15
1688 0 1488 2 1682 15 1685 8 3 79 5 158 5 170 0 280 7 422 26 307 42 545 119
768 250 158 92 317 249 441 434 97 143 200 409 226 579 3 21 8 49 10 62 16 77
40 283 50 425 22 303 22 1128 0 1337 -2 24 -7 72 -10 108 -18 187 -25 242 -52
370 -25 121 -28 135 -70 260 -100 304 -338 642 -565 803 -139 99 -335 183
-498 213 -14 2 -47 9 -75 14 -76 15 -115 21 -165 26 -51 5 -122 12 -195 20
-27 4 -404 8 -837 11 l-786 5 0 -4161z m1495 3065 c367 -31 521 -170 597 -538
8 -40 18 -102 21 -138 4 -36 8 -76 11 -90 24 -140 24 -1107 0 -1236 -2 -10 -7
-50 -11 -89 -4 -38 -8 -72 -10 -75 -2 -3 -6 -23 -9 -45 -12 -73 -47 -189 -77
-252 -109 -229 -294 -309 -714 -308 l-140 0 0 1387 0 1387 30 3 c44 4 219 1
302 -6z"/>
</g>
</svg>
