<?xml version="1.0" standalone="no"?>
<!DOCTYPE svg PUBLIC "-//W3C//DTD SVG 20010904//EN"
 "http://www.w3.org/TR/2001/REC-SVG-20010904/DTD/svg10.dtd">
<svg version="1.0" xmlns="http://www.w3.org/2000/svg"
 width="700.000000pt" height="700.000000pt" viewBox="0 0 700.000000 700.000000"
 preserveAspectRatio="xMidYMid meet">
<metadata>
Created by potrace 1.11, written by Peter Selinger 2001-2013
</metadata>
<g transform="translate(0.000000,700.000000) scale(0.100000,-0.100000)"
fill="#000000" stroke="none">
<path d="M659 6345 c-1 0 -2 -1277 -3 -2838 -1 -2515 1 -2840 14 -2846 18 -9
637 -8 645 1 4 3 7 903 7 1998 -1 1096 1 1990 3 1988 1 -1 5 -22 8 -45 4 -22
8 -52 11 -65 3 -12 8 -43 11 -68 12 -80 14 -94 39 -241 14 -79 28 -162 31
-184 3 -22 10 -62 15 -90 5 -27 12 -63 14 -80 3 -16 12 -73 21 -125 9 -52 18
-106 20 -120 2 -14 16 -97 30 -185 27 -167 30 -185 40 -249 4 -21 8 -46 10
-55 1 -9 6 -36 10 -61 4 -25 9 -54 11 -65 2 -11 8 -47 13 -80 18 -115 21 -130
26 -155 2 -14 18 -110 35 -215 17 -104 33 -201 35 -215 3 -14 10 -54 15 -90 6
-36 13 -76 15 -90 35 -206 185 -1110 212 -1275 20 -121 42 -224 48 -230 12
-10 320 -13 330 -3 3 3 8 23 10 44 6 43 27 168 54 319 6 33 13 74 15 90 5 33
84 512 92 560 3 17 16 98 30 180 14 83 27 162 29 178 3 15 7 39 10 55 2 15 13
83 25 152 12 69 23 137 25 153 3 15 7 39 10 55 12 71 88 531 92 557 4 29 19
117 27 160 2 11 7 43 11 70 5 28 9 52 10 55 1 4 5 29 21 135 2 17 11 66 19
110 8 44 17 100 20 125 3 25 8 52 10 60 2 8 6 33 10 55 6 47 44 273 50 307 3
13 8 46 11 73 4 28 8 53 10 57 2 3 7 27 9 51 3 25 8 56 11 68 2 13 7 40 10 59
20 129 42 240 43 215 1 -16 2 -911 3 -1987 0 -1436 4 -1958 12 -1960 10 -3
579 -2 646 1 l25 1 0 2834 c0 1559 -4 2838 -8 2842 -12 12 -938 11 -945 -1 -4
-5 -7 -14 -8 -20 -1 -5 -21 -104 -44 -220 -23 -115 -44 -221 -46 -235 -3 -14
-16 -79 -29 -145 -14 -66 -26 -131 -29 -145 -2 -14 -14 -72 -26 -130 -12 -58
-24 -116 -26 -130 -6 -28 -114 -577 -119 -600 -61 -303 -128 -640 -131 -655
-4 -29 -12 -67 -34 -175 -11 -52 -22 -106 -24 -120 -14 -78 -45 -222 -48 -226
-4 -3 -17 58 -62 291 -3 11 -9 40 -15 65 -5 25 -13 61 -16 80 -3 19 -37 193
-76 385 -38 193 -72 361 -74 375 -3 14 -7 39 -10 55 -4 17 -13 64 -22 105 -8
41 -17 84 -19 95 -2 11 -8 40 -13 65 -5 25 -16 83 -25 130 -10 47 -30 150 -46
230 -16 80 -31 156 -34 170 -2 14 -11 59 -20 100 -8 41 -17 86 -20 100 -2 14
-18 93 -35 177 -17 83 -32 162 -35 175 -9 52 -37 184 -41 198 -4 13 -65 15
-470 15 -256 0 -465 0 -466 0z"/>
<path d="M4127 6342 c-16 -3 -17 -193 -17 -2843 0 -1561 3 -2840 8 -2840 4 -1
181 -2 395 -3 l387 -1 1 40 c0 22 1 542 1 1155 l0 1115 137 3 c706 12 1103
282 1241 842 5 19 12 55 15 80 4 24 8 47 10 50 2 3 6 38 10 78 3 41 8 82 10
92 21 108 21 959 0 1040 -2 8 -7 45 -10 82 -6 63 -8 78 -20 138 -2 14 -6 36
-9 50 -17 103 -80 283 -128 363 -15 26 -28 50 -28 53 0 10 -109 151 -156 203
-153 166 -353 251 -669 286 -136 15 -1115 29 -1178 17z m994 -746 c368 -21
452 -194 452 -936 1 -363 -17 -564 -61 -686 -70 -197 -175 -259 -457 -270
l-152 -7 -1 944 c0 519 4 949 8 954 8 10 45 10 211 1z"/>
</g>
</svg>
