<svg id="Layer_1" data-name="Layer 1" xmlns="http://www.w3.org/2000/svg" width="256" height="162" viewBox="0 0 256 162"><title>404</title><path d="M88.6,39.3C103.5,9,135.2-4.4,164.9,3.3a66.9,66.9,0,0,1,50,68.1c1.9.4,3.9.7,5.8,1.2,17.4,4.9,29,15.8,33.1,33.5,3.5,15.2-.6,28.9-11.1,40.3s-20.6,14.5-34,14.5H51.5c-12.9,0-24.4-3.8-33.9-12.5C5.8,137.9-.1,124.5,1.2,108.8,2.7,88.4,13.7,74.4,32.5,66.5a1.7,1.7,0,0,0,1.2-1.7,35.6,35.6,0,0,1,31-32.1,32.7,32.7,0,0,1,22.1,5.5ZM43.6,73c-2.6.9-5.2,1.5-7.6,2.5-15.7,6.8-24.2,18.6-24.7,35.8-.4,12.2,4.4,22.4,13.8,30.3,7.6,6.4,16.5,9.2,26.4,9.2H196.9c4.9,0,9.8,0,14.8-.2a33.7,33.7,0,0,0,22.9-10.2c17.4-17.4,11.6-47-11-56.8a37.4,37.4,0,0,0-14.7-2.9h-5.2c.1-.9.1-1.6.2-2.3a58.2,58.2,0,0,0-.1-20.8c-4.1-19.8-15.3-34-33.8-41.8-14.9-6.3-30-6.1-44.8.5A55.5,55.5,0,0,0,95.3,47.9c-.9,2.6-1.9,5.1-2.9,7.7-1.8-1.7-3.4-3.3-5-5-6.1-6-13.4-8.7-22-7.7-12.8,1.5-22.8,13.4-22,26.2C43.5,70.4,43.5,71.7,43.6,73Z"/><path d="M127.8,104.9c16.7.3,31.1,6,43.7,16.5a55.8,55.8,0,0,1,5.6,5.3c2.2,2.3,2.3,5.4.2,7.4s-5.1,2-7.4-.4a63.6,63.6,0,0,0-23.4-15.2,51.3,51.3,0,0,0-30.5-1.9,58.8,58.8,0,0,0-30.1,17.3,5.2,5.2,0,0,1-6.9.6,4.8,4.8,0,0,1-1-6.8,59.5,59.5,0,0,1,7.2-7,69.9,69.9,0,0,1,35.4-15.4h1.5Z"/><path d="M158.4,89.7a10,10,0,0,1-10.1-10.2,10.1,10.1,0,0,1,10.1-10.1,10.3,10.3,0,0,1,10.2,10.3A10.1,10.1,0,0,1,158.4,89.7Z"/><path d="M97.4,89.7c-5.8,0-10.1-4.5-10-10.5s4.6-9.7,10.1-9.8a10.4,10.4,0,0,1,10.2,10.4A10.1,10.1,0,0,1,97.4,89.7Z"/></svg>