<svg id="Layer_1" data-name="Layer 1" xmlns="http://www.w3.org/2000/svg" width="256" height="38.5" viewBox="0 0 256 38.5"><title>matthew-peixoto</title><path d="M14,.6h6.3V37.9H15.8V11.6L11.4,37.9H9.2L4.9,11.6V37.9H.5V.6H6.6l3.7,18.6Z"/><path d="M28.4,37.9h-5L28.4.6h6.7L40,37.9H34.9L34,29.5H29.3ZM31.6,7.4,29.8,24.6h3.6Z"/><path d="M44.8,5.5H40V.6H55.1V5.5H50V37.9H44.8Z"/><path d="M61.7,5.5H56.8V.6H72V5.5H66.9V37.9H61.7Z"/><path d="M79.7,20.8V37.9H74.5V.6h5.2V15.9H84V.6h5.2V37.9H84V20.8Z"/><path d="M105.3.6V5.5H97.9V15.9H103v4.9H97.9V33h7.8v4.9h-13V.6Z"/><path d="M107.9.6h4.7l2.7,21.2L117.8.6h4l2.6,22L127,.6h4.7L127,37.9h-4.5l-2.8-20.1-2.4,20.1h-4.7Z"/><path d="M149.6.6c4.6,0,6.2.6,7.7,2.5s2,3.9,2,8.6-.4,6.9-1.9,8.6-3.6,2.4-6.8,2.4h-.7V37.9h-5.2V.6Zm1,17.3c3.1,0,3.7-1,3.7-6.2s-.6-6.2-3.7-6.2h-.7V17.9Z"/><path d="M175,.6V5.5h-7.4V15.9h5.2v4.9h-5.2V33h7.9v4.9h-13V.6Z"/><path d="M183.6,37.9h-5.2V.6h5.2Z"/><path d="M186.9.6h5.2l3.1,11.5,3-11.5h5l-5.1,17.8,5.6,19.5h-5.6l-3-12.4L192,37.9h-5.6L192,18.4Z"/><path d="M220.7,28.4c0,4.4-.2,5.3-1.2,7a7.9,7.9,0,0,1-12.4,0c-1-1.7-1.2-2.6-1.2-7V10.1c0-4.4.2-5.4,1.2-7a7.9,7.9,0,0,1,12.4,0c1,1.6,1.2,2.6,1.2,7ZM215.5,7.9c0-2.1-.6-3-2.2-3s-2.2.9-2.2,3V30.6c0,2.1.6,3,2.2,3s2.2-.9,2.2-3Z"/><path d="M228,5.5h-4.8V.6h15.1V5.5h-5.1V37.9H228Z"/><path d="M255.5,28.4c0,4.4-.2,5.3-1.2,7a7.1,7.1,0,0,1-6.2,3,7.4,7.4,0,0,1-6.2-3c-1-1.7-1.1-2.6-1.1-7V10.1c0-4.4.1-5.4,1.1-7a7.4,7.4,0,0,1,6.2-3,7.1,7.1,0,0,1,6.2,3c1,1.6,1.2,2.6,1.2,7ZM250.3,7.9c0-2.1-.6-3-2.2-3s-2.1.9-2.1,3V30.6c0,2.1.6,3,2.1,3s2.2-.9,2.2-3Z"/></svg>