<svg id="Layer_1" data-name="Layer 1" xmlns="http://www.w3.org/2000/svg" width="256" height="256" viewBox="0 0 256 256"><title>play-circle</title><path d="M128,255C58,255,1,198,1,128S58,1,128,1,255,58,255,128,198,255,128,255Zm0-233.2A106.2,106.2,0,1,0,234.2,128,106.3,106.3,0,0,0,128,21.8Z" fill="#2979ff"/><path d="M98.6,185a10.3,10.3,0,0,1-10.4-10.4V81.4a10.5,10.5,0,0,1,5.3-9.1,10.3,10.3,0,0,1,10.6.2l76,46.6a10.5,10.5,0,0,1,0,17.8l-76,46.6A10.8,10.8,0,0,1,98.6,185ZM109,99.9v56.2L154.7,128Z" fill="#2979ff"/></svg>