<svg id="Layer_1" data-name="Layer 1" xmlns="http://www.w3.org/2000/svg" width="256" height="256" viewBox="0 0 256 256"><title>xd</title><path d="M210,251.8H46a44.9,44.9,0,0,1-45-45V49.2a44.9,44.9,0,0,1,45-45H210a44.9,44.9,0,0,1,45,45V206.8A44.9,44.9,0,0,1,210,251.8Z" fill="#ff26be"/><path d="M206,241.2H50a38.4,38.4,0,0,1-38.4-38.4V53.2A38.4,38.4,0,0,1,50,14.8H205.9a38.3,38.3,0,0,1,38.4,38.4V202.7A38.3,38.3,0,0,1,206,241.2Z" fill="#2e001f"/><path d="M101.4,120.1,131.1,177c.5.8.2,1.7-.7,1.7H112a2,2,0,0,1-2.2-1.4c-6.8-14-13.7-27.9-20.7-42.9h-.3c-6.3,14.1-13.3,29.1-20.1,43a1.9,1.9,0,0,1-1.9,1.2H49.4c-1.1,0-1.2-.9-.7-1.5l29-55.2L49.7,66c-.7-.9,0-1.5.6-1.5H68.5c1.1,0,1.5.2,1.9,1.2C77.1,79.6,83.9,94,90.2,108.1h.2c6.2-14,12.9-28.5,19.5-42.3.5-.9.8-1.4,1.9-1.4h17c.9,0,1.2.6.7,1.5Z" fill="#ffd9f2"/><path d="M136.3,137.3c0-24.6,16.4-43.9,42.4-43.9a49.6,49.6,0,0,1,5.5.2v-28a1,1,0,0,1,1.1-1.1H202c.8,0,1,.3,1,.8v97.2a66.5,66.5,0,0,0,.6,10.4c0,.6-.2.8-.9,1.1a62.2,62.2,0,0,1-27.1,6.2C152.7,180.3,136.3,166.1,136.3,137.3Zm47.9-27.1a16.8,16.8,0,0,0-6.1-1c-13.4,0-22.7,10.2-22.7,27.3,0,19.4,9.5,27.3,21.5,27.3a19,19,0,0,0,7.3-1.2Z" fill="#ffd9f2"/></svg>