<svg id="Layer_1" data-name="Layer 1" xmlns="http://www.w3.org/2000/svg" xmlns:xlink="http://www.w3.org/1999/xlink" width="2048" height="2531" viewBox="0 0 2048 2531"><defs><clipPath id="clip-path"><path d="M721.2,2204.5c90.3,49.1,198.9,68.5,326.3,50.6l-80.6-43.9c-127.4,17.9-236-1.5-326.3-50.6Z" fill="none"/></clipPath><clipPath id="clip-path-2"><path d="M1666.6,1142.3c-1.1,545.5-218.4,1001.3-699.7,1068.9l80.6,43.9c481.3-67.7,698.6-523.5,699.7-1068.9.7-381.4-113.3-687.3-343.3-812.3L1323.3,330c230,125.1,344,430.9,343.3,812.3" fill="none"/></clipPath><clipPath id="clip-path-3"><path d="M1088.5,0A1031.9,1031.9,0,0,0,970.9,9.8l80.6,43.9c200.5-28.2,375.3,3.4,520.1,82.2L1491,92.1C1387.2,35.6,1268,3.3,1134.9,0Z" fill="none"/></clipPath><clipPath id="clip-path-4"><path d="M0,1379.8c-.9,474.4,168.2,854.6,470.6,1019.1l80.6,43.8C248.8,2278.2,79.7,1898,80.6,1423.6,81.9,741.8,437.9,139.9,1051.5,53.7L970.9,9.8C357.3,96.1,1.3,697.9,0,1379.8" fill="none"/></clipPath></defs><title>friendly-curves-1</title><g clip-path="url(#clip-path)"><path d="M721.2,2204.5l-80.6-43.9c5.6,3.1,11.3,6,17,8.8l80.6,43.9c-5.7-2.9-11.4-5.8-17-8.8" fill="#c87a17"/><path d="M738.2,2213.3l-80.6-43.9a462.1,462.1,0,0,0,88.9,32.7l80.6,43.8a461.8,461.8,0,0,1-88.9-32.6" fill="#cb7d17"/><path d="M827.1,2245.9l-80.5-43.8c65.9,16.8,139.3,20.5,220.3,9.1l80.6,43.9c-81,11.4-154.4,7.7-220.4-9.2" fill="#ce7d17"/></g><g clip-path="url(#clip-path-2)"><path d="M1047.5,2255.1l-80.6-43.9c78.2-11,149.4-32.2,213.9-62.4l80.6,43.8c-64.5,30.2-135.7,51.5-213.9,62.5" fill="#ce7d17"/><path d="M1261.4,2192.6l-80.6-43.8a694.5,694.5,0,0,0,99.1-56.9l80.5,43.8a678.7,678.7,0,0,1-99,56.9" fill="#cb7d17"/><path d="M1360.4,2135.7l-80.5-43.8a695.2,695.2,0,0,0,69.4-55l80.6,43.9a684.3,684.3,0,0,1-69.5,54.9" fill="#c87a17"/><path d="M1429.9,2080.8l-80.6-43.9a731.3,731.3,0,0,0,59.4-60l80.6,43.8a732.5,732.5,0,0,1-59.4,60.1" fill="#c67a17"/><path d="M1489.3,2020.7l-80.6-43.8a803.2,803.2,0,0,0,55-70l80.6,43.8a788.4,788.4,0,0,1-55,70" fill="#c37817"/><path d="M1544.3,1950.7l-80.6-43.8a902.9,902.9,0,0,0,55.7-90.6l80.5,43.9a882.7,882.7,0,0,1-55.6,90.5" fill="#c17817"/><path d="M1599.9,1860.2l-80.6-43.9a1040.8,1040.8,0,0,0,60.5-135.5l80.6,43.9a1052.9,1052.9,0,0,1-60.5,135.5" fill="#be7517"/><path d="M1660.4,1724.7l-80.6-43.9c58.2-158.8,86.4-342.8,86.8-538.5.7-381.4-113.3-687.2-343.3-812.3l80.6,43.8c230,125.1,344,431,343.3,812.4-.4,195.6-28.6,379.7-86.8,538.5" fill="#bc7317"/></g><g clip-path="url(#clip-path-3)"><path d="M1051.5,53.7,970.9,9.8C1098.7-8.1,1216-1.8,1321.8,25.5l80.6,43.9c-105.8-27.3-223.1-33.7-350.9-15.7" fill="#ce7d17"/><path d="M1402.4,69.4l-80.6-43.9a747.3,747.3,0,0,1,142.6,52.8l80.6,43.8a747.1,747.1,0,0,0-142.6-52.7" fill="#cb7d17"/><path d="M1545,122.1l-80.6-43.8c9,4.4,17.9,9,26.6,13.8l80.6,43.8c-8.7-4.8-17.6-9.4-26.6-13.8" fill="#c87a17"/></g><path d="M1047.5,2255.1c481.3-67.7,698.6-523.5,699.7-1068.9,1-542.2-229.9-931.8-696.2-866.3C587.8,385,382.4,848.8,381.4,1378.1c-1,535.8,214.8,940.4,666.1,877m4-2201.4c622.7-87.5,997.8,401.8,996.5,1090.2-1.3,685.1-378.3,1289.9-1001,1377.4C439.3,2606.7,79.3,2115.2,80.6,1423.6,81.9,741.8,437.9,139.9,1051.5,53.7" fill="#e78e1c"/><g clip-path="url(#clip-path-4)"><path d="M551.2,2442.7l-80.6-43.8C168.2,2234.4-.9,1854.2,0,1379.8c.4-215.1,36.1-422.2,104-607.7l80.6,43.8c-67.9,185.5-103.6,392.7-104,607.7-.9,474.4,168.2,854.6,470.6,1019.1" fill="#bc7317"/><path d="M184.6,815.9,104,772.1a1463.5,1463.5,0,0,1,84.2-188.3l80.6,43.8a1475.9,1475.9,0,0,0-84.2,188.3" fill="#be7517"/><path d="M268.8,627.6l-80.6-43.8a1305,1305,0,0,1,81-131.8l80.6,43.8a1305,1305,0,0,0-81,131.8" fill="#c17817"/><path d="M349.8,495.8,269.2,452a1190.4,1190.4,0,0,1,82.2-104.6L432,391.3a1203.9,1203.9,0,0,0-82.2,104.5" fill="#c37817"/><path d="M432,391.3l-80.6-43.9a1092.3,1092.3,0,0,1,88.9-89.8l80.6,43.8A1109.6,1109.6,0,0,0,432,391.3" fill="#c67a17"/><path d="M520.9,301.4l-80.6-43.8a1020.1,1020.1,0,0,1,103.7-82l80.6,43.8a1048.8,1048.8,0,0,0-103.7,82" fill="#c87a17"/><path d="M624.6,219.4,544,175.6A981.5,981.5,0,0,1,686,93.9l80.6,43.9a980.9,980.9,0,0,0-142,81.6" fill="#cb7d17"/><path d="M766.6,137.8,686,93.9c87.5-41,182.6-69.7,284.9-84.1l80.6,43.9C949.2,68.1,854.1,96.8,766.6,137.8" fill="#ce7d17"/></g></svg>