<svg xmlns="http://www.w3.org/2000/svg"><symbol id="fc-bowl-descender" viewBox="0 0 256 256"><defs><clipPath id="a"><path fill="none" d="M66.1 49.4H190v205.59H66.1z"/></clipPath></defs><g clip-path="url(#a)"><path fill="#f6981c" d="M130.9 179.3c-41 .6-38.1-52.1-38.1-52.1 0-26.2 8.7-56.4 38.4-56.4a36.2 36.2 0 0 1 32.3 19.1v-22S151.6 49.4 123 49.4c-18 0-55.9 7.4-56.9 79.1 0 0-2.7 71.5 56.6 71.5 0 0 25.9 2.1 40.8-17.8v-21.7c-10.6 20.9-32.6 18.8-32.6 18.8m32.4 20.7c-2.4 30-22.7 32.5-34 32.5a82.4 82.4 0 0 1-43.9-12.7v24.4a98.7 98.7 0 0 0 44.2 10.8c54.5 0 59.8-43.6 60.3-55z"/><path fill="#343333" d="M189.9 197.3V51.8h-26.4v145.5c-.1.9-.1 1.8-.2 2.7h26.6a18.9 18.9 0 0 0 0-2.7"/></g></symbol><symbol id="fc-spine" viewBox="0 0 256 256"><defs><clipPath id="a"><path fill="none" d="M72.2 48.3h111.7v150.82H72.2z"/></clipPath></defs><g clip-path="url(#a)"><path fill="#343333" d="M126.7 48.3c-29.9 0-54.5 17.2-54.5 42.6s23.3 36 53.4 42.6c20.1 4.7 31.8 9.8 31.8 24.3s-13 20.6-29.1 20.6c-10.6 0-23.1-2.1-30.2-8.4l-5.6-15.4H75.1v29.7c15.1 10.6 32.8 14.8 53.2 14.8 30.1 0 55.5-15.6 55.5-43.1s-23.5-36.8-54.5-43.4c-20.4-4.5-30.4-8-30.4-22.5s11.4-20.9 27.8-20.9c10.8 0 21.1 3.1 28.3 10l5.8 15.4h17.5V64.9c-13.3-11.6-31.8-16.6-51.6-16.6"/><path fill="#f6981c" d="M129.3 112.6c-20.4-4.5-30.4-8-30.4-22.5 0-8.5 4.3-14.4 11.3-17.7L98.7 53.9c-15.8 7-26.5 20.2-26.5 37 0 26.4 23.3 36 53.4 42.6 20.1 4.7 31.8 9.8 31.8 24.3a17.7 17.7 0 0 1-9.4 16.1l10.9 18.9c14.9-7 24.9-19.6 24.9-36.8 0-26.5-23.5-36.8-54.5-43.4"/></g></symbol><symbol id="gf-angles" viewBox="0 0 256 256"><path fill="#333" d="M80.2 90.6L1 114.7v50.7h254v-50.7l-79.2-24.1H80.2z"/></symbol><symbol id="fc-taper-shoulder" viewBox="0 0 256 256"><defs><clipPath id="a"><path fill="none" d="M1 50.9h254v148.18H1z"/></clipPath></defs><path fill="#343333" d="M1 53.6v14l22 5.5v105.1l-22 6.9v14h70.4v-14l-22-6.9V53.6H1z"/><g clip-path="url(#a)"><path fill="#f6981c" d="M49.4 72.9v18.8S58.8 75 79.3 72.6V52.4a50.4 50.4 0 0 0-29.9 20.5m134.4-22a52.6 52.6 0 0 0-12.3 1.4v20.3a31.5 31.5 0 0 1 4.4-.3c29.1 0 30.7 23.3 30.7 35.2h26.5c.1-4.1 1.3-56.6-49.3-56.6"/><path fill="#343333" d="M233 107.8a.4.4 0 0 0 .1-.3h-26.5v70.7l-22 6.9v14H255v-14l-22-6.9zm-96.3-27.5C131.2 65.7 119 50.9 92 50.9a55.3 55.3 0 0 0-12.7 1.5v20.2a36.4 36.4 0 0 1 4.8-.3c29.1 0 30.7 23.3 30.7 35.2v70.7l-22 6.9v14h70.4v-14l-22-6.9V91.7s9.5-17 30.3-19.1V52.3c-22 5-32.1 22.6-34.8 28"/></g></symbol><symbol id="gf-circle" viewBox="0 0 256 256"><defs><clipPath id="a"><path fill="none" d="M57 57h142v142H57z"/></clipPath></defs><g clip-path="url(#a)"><path fill="#333" d="M199 128a71 71 0 1 1-71-71 71.2 71.2 0 0 1 71 71"/></g></symbol><symbol id="ms-beak" viewBox="0 0 256 256"><path fill="#e91e63" d="M64 70.7v114.6h85.2L192 70.7H64z"/></symbol><symbol id="gf-lines" viewBox="0 0 256 256"><path fill="#333" d="M1 91h254v74.4H1z"/></symbol><symbol id="ms-bilateral-serif" viewBox="0 0 256 256"><path fill="#00bcd4" d="M80.2 90.6L1 114.7v50.7h254v-50.7l-79.2-24.1H80.2z"/></symbol><symbol id="ms-bowl" viewBox="0 0 256 256"><defs><clipPath id="a"><path fill="none" d="M11.3 1h233.3v254H11.3z"/></clipPath></defs><g clip-path="url(#a)"><path fill="#9c27b0" d="M11.3 210.1h90q43.2 0 64.6-23.1c14.2-15.5 21.4-34.9 21.4-58.4s-7.2-43.1-21.4-58.9-35.8-23.6-64.6-23.6h-90V1h89.9q68 0 105.6 35t37.8 92q0 57.6-37.8 92.3T101.3 255h-90"/></g></symbol><symbol id="ms-crossbar" viewBox="0 0 256 256"><path fill="#4db04f" d="M1 90.6h254v74.79H1z"/></symbol><symbol id="ms-diagonal" viewBox="0 0 256 256"><path fill="#009687" d="M1 51.9l153.8 152.2H255L102.5 51.9H1z"/></symbol><symbol id="ms-dot" viewBox="0 0 256 256"><defs><clipPath id="a"><path fill="none" d="M64 64h128v128H64z"/></clipPath></defs><g clip-path="url(#a)"><path fill="#3f51b5" d="M192 128a64 64 0 1 1-64-64 64.2 64.2 0 0 1 64 64"/></g></symbol><symbol id="ms-shoulder" viewBox="0 0 256 256"><defs><clipPath id="a"><path fill="none" d="M1 49.1h254v157.77H1z"/></clipPath></defs><g clip-path="url(#a)"><path fill="#f90" d="M255 206.9c0-53.2-11.9-94.1-35.8-119.6s-57.6-38.2-101.1-38.2q-38.7 0-69.2 17.7C30 77.9 14 93.1 1 112.6v53.3a111.4 111.4 0 0 1 39-41.8q24.4-15.3 56.1-15.3c28.8 0 50.3 7.4 64.3 22.4s21.1 40.1 21.1 75.7z"/></g></symbol><symbol id="ms-stem" viewBox="0 0 256 256"><path fill="#ff5721" d="M86.9 1h82.3v254H86.9z"/></symbol><symbol id="ms-unilateral-serif" viewBox="0 0 256 256"><path fill="#2196f3" d="M41.2 90.6v50.8l78.6 23.9 95 .1V90.6H41.2z"/></symbol></svg>