<svg id="Layer_1" data-name="Layer 1" xmlns="http://www.w3.org/2000/svg" xmlns:xlink="http://www.w3.org/1999/xlink" width="1970" height="1333.1" viewBox="0 0 1970 1333.1"><defs><clipPath id="clip-path"><path d="M972.5,430.3l-.4,123.6c-109.8-63.4-241.7-42.5-248.6-41.4l.3-123.5C730.8,387.9,862.7,366.9,972.5,430.3Z" fill="none"/></clipPath><clipPath id="clip-path-2"><path d="M1040.4,511.1l-.4,123.6c.1-24.6-17.8-51.9-67.9-80.8l.4-123.6C1022.5,459.2,1040.5,486.5,1040.4,511.1Z" fill="none"/></clipPath><clipPath id="clip-path-3"><path d="M1212.5,522.2l-.3,123.6c-.3,86.6-128.2,152.5-137.8,157.4l.4-123.6C1084.3,674.7,1212.3,608.8,1212.5,522.2Z" fill="none"/></clipPath><clipPath id="clip-path-4"><path d="M1970,602.8l-.4,123.6c0,15.6-10.4,31.1-31.1,43.2-40.4,23.5-108.1,24.2-150,0-20.5-11.9-30.7-27.9-30.7-43.8l.4-123.6c-.1,16,10.1,31.9,30.6,43.8,42,24.2,109.6,23.5,150.1,0C1959.6,633.9,1970,618.4,1970,602.8Z" fill="none"/></clipPath></defs><title>Artboard 1</title><g style="isolation:isolate"><polygon points="948.6 115.4 948.2 239 876.5 162.1 876.8 38.5 948.6 115.4" fill="#32648f"/><polygon points="1168.8 130.4 1072 186.6 948.6 115.4 876.8 38.5 943 0 1168.8 130.4" fill="#4183bb"/><polygon points="1168.8 130.4 1168.5 253.9 1071.6 310.2 1072 186.6 1168.8 130.4" fill="#3d7bb0"/><polygon points="1072 186.6 1071.6 310.2 948.2 239 948.6 115.4 1072 186.6" fill="#336793"/><polygon points="1072 186.6 1071.6 310.2 809.3 462.7 809.7 339.1 1072 186.6" fill="#d04d25"/><polygon points="809.7 339.1 809.3 462.7 723.5 512.5 723.8 389 809.7 339.1" fill="#d04d25"/><g style="isolation:isolate"><g clip-path="url(#clip-path)"><g style="isolation:isolate"><path d="M972.5,430.3l-.4,123.6a285.9,285.9,0,0,0-40.3-19.4l.4-123.6a285.9,285.9,0,0,1,40.3,19.4" fill="#b16c15"/><path d="M932.2,410.9l-.4,123.6c-10.5-4.2-21.1-7.7-31.7-10.8l.4-123.5c10.5,3,21.1,6.5,31.7,10.7" fill="#b46e15"/><path d="M900.5,400.2l-.4,123.5c-9-2.5-18-4.7-26.9-6.5l.4-123.6c8.8,1.8,17.8,4,26.9,6.6" fill="#b77015"/><path d="M873.6,393.6l-.4,123.6q-12.9-2.7-25.5-4.5l.4-123.6q12.4,1.8,25.5,4.5" fill="#ba7216"/><path d="M848.1,389.1l-.4,123.6c-8.7-1.2-17.2-2.1-25.4-2.8l.4-123.6c8.2.7,16.7,1.6,25.4,2.8" fill="#bc7416"/><path d="M822.7,386.3l-.4,123.6c-9.2-.8-18-1.2-26.3-1.4l.4-123.6c8.3.2,17.1.7,26.3,1.4" fill="#bf7516"/><path d="M796.4,384.9,796,508.5c-10.1-.3-19.4-.2-27.8.1l.3-123.6c8.4-.3,17.8-.3,27.9-.1" fill="#c27717"/><path d="M768.5,385l-.3,123.6c-11.2.4-20.8,1.1-28.1,1.9l.3-123.6c7.4-.7,16.9-1.5,28.1-1.9" fill="#c57917"/><path d="M740.4,386.9l-.3,123.6c-9.4.9-15.3,1.8-16.6,2l.3-123.5c1.4-.3,7.2-1.2,16.6-2.1" fill="#c87b17"/></g></g></g><g style="isolation:isolate"><g clip-path="url(#clip-path-2)"><g style="isolation:isolate"><path d="M1040.4,511.1l-.4,123.6c.1-24.6-17.8-51.9-67.9-80.8l.4-123.6c50,28.9,68,56.2,67.9,80.8" fill="#b16c15"/></g></g></g><polygon points="723.8 389 723.5 512.5 496 644.7 496.4 521.1 723.8 389" fill="#d04d25"/><polygon points="1072 186.6 809.7 339.1 723.8 389 496.4 521.1 321.8 622.6 198.4 551.4 948.6 115.4 1072 186.6" fill="#dd5227"/><polygon points="321.8 622.6 321.4 746.2 198 675 198.4 551.4 321.8 622.6" fill="#ae401f"/><polygon points="496.4 521.1 496 644.7 321.4 746.2 321.8 622.6 496.4 521.1" fill="#d04d25"/><g style="isolation:isolate"><g clip-path="url(#clip-path-3)"><g style="isolation:isolate"><path d="M1212.5,522.2l-.3,123.6c0,.8-.1,1.6-.1,2.4l.4-123.6v-2.4" fill="#ba7216"/><path d="M1212.5,524.6l-.4,123.6a87.5,87.5,0,0,1-1.8,15.4l.4-123.5a100.8,100.8,0,0,0,1.8-15.5" fill="#bc7416"/><path d="M1210.7,540.1l-.4,123.5a101.7,101.7,0,0,1-4.6,16.1l.3-123.6a104.1,104.1,0,0,0,4.7-16" fill="#bf7516"/><path d="M1206,556.1l-.3,123.6a129.5,129.5,0,0,1-8.4,17.7l.4-123.6a141.7,141.7,0,0,0,8.3-17.7" fill="#c27717"/><path d="M1197.7,573.8l-.4,123.6a162.1,162.1,0,0,1-14.3,21l.4-123.5a182,182,0,0,0,14.3-21.1" fill="#c57917"/><path d="M1183.4,594.9l-.4,123.5a235.5,235.5,0,0,1-25.5,27.3l.3-123.6a235.4,235.4,0,0,0,25.6-27.2" fill="#c87b17"/><path d="M1157.8,622.1l-.3,123.6c-21.1,19.5-44.1,34.9-60.6,44.9l.3-123.6c16.6-10,39.5-25.4,60.6-44.9" fill="#cb7d18"/><path d="M1097.2,667l-.3,123.6c-11.8,7.1-20.3,11.5-22.5,12.6l.4-123.6c2.2-1.1,10.7-5.5,22.4-12.6" fill="#ce7e18"/></g></g></g><polygon points="1074.8 679.6 1074.4 803.2 952.2 731.2 952.6 607.7 1074.8 679.6" fill="#b36e15"/><path d="M1108.8,393.9c245.5,141.8-20.1,278.5-34,285.7L952.6,607.7c55.1-32.1,155.6-99.1,19.9-177.4C862.7,366.9,730.8,387.9,723.8,389l85.9-49.9C817.8,337.9,973.1,315.6,1108.8,393.9Z" fill="#e38b1b"/><polygon points="1074.8 679.6 1074.4 803.2 952.2 731.2 952.6 607.7 1074.8 679.6"/><polygon points="392.3 698.8 391.9 822.4 327 860.2 327.3 736.6 392.3 698.8" fill="#09a2b7"/><polygon points="321.8 622.6 392.3 698.8 327.3 736.6 0.3 547.8 65.3 510.1 198.4 551.4 321.8 622.6" fill="#0aacc2"/><polygon points="327.3 736.6 327 860.2 0 671.4 0.3 547.8 327.3 736.6" fill="#088899"/><polygon points="748.7 869.1 748.3 992.7 624.9 921.4 625.3 797.9 748.7 869.1" fill="#ae401f"/><polygon points="1074.8 679.6 1074.4 803.2 748.3 992.7 748.7 869.1 1074.8 679.6" fill="#d04d25"/><polygon points="952.6 607.7 1074.8 679.6 748.7 869.1 625.3 797.9 952.6 607.7" fill="#dd5227"/></g><g style="isolation:isolate"><polygon points="748.7 869.1 820.4 946 755.5 983.8 427.3 794.3 492.2 756.5 625.3 797.9 748.7 869.1" fill="#0aacc2"/><polygon points="820.4 946 820.1 1069.6 755.1 1107.4 755.5 983.8 820.4 946" fill="#09a2b7"/><polygon points="755.5 983.8 755.1 1107.4 426.9 917.9 427.3 794.3 755.5 983.8" fill="#088899"/></g><g style="isolation:isolate"><g style="isolation:isolate"><g clip-path="url(#clip-path-4)"><g style="isolation:isolate"><path d="M1970,602.8l-.4,123.6v.9l.4-123.6v-.9" fill="#34407b"/><path d="M1970,603.7l-.4,123.6a30.7,30.7,0,0,1-.7,6l.4-123.6a40.9,40.9,0,0,0,.7-6" fill="#34417d"/><path d="M1969.3,609.7l-.4,123.6a32.3,32.3,0,0,1-1.6,5.9l.3-123.6a39.8,39.8,0,0,0,1.7-5.9" fill="#35427f"/><path d="M1967.6,615.6l-.3,123.6a53.8,53.8,0,0,1-2.8,6l.3-123.6a40.4,40.4,0,0,0,2.8-6" fill="#364381"/><path d="M1964.8,621.6l-.3,123.6c-1.3,2.1-2.7,4.2-4.3,6.3l.3-123.6a47,47,0,0,0,4.3-6.3" fill="#374483"/><path d="M1960.5,627.9l-.3,123.6a61.8,61.8,0,0,1-6.6,7.1l.3-123.6a61.8,61.8,0,0,0,6.6-7.1" fill="#384585"/><path d="M1953.9,635l-.3,123.6a88.7,88.7,0,0,1-13.7,10.2l.3-123.6a80,80,0,0,0,13.7-10.2" fill="#394687"/><path d="M1940.2,645.2l-.3,123.6-1.4.8a119.1,119.1,0,0,1-22.9,10L1916,656a118.3,118.3,0,0,0,22.9-10l1.3-.8" fill="#394789"/><path d="M1916,656l-.4,123.6a142,142,0,0,1-20.2,5l.4-123.5A165.8,165.8,0,0,0,1916,656" fill="#394687"/><path d="M1895.8,661.1l-.4,123.5c-4.5.9-9.1,1.5-13.7,2l.4-123.6c4.6-.5,9.2-1.1,13.7-1.9" fill="#384585"/><path d="M1882.1,663l-.4,123.6c-3.9.3-7.9.6-11.9.7l.4-123.5c4-.2,7.9-.4,11.9-.8" fill="#374483"/><path d="M1870.2,663.8l-.4,123.5c-3.6.2-7.3.2-11,.1l.4-123.6c3.6.1,7.3.1,11,0" fill="#364381"/><path d="M1859.2,663.8l-.4,123.6q-5.2-.1-10.5-.6l.4-123.6q5.3.4,10.5.6" fill="#35427f"/><path d="M1848.7,663.2l-.4,123.6c-3.5-.3-6.9-.6-10.3-1.1l.3-123.6c3.4.5,6.9.9,10.4,1.1" fill="#34417d"/><path d="M1838.3,662.1l-.3,123.6c-3.6-.5-7.1-1.1-10.5-1.9l.3-123.5q5.3,1.1,10.5,1.8" fill="#34407b"/><path d="M1827.8,660.3l-.3,123.5c-3.8-.7-7.4-1.6-11-2.6l.3-123.6c3.6,1,7.3,1.9,11,2.7" fill="#333f79"/><path d="M1816.8,657.6l-.3,123.6a128.4,128.4,0,0,1-12.8-4.4l.3-123.6a128.4,128.4,0,0,0,12.8,4.4" fill="#323e77"/><path d="M1804,653.2l-.3,123.6a112.1,112.1,0,0,1-15.2-7.2c-20.5-11.9-30.7-27.9-30.7-43.8l.4-123.6c-.1,16,10.1,31.9,30.6,43.8a124.8,124.8,0,0,0,15.2,7.2" fill="#313d75"/></g></g></g><ellipse cx="1863.6" cy="602.5" rx="61.5" ry="106.1" transform="translate(1255.8 2464.4) rotate(-89.8)" fill="#3f4e97"/></g><g style="isolation:isolate"><polygon points="1497.9 743.6 1497.6 867.1 1425.8 790.2 1426.1 666.6 1497.9 743.6" fill="#32648f"/><polygon points="1718.1 758.5 1621.3 814.8 1497.9 743.6 1426.1 666.6 1492.3 628.2 1718.1 758.5" fill="#4183bb"/><polygon points="1718.1 758.5 1717.8 882.1 1621 938.4 1621.3 814.8 1718.1 758.5" fill="#3d7bb0"/><polygon points="1621.3 814.8 1621 938.4 1497.6 867.1 1497.9 743.6 1621.3 814.8" fill="#336793"/></g><g style="isolation:isolate"><polygon points="1621.3 814.8 1139.5 1094.8 1016.1 1023.5 1497.9 743.6 1621.3 814.8" fill="#dd5227"/><polygon points="1621.3 814.8 1621 938.4 1139.2 1218.4 1139.5 1094.8 1621.3 814.8" fill="#d04d25"/><polygon points="1139.5 1094.8 1139.2 1218.4 1015.8 1147.1 1016.1 1023.5 1139.5 1094.8" fill="#ae401f"/><polygon points="1139.5 1094.8 1211.3 1171.7 1146.3 1209.5 818.1 1020 883.1 982.2 1016.1 1023.5 1139.5 1094.8" fill="#0aacc2"/><polygon points="1211.3 1171.7 1211 1295.3 1146 1333 1146.3 1209.5 1211.3 1171.7" fill="#09a2b7"/><polygon points="1146.3 1209.5 1146 1333 817.8 1143.6 818.1 1020 1146.3 1209.5" fill="#088899"/></g></svg>