<svg id="Layer_1" data-name="Layer 1" xmlns="http://www.w3.org/2000/svg" width="256" height="42.7" viewBox="0 0 256 42.7"><title>matthew-peixoto</title><polygon points="11.4 21.2 7.3 0.7 0.5 0.7 0.5 42 5.3 42 5.3 12.8 10.1 42 12.6 42 17.4 12.8 17.4 42 22.4 42 22.4 0.7 15.5 0.7 11.4 21.2"/><path d="M29.7.7,24,42h5.6l1-9.3h5.2l1,9.3h5.6L37.1.7Zm1.5,26.6,2-19.1,2,19.1Z"/><polygon points="57.6 0.7 40.8 0.7 40.8 6.1 46.2 6.1 46.2 42 52 42 52 6.1 57.6 6.1 57.6 6.1 63 6.1 63 42 68.7 42 68.7 6.1 74.3 6.1 74.3 0.7 57.6 0.7 57.6 0.7"/><polygon points="85.8 17.7 81.1 17.7 81.1 0.7 75.4 0.7 75.4 42 81.1 42 81.1 23 85.8 23 85.8 42 91.6 42 91.6 0.7 85.8 0.7 85.8 17.7"/><polygon points="99.5 23 105.2 23 105.2 17.7 99.5 17.7 99.5 6.1 107.7 6.1 107.7 0.7 93.8 0.7 93.8 42 108.2 42 108.2 36.6 99.5 36.6 99.5 23"/><polygon points="127 25 124.2 0.7 119.7 0.7 116.9 24.1 114 0.7 108.7 0.7 114 42 119.1 42 121.8 19.8 124.9 42 129.9 42 135.1 0.7 129.9 0.7 127 25"/><path d="M149.5.7h-5.4V42h5.7V25.2h.8q5.3,0,7.5-2.7c1.7-1.9,2.1-4,2.1-9.5s-.4-7.4-2.2-9.6S154.5.7,149.5.7Zm1.1,19.2h-.8V6.1h.8c3.4,0,4.1,1.1,4.1,6.9S154,19.9,150.6,19.9Z"/><polygon points="167.7 23 173.3 23 173.3 17.7 167.7 17.7 167.7 6.1 175.8 6.1 175.8 0.7 161.9 0.7 161.9 42 176.3 42 176.3 36.6 167.7 36.6 167.7 23"/><rect x="177.4" y="0.7" width="5.7" height="41.26"/><polygon points="203.1 0.7 197.6 0.7 194.2 13.4 190.8 0.7 185 0.7 190.7 20.4 184.5 42 190.7 42 194.1 28.3 197.4 42 203.7 42 197.4 20.4 203.1 0.7"/><path d="M212.5.1a8.4,8.4,0,0,0-6.9,3.3c-1.1,1.8-1.2,2.9-1.2,7.8V31.4c0,4.9.1,6,1.2,7.8a8.7,8.7,0,0,0,13.8,0c1.1-1.8,1.3-2.8,1.3-7.8V11.2c0-4.9-.2-6-1.3-7.8A8.4,8.4,0,0,0,212.5.1Zm2.4,33.8c0,2.3-.7,3.3-2.4,3.3s-2.4-1-2.4-3.3V8.8c0-2.3.7-3.3,2.4-3.3s2.4,1,2.4,3.3Z"/><polygon points="221.5 6.1 226.9 6.1 226.9 42 232.6 42 232.6 6.1 238.3 6.1 238.3 0.7 221.5 0.7 221.5 6.1"/><path d="M254.2,3.4A8.4,8.4,0,0,0,247.3.1a8.1,8.1,0,0,0-6.8,3.3c-1.1,1.8-1.3,2.9-1.3,7.8V31.4c0,4.9.2,6,1.3,7.8a7.9,7.9,0,0,0,6.8,3.4,8.2,8.2,0,0,0,6.9-3.4c1.1-1.8,1.3-2.8,1.3-7.8V11.2C255.5,6.3,255.3,5.2,254.2,3.4Zm-4.4,30.5c0,2.3-.8,3.3-2.5,3.3s-2.4-1-2.4-3.3V8.8c0-2.3.8-3.3,2.4-3.3s2.5,1,2.5,3.3Z"/></svg>