<svg xmlns="http://www.w3.org/2000/svg"><symbol id="matthew-peixoto" viewBox="0 0 256 45"><path d="M11.9 22.4L7.8 1.9H1v41.2h4.8V14l4.8 29.1h2.5L17.9 14v29.1h5V1.9h-7l-4 20.5zM30.1 1.9l-5.6 41.2H30l1-9.3h5.2l1 9.3h5.7L37.5 1.9zm1.5 26.6l2-19.1 2 19.1zm9.6-21.2h5.4v35.8h5.7V7.3h10.9v35.8H69V7.3h5.6V1.9H41.2v5.4zM86 18.8h-4.7V1.9h-5.7v41.2h5.7V24.2H86v18.9h5.8V1.9H86v16.9zm13.7 5.4h5.6v-5.4h-5.6V7.3h8.1V1.9H93.9v41.2h14.4v-5.4h-8.6V24.2zm27.3 2l-2.8-24.3h-4.5l-2.8 23.4L114 1.9h-5.2l5.2 41.2h5.2l2.7-22.2 3 22.2h5l5.3-41.2h-5.3L127 26.2zm22.4-24.3H144v41.2h5.7V26.4h.8c3.5 0 6-1 7.5-2.7s2.2-4 2.2-9.5-.5-7.4-2.3-9.6-3.5-2.7-8.5-2.7zm1.1 19.1h-.8V7.3h.8c3.4 0 4.1 1.1 4.1 6.8s-.7 6.9-4.1 6.9zm17 3.2h5.7v-5.4h-5.7V7.3h8.2V1.9h-13.9v41.2h14.4v-5.4h-8.7V24.2zm9.6-22.3h5.7v41.18h-5.7zm25.7 0h-5.5l-3.4 12.7-3.4-12.7h-5.8l5.7 19.6-6.2 21.6h6.2l3.4-13.7 3.4 13.7h6.2l-6.2-21.6 5.6-19.6zm9.4-.6a8.4 8.4 0 0 0-6.9 3.3c-1.1 1.8-1.3 2.9-1.3 7.7v20.3c0 4.9.2 5.9 1.3 7.7a8.2 8.2 0 0 0 6.9 3.4 8 8 0 0 0 6.8-3.4c1.1-1.8 1.3-2.8 1.3-7.7V12.3c0-4.8-.2-5.9-1.3-7.7a8.2 8.2 0 0 0-6.8-3.3zm2.4 33.7c0 2.3-.8 3.3-2.4 3.3s-2.5-1-2.5-3.3V10c0-2.3.8-3.3 2.5-3.3s2.4 1 2.4 3.3zm6.5-27.7h5.4v35.8h5.7V7.3h5.6V1.9h-16.7v5.4zm32.6-2.7a8.8 8.8 0 0 0-13.7 0c-1.1 1.8-1.3 2.9-1.3 7.7v20.3c0 4.9.2 5.9 1.3 7.7a8.6 8.6 0 0 0 13.7 0c1.1-1.8 1.3-2.8 1.3-7.7V12.3c0-4.8-.2-5.9-1.3-7.7zM249.3 35c0 2.3-.8 3.3-2.4 3.3s-2.5-1-2.5-3.3V10c0-2.3.8-3.3 2.5-3.3s2.4 1 2.4 3.3z"/></symbol><symbol id="matthew-peixoto" viewBox="0 0 256 45"><path d="M11.9 22.4L7.8 1.9H1v41.2h4.8V14l4.8 29.1h2.5L17.9 14v29.1h5V1.9h-7l-4 20.5zM30.1 1.9l-5.6 41.2H30l1-9.3h5.2l1 9.3h5.7L37.5 1.9zm1.5 26.6l2-19.1 2 19.1zm9.6-21.2h5.4v35.8h5.7V7.3h10.9v35.8H69V7.3h5.6V1.9H41.2v5.4zM86 18.8h-4.7V1.9h-5.7v41.2h5.7V24.2H86v18.9h5.8V1.9H86v16.9zm13.7 5.4h5.6v-5.4h-5.6V7.3h8.1V1.9H93.9v41.2h14.4v-5.4h-8.6V24.2zm27.3 2l-2.8-24.3h-4.5l-2.8 23.4L114 1.9h-5.2l5.2 41.2h5.2l2.7-22.2 3 22.2h5l5.3-41.2h-5.3L127 26.2zm22.4-24.3H144v41.2h5.7V26.4h.8c3.5 0 6-1 7.5-2.7s2.2-4 2.2-9.5-.5-7.4-2.3-9.6-3.5-2.7-8.5-2.7zm1.1 19.1h-.8V7.3h.8c3.4 0 4.1 1.1 4.1 6.8s-.7 6.9-4.1 6.9zm17 3.2h5.7v-5.4h-5.7V7.3h8.2V1.9h-13.9v41.2h14.4v-5.4h-8.7V24.2zm9.6-22.3h5.7v41.18h-5.7zm25.7 0h-5.5l-3.4 12.7-3.4-12.7h-5.8l5.7 19.6-6.2 21.6h6.2l3.4-13.7 3.4 13.7h6.2l-6.2-21.6 5.6-19.6zm9.4-.6a8.4 8.4 0 0 0-6.9 3.3c-1.1 1.8-1.3 2.9-1.3 7.7v20.3c0 4.9.2 5.9 1.3 7.7a8.2 8.2 0 0 0 6.9 3.4 8 8 0 0 0 6.8-3.4c1.1-1.8 1.3-2.8 1.3-7.7V12.3c0-4.8-.2-5.9-1.3-7.7a8.2 8.2 0 0 0-6.8-3.3zm2.4 33.7c0 2.3-.8 3.3-2.4 3.3s-2.5-1-2.5-3.3V10c0-2.3.8-3.3 2.5-3.3s2.4 1 2.4 3.3zm6.5-27.7h5.4v35.8h5.7V7.3h5.6V1.9h-16.7v5.4zm32.6-2.7a8.8 8.8 0 0 0-13.7 0c-1.1 1.8-1.3 2.9-1.3 7.7v20.3c0 4.9.2 5.9 1.3 7.7a8.6 8.6 0 0 0 13.7 0c1.1-1.8 1.3-2.8 1.3-7.7V12.3c0-4.8-.2-5.9-1.3-7.7zM249.3 35c0 2.3-.8 3.3-2.4 3.3s-2.5-1-2.5-3.3V10c0-2.3.8-3.3 2.5-3.3s2.4 1 2.4 3.3z"/></symbol><symbol id="matthew-peixoto" viewBox="0 0 256 45"><path d="M11.9 22.4L7.8 1.9H1v41.2h4.8V14l4.8 29.1h2.5L17.9 14v29.1h5V1.9h-7l-4 20.5zM30.1 1.9l-5.6 41.2H30l1-9.3h5.2l1 9.3h5.7L37.5 1.9zm1.5 26.6l2-19.1 2 19.1zm9.6-21.2h5.4v35.8h5.7V7.3h10.9v35.8H69V7.3h5.6V1.9H41.2v5.4zM86 18.8h-4.7V1.9h-5.7v41.2h5.7V24.2H86v18.9h5.8V1.9H86v16.9zm13.7 5.4h5.6v-5.4h-5.6V7.3h8.1V1.9H93.9v41.2h14.4v-5.4h-8.6V24.2zm27.3 2l-2.8-24.3h-4.5l-2.8 23.4L114 1.9h-5.2l5.2 41.2h5.2l2.7-22.2 3 22.2h5l5.3-41.2h-5.3L127 26.2zm22.4-24.3H144v41.2h5.7V26.4h.8c3.5 0 6-1 7.5-2.7s2.2-4 2.2-9.5-.5-7.4-2.3-9.6-3.5-2.7-8.5-2.7zm1.1 19.1h-.8V7.3h.8c3.4 0 4.1 1.1 4.1 6.8s-.7 6.9-4.1 6.9zm17 3.2h5.7v-5.4h-5.7V7.3h8.2V1.9h-13.9v41.2h14.4v-5.4h-8.7V24.2zm9.6-22.3h5.7v41.18h-5.7zm25.7 0h-5.5l-3.4 12.7-3.4-12.7h-5.8l5.7 19.6-6.2 21.6h6.2l3.4-13.7 3.4 13.7h6.2l-6.2-21.6 5.6-19.6zm9.4-.6a8.4 8.4 0 0 0-6.9 3.3c-1.1 1.8-1.3 2.9-1.3 7.7v20.3c0 4.9.2 5.9 1.3 7.7a8.2 8.2 0 0 0 6.9 3.4 8 8 0 0 0 6.8-3.4c1.1-1.8 1.3-2.8 1.3-7.7V12.3c0-4.8-.2-5.9-1.3-7.7a8.2 8.2 0 0 0-6.8-3.3zm2.4 33.7c0 2.3-.8 3.3-2.4 3.3s-2.5-1-2.5-3.3V10c0-2.3.8-3.3 2.5-3.3s2.4 1 2.4 3.3zm6.5-27.7h5.4v35.8h5.7V7.3h5.6V1.9h-16.7v5.4zm32.6-2.7a8.8 8.8 0 0 0-13.7 0c-1.1 1.8-1.3 2.9-1.3 7.7v20.3c0 4.9.2 5.9 1.3 7.7a8.6 8.6 0 0 0 13.7 0c1.1-1.8 1.3-2.8 1.3-7.7V12.3c0-4.8-.2-5.9-1.3-7.7zM249.3 35c0 2.3-.8 3.3-2.4 3.3s-2.5-1-2.5-3.3V10c0-2.3.8-3.3 2.5-3.3s2.4 1 2.4 3.3z"/></symbol></svg>