<svg xmlns="http://www.w3.org/2000/svg"><symbol id="matthew-peixoto" viewBox="0 0 204.8 256"><path d="M74.5 1h34.1v203.2H84.3V60.7L60.5 204.2H48.3L24.6 60.7v143.5H.8V1h33.5l20.1 101.1zM151 1c24.7 0 33.8 3 42 13.4s11 21.3 11 47.2-2.4 37.5-10.7 46.9-19.8 13.1-36.8 13.1h-4v82.6h-28.3V1zm5.5 94.4c16.7 0 20.1-5.4 20.1-34.1s-3.4-33.8-20.1-33.8h-4v67.9zM9.5 238l-3.3-16.4H.8v32.9h3.9v-23.3l3.8 23.3h2l3.8-23.3v23.3h4v-32.9h-5.5L9.5 238zm14.6-16.4l-4.5 32.9H24l.8-7.4H29l.8 7.4h4.5L30 221.6zm1.2 21.2l1.6-15.3 1.6 15.3zm7.7-16.9h4.3v28.6h4.5v-28.6h8.8v28.6h4.6v-28.6h4.5v-4.3H33v4.3zm35.8 9.2h-3.7v-13.5h-4.6v32.9h4.6v-15.1h3.7v15.1h4.6v-32.9h-4.6v13.5zm10.9 4.3h4.6v-4.3h-4.6v-9.2h6.6v-4.3H75.1v32.9h11.5v-4.3h-6.9v-10.8zm21.9 1.6l-2.2-19.4h-3.6l-2.2 18.7-2.4-18.7H87l4.2 32.9h4.1l2.2-17.7 2.4 17.7h4l4.2-32.9h-4.2l-2.3 19.4zm17.9-19.4h-4.3v32.9h4.6v-13.4h.6q4.2 0 6-2.1c1.3-1.5 1.7-3.2 1.7-7.6s-.4-5.9-1.7-7.7-2.9-2.1-6.9-2.1zm.9 15.3h-.6v-11h.6c2.7 0 3.3.8 3.3 5.4s-.6 5.6-3.3 5.6zm13.6 2.5h4.6v-4.3H134v-9.2h6.5v-4.3h-11.1v32.9h11.5v-4.3H134v-10.8zm7.7-17.8h4.6v32.94h-4.6zm20.6 0h-4.5l-2.6 10.1-2.8-10.1h-4.6l4.5 15.7-4.9 17.2h4.9l2.8-10.9 2.6 10.9h5l-5-17.2 4.6-15.7zm7.4-.5a6.6 6.6 0 0 0-5.5 2.6c-.8 1.5-1 2.3-1 6.2v16.2c0 3.9.2 4.8 1 6.2a7 7 0 0 0 11 0c.9-1.4 1-2.2 1-6.2v-16.2c0-3.9-.1-4.7-1-6.2a6.6 6.6 0 0 0-5.5-2.6zm1.9 26.9c0 1.9-.5 2.7-1.9 2.7s-1.9-.8-1.9-2.7v-20c0-1.8.6-2.6 1.9-2.6s1.9.8 1.9 2.6zm5.3-22.1h4.3v28.6h4.6v-28.6h4.5v-4.3h-13.4v4.3zm26.1-2.2a7.1 7.1 0 0 0-11 0c-.9 1.5-1 2.3-1 6.2v16.2c0 3.9.1 4.8 1 6.2a7 7 0 0 0 11 0c.9-1.4 1-2.2 1-6.2v-16.2c0-3.9-.1-4.7-1-6.2zm-3.6 24.3c0 1.9-.6 2.7-1.9 2.7s-1.9-.8-1.9-2.7v-20c0-1.8.5-2.6 1.9-2.6s1.9.8 1.9 2.6z"/></symbol></svg>