<svg xmlns="http://www.w3.org/2000/svg"><symbol id="matthew-peixoto" viewBox="0 0 256 44.5"><path d="M11.8 22.2l-4-20.5H1v41.1h4.8v-29l4.8 29h2.5l4.8-29v29h4.9V1.7h-6.9l-4.1 20.5zM30 1.7l-5.6 41.1H30l1-9.3h5.1l1.1 9.3h5.6L37.4 1.7zm1.6 26.5l2-19 1.9 19zM57.9 1.7H41.2v5.4h5.3v35.7h5.8V7.1h10.9v35.7h5.7V7.1h5.6V1.7H57.9zM86 18.6h-4.7V1.7h-5.7v41.1h5.7V23.9H86v18.9h5.7V1.7H86v16.9zm13.6 5.3h5.7v-5.3h-5.7V7.1h8.2V1.7H93.9v41.1h14.4v-5.4h-8.7V23.9zm27.4 2l-2.8-24.2h-4.5l-2.8 23.4L114 1.7h-5.2l5.2 41.1h5.1l2.7-22.1 3.1 22.1h4.9l5.3-41.1h-5.3L127 25.9zm22.4-24.2H144v41.1h5.7V26.1h.8q5.3 0 7.5-2.7c1.6-1.9 2.1-3.9 2.1-9.4s-.5-7.4-2.2-9.6-3.5-2.7-8.5-2.7zm1.1 19.1h-.8V7.1h.8c3.4 0 4.1 1.1 4.1 6.8s-.7 6.9-4.1 6.9zm17 3.1h5.7v-5.3h-5.7V7.1h8.1V1.7h-13.8v41.1h14.3v-5.4h-8.6V23.9zm9.7-22.2h5.7v41.05h-5.7zm25.6 0h-5.5L194 14.4l-3.4-12.7h-5.8l5.7 19.6-6.2 21.5h6.2l3.3-13.6 3.4 13.6h6.2l-6.2-21.5 5.6-19.6zm9.4-.6a8.4 8.4 0 0 0-6.9 3.3c-1.1 1.8-1.2 2.9-1.2 7.7v20.2c0 4.9.1 5.9 1.2 7.7a8.2 8.2 0 0 0 6.9 3.4A7.9 7.9 0 0 0 219 40c1.1-1.8 1.3-2.8 1.3-7.7V12.1c0-4.8-.2-5.9-1.3-7.7a8.1 8.1 0 0 0-6.8-3.3zm2.4 33.6c0 2.4-.8 3.3-2.4 3.3s-2.4-.9-2.4-3.3V9.8c0-2.4.7-3.3 2.4-3.3s2.4.9 2.4 3.3zm6.6-27.6h5.3v35.7h5.7V7.1h5.6V1.7h-16.6v5.4zm32.5-2.7a8.1 8.1 0 0 0-6.8-3.3 8.4 8.4 0 0 0-6.9 3.3c-1.1 1.8-1.2 2.9-1.2 7.7v20.2c0 4.9.1 5.9 1.2 7.7a8.2 8.2 0 0 0 6.9 3.4 7.9 7.9 0 0 0 6.8-3.4c1.1-1.8 1.3-2.8 1.3-7.7V12.1c0-4.8-.2-5.9-1.3-7.7zm-4.4 30.3c0 2.4-.8 3.3-2.4 3.3s-2.4-.9-2.4-3.3V9.8c0-2.4.7-3.3 2.4-3.3s2.4.9 2.4 3.3z"/></symbol><symbol id="matthew-peixoto" viewBox="0 0 256 44.5"><path d="M11.8 22.2l-4-20.5H1v41.1h4.8v-29l4.8 29h2.5l4.8-29v29h4.9V1.7h-6.9l-4.1 20.5zM30 1.7l-5.6 41.1H30l1-9.3h5.1l1.1 9.3h5.6L37.4 1.7zm1.6 26.5l2-19 1.9 19zM57.9 1.7H41.2v5.4h5.3v35.7h5.8V7.1h10.9v35.7h5.7V7.1h5.6V1.7H57.9zM86 18.6h-4.7V1.7h-5.7v41.1h5.7V23.9H86v18.9h5.7V1.7H86v16.9zm13.6 5.3h5.7v-5.3h-5.7V7.1h8.2V1.7H93.9v41.1h14.4v-5.4h-8.7V23.9zm27.4 2l-2.8-24.2h-4.5l-2.8 23.4L114 1.7h-5.2l5.2 41.1h5.1l2.7-22.1 3.1 22.1h4.9l5.3-41.1h-5.3L127 25.9zm22.4-24.2H144v41.1h5.7V26.1h.8q5.3 0 7.5-2.7c1.6-1.9 2.1-3.9 2.1-9.4s-.5-7.4-2.2-9.6-3.5-2.7-8.5-2.7zm1.1 19.1h-.8V7.1h.8c3.4 0 4.1 1.1 4.1 6.8s-.7 6.9-4.1 6.9zm17 3.1h5.7v-5.3h-5.7V7.1h8.1V1.7h-13.8v41.1h14.3v-5.4h-8.6V23.9zm9.7-22.2h5.7v41.05h-5.7zm25.6 0h-5.5L194 14.4l-3.4-12.7h-5.8l5.7 19.6-6.2 21.5h6.2l3.3-13.6 3.4 13.6h6.2l-6.2-21.5 5.6-19.6zm9.4-.6a8.4 8.4 0 0 0-6.9 3.3c-1.1 1.8-1.2 2.9-1.2 7.7v20.2c0 4.9.1 5.9 1.2 7.7a8.2 8.2 0 0 0 6.9 3.4A7.9 7.9 0 0 0 219 40c1.1-1.8 1.3-2.8 1.3-7.7V12.1c0-4.8-.2-5.9-1.3-7.7a8.1 8.1 0 0 0-6.8-3.3zm2.4 33.6c0 2.4-.8 3.3-2.4 3.3s-2.4-.9-2.4-3.3V9.8c0-2.4.7-3.3 2.4-3.3s2.4.9 2.4 3.3zm6.6-27.6h5.3v35.7h5.7V7.1h5.6V1.7h-16.6v5.4zm32.5-2.7a8.1 8.1 0 0 0-6.8-3.3 8.4 8.4 0 0 0-6.9 3.3c-1.1 1.8-1.2 2.9-1.2 7.7v20.2c0 4.9.1 5.9 1.2 7.7a8.2 8.2 0 0 0 6.9 3.4 7.9 7.9 0 0 0 6.8-3.4c1.1-1.8 1.3-2.8 1.3-7.7V12.1c0-4.8-.2-5.9-1.3-7.7zm-4.4 30.3c0 2.4-.8 3.3-2.4 3.3s-2.4-.9-2.4-3.3V9.8c0-2.4.7-3.3 2.4-3.3s2.4.9 2.4 3.3z"/></symbol></svg>