<svg xmlns="http://www.w3.org/2000/svg"><symbol id="matthew-peixoto" viewBox="0 0 256 256"><path d="M93.2 1h42.6v254h-30.5V75.6L75.6 255H60.4L30.7 75.6V255H1V1h41.9L68 127.4zm95.5 0c30.9 0 42.3 3.8 52.6 16.8s13.7 26.6 13.7 59c0 33.9-3 46.8-13.3 58.6s-24.8 16.4-46.1 16.4h-5V255h-35.4V1zm6.9 118.1c20.9 0 25.1-6.9 25.1-42.7s-4.2-42.3-25.1-42.3h-5v85z"/></symbol><symbol id="matthew-peixoto" viewBox="0 0 256 256"><path d="M93.2 1h42.6v254h-30.5V75.6L75.6 255H60.4L30.7 75.6V255H1V1h41.9L68 127.4zm95.5 0c30.9 0 42.3 3.8 52.6 16.8s13.7 26.6 13.7 59c0 33.9-3 46.8-13.3 58.6s-24.8 16.4-46.1 16.4h-5V255h-35.4V1zm6.9 118.1c20.9 0 25.1-6.9 25.1-42.7s-4.2-42.3-25.1-42.3h-5v85z"/></symbol></svg>