<svg xmlns="http://www.w3.org/2000/svg"><symbol id="xd" viewBox="0 0 256 256"><path fill="#ff26be" d="M210 251.8H46a44.9 44.9 0 0 1-45-45V49.2a44.9 44.9 0 0 1 45-45h164a44.9 44.9 0 0 1 45 45v157.6a44.9 44.9 0 0 1-45 45z"/><path fill="#2e001f" d="M206 241.2H50a38.4 38.4 0 0 1-38.4-38.4V53.2A38.4 38.4 0 0 1 50 14.8h155.9a38.3 38.3 0 0 1 38.4 38.4v149.5a38.3 38.3 0 0 1-38.3 38.5z"/><path fill="#ffd9f2" d="M101.4 120.1l29.7 56.9c.5.8.2 1.7-.7 1.7H112a2 2 0 0 1-2.2-1.4c-6.8-14-13.7-27.9-20.7-42.9h-.3c-6.3 14.1-13.3 29.1-20.1 43a1.9 1.9 0 0 1-1.9 1.2H49.4c-1.1 0-1.2-.9-.7-1.5l29-55.2-28-55.9c-.7-.9 0-1.5.6-1.5h18.2c1.1 0 1.5.2 1.9 1.2 6.7 13.9 13.5 28.3 19.8 42.4h.2c6.2-14 12.9-28.5 19.5-42.3.5-.9.8-1.4 1.9-1.4h17c.9 0 1.2.6.7 1.5zm34.9 17.2c0-24.6 16.4-43.9 42.4-43.9a49.6 49.6 0 0 1 5.5.2v-28a1 1 0 0 1 1.1-1.1H202c.8 0 1 .3 1 .8v97.2a66.5 66.5 0 0 0 .6 10.4c0 .6-.2.8-.9 1.1a62.2 62.2 0 0 1-27.1 6.2c-22.9.1-39.3-14.1-39.3-42.9zm47.9-27.1a16.8 16.8 0 0 0-6.1-1c-13.4 0-22.7 10.2-22.7 27.3 0 19.4 9.5 27.3 21.5 27.3a19 19 0 0 0 7.3-1.2z"/></symbol><symbol id="matthew-peixoto" viewBox="0 0 256 38.5"><path d="M14 .6h6.3v37.3h-4.5V11.6l-4.4 26.3H9.2L4.9 11.6v26.3H.5V.6h6.1l3.7 18.6zm14.4 37.3h-5l5-37.3h6.7L40 37.9h-5.1l-.9-8.4h-4.7zm3.2-30.5l-1.8 17.2h3.6zm13.2-1.9H40V.6h15.1v4.9H50v32.4h-5.2zm16.9 0h-4.9V.6H72v4.9h-5.1v32.4h-5.2zm18 15.3v17.1h-5.2V.6h5.2v15.3H84V.6h5.2v37.3H84V20.8zM105.3.6v4.9h-7.4v10.4h5.1v4.9h-5.1V33h7.8v4.9h-13V.6zm2.6 0h4.7l2.7 21.2L117.8.6h4l2.6 22 2.6-22h4.7L127 37.9h-4.5l-2.8-20.1-2.4 20.1h-4.7zm41.7 0c4.6 0 6.2.6 7.7 2.5s2 3.9 2 8.6-.4 6.9-1.9 8.6-3.6 2.4-6.8 2.4h-.7v15.2h-5.2V.6zm1 17.3c3.1 0 3.7-1 3.7-6.2s-.6-6.2-3.7-6.2h-.7v12.4zM175 .6v4.9h-7.4v10.4h5.2v4.9h-5.2V33h7.9v4.9h-13V.6zm8.6 37.3h-5.2V.6h5.2zM186.9.6h5.2l3.1 11.5 3-11.5h5l-5.1 17.8 5.6 19.5h-5.6l-3-12.4-3.1 12.4h-5.6l5.6-19.5zm33.8 27.8c0 4.4-.2 5.3-1.2 7a7.9 7.9 0 0 1-12.4 0c-1-1.7-1.2-2.6-1.2-7V10.1c0-4.4.2-5.4 1.2-7a7.9 7.9 0 0 1 12.4 0c1 1.6 1.2 2.6 1.2 7zm-5.2-20.5c0-2.1-.6-3-2.2-3s-2.2.9-2.2 3v22.7c0 2.1.6 3 2.2 3s2.2-.9 2.2-3zM228 5.5h-4.8V.6h15.1v4.9h-5.1v32.4H228zm27.5 22.9c0 4.4-.2 5.3-1.2 7a7.1 7.1 0 0 1-6.2 3 7.4 7.4 0 0 1-6.2-3c-1-1.7-1.1-2.6-1.1-7V10.1c0-4.4.1-5.4 1.1-7a7.4 7.4 0 0 1 6.2-3 7.1 7.1 0 0 1 6.2 3c1 1.6 1.2 2.6 1.2 7zm-5.2-20.5c0-2.1-.6-3-2.2-3s-2.1.9-2.1 3v22.7c0 2.1.6 3 2.1 3s2.2-.9 2.2-3z"/></symbol><symbol id="external-link" viewBox="0 0 192 256"><path d="M70.6 50.4v20h83.8L40.6 184.2l14.1 14.2L168.6 84.5v83.9h20v-118h-118z"/></symbol></svg>