<svg xmlns="http://www.w3.org/2000/svg"><symbol id="matthew-peixoto" viewBox="0 0 256 42.7"><path d="M11.4 21.2L7.3.7H.5V42h4.8V12.8L10.1 42h2.5l4.8-29.2V42h5V.7h-6.9l-4.1 20.5zM29.7.7L24 42h5.6l1-9.3h5.2l1 9.3h5.6L37.1.7zm1.5 26.6l2-19.1 2 19.1zM57.6.7H40.8v5.4h5.4V42H52V6.1h11V42h5.7V6.1h5.6V.7H57.6zm28.2 17h-4.7V.7h-5.7V42h5.7V23h4.7v19h5.8V.7h-5.8v17zM99.5 23h5.7v-5.3h-5.7V6.1h8.2V.7H93.8V42h14.4v-5.4h-8.7V23zm27.5 2L124.2.7h-4.5l-2.8 23.4L114 .7h-5.3L114 42h5.1l2.7-22.2 3.1 22.2h5L135.1.7h-5.2L127 25zM149.5.7h-5.4V42h5.7V25.2h.8q5.3 0 7.5-2.7c1.7-1.9 2.1-4 2.1-9.5s-.4-7.4-2.2-9.6-3.5-2.7-8.5-2.7zm1.1 19.2h-.8V6.1h.8c3.4 0 4.1 1.1 4.1 6.9s-.7 6.9-4.1 6.9zm17.1 3.1h5.6v-5.3h-5.6V6.1h8.1V.7h-13.9V42h14.4v-5.4h-8.6V23zM177.4.7h5.7v41.26h-5.7zm25.7 0h-5.5l-3.4 12.7L190.8.7H185l5.7 19.7-6.2 21.6h6.2l3.4-13.7 3.3 13.7h6.3l-6.3-21.6L203.1.7zm9.4-.6a8.4 8.4 0 0 0-6.9 3.3c-1.1 1.8-1.2 2.9-1.2 7.8v20.2c0 4.9.1 6 1.2 7.8a8.7 8.7 0 0 0 13.8 0c1.1-1.8 1.3-2.8 1.3-7.8V11.2c0-4.9-.2-6-1.3-7.8a8.4 8.4 0 0 0-6.9-3.3zm2.4 33.8c0 2.3-.7 3.3-2.4 3.3s-2.4-1-2.4-3.3V8.8c0-2.3.7-3.3 2.4-3.3s2.4 1 2.4 3.3zm6.6-27.8h5.4V42h5.7V6.1h5.7V.7h-16.8v5.4zm32.7-2.7a8.4 8.4 0 0 0-6.9-3.3 8.1 8.1 0 0 0-6.8 3.3c-1.1 1.8-1.3 2.9-1.3 7.8v20.2c0 4.9.2 6 1.3 7.8a7.9 7.9 0 0 0 6.8 3.4 8.2 8.2 0 0 0 6.9-3.4c1.1-1.8 1.3-2.8 1.3-7.8V11.2c0-4.9-.2-6-1.3-7.8zm-4.4 30.5c0 2.3-.8 3.3-2.5 3.3s-2.4-1-2.4-3.3V8.8c0-2.3.8-3.3 2.4-3.3s2.5 1 2.5 3.3z"/></symbol></svg>