<svg id="Layer_1" data-name="Layer 1" xmlns="http://www.w3.org/2000/svg" width="256" height="212" viewBox="0 0 256 212"><title>type</title><path d="M78.4,126.1H28.9v85.2H1V.7H70.7q35.6,0,54.8,16.2t19.1,47.2c0,13.1-3.5,24.5-10.6,34.2s-16.9,17.1-29.6,21.9l49.5,89.4v1.7H124.1ZM28.9,103.4H71.6c13.8,0,24.7-3.6,32.9-10.7S116.7,76,116.7,64s-3.9-23.1-11.6-30-19-10.5-33.7-10.6H28.9Z" fill="#00aa8d"/><path d="M255,78.8a77.8,77.8,0,0,0-13.2-1c-17.5,0-29.4,7.5-35.7,22.4V211.3H179.4V54.8h26l.4,18.1c8.8-14,21.2-21,37.4-21,5.2,0,9.1.7,11.8,2Z" fill="#00aa8d"/></svg>