<svg xmlns="http://www.w3.org/2000/svg" width="1972" height="1473.4" viewBox="0 0 1972 1473.4"><defs><clipPath id="a"><path fill="none" d="M986 1243.6L1724.9 817l99.2-79.2V475.1L986 959v284.6z"/></clipPath></defs><path fill="#7ec028" d="M295.8 1018L0 847.2 986 278l295.8 170.7-986 569.3z"/><path fill="#4e4545" d="M542.3 1160.3v57L986 1473.4v-56.9l-443.7-256.2z"/><path fill="#2f2829" d="M1972 865.8V904l-986 569.2v-38.1l986-569.3z"/><path fill="#d9c9be" d="M543 1167.1l-246.6-142.2 197.2-120.8-197.2-113.8 591.2-341.4 197.2 113.8 197.6-107.2L1529 598.6l-986 568.5z"/><path fill="#b99e90" d="M295.8 1024.9v50l246.5 142.4v-50.1l-246.5-142.3z"/><path fill="#689f38" d="M887.4 455.5l-585.9 338-5.7-3.3 591.6-341.6v6.9z"/><path fill="#655c5a" d="M542.3 1178.1l986-568.5L1972 865.8l-986 569.3-443.7-257z"/><path fill="#a1887f" d="M542.3 1178.1v-10.9l986-568.6v11l-986 568.5z"/><path fill="#689f38" d="M1281.8 455.6l-197.2 113.8v-6.8l197.2-113.9v6.9zM493 911l-197.2 113.9v-6.9L493 904.2v6.8z"/><path fill="#7cb342" d="M1084.6 569.4L887.4 455.6v-6.9l197.2 113.9v6.8z"/><path fill="#ffbe03" d="M871.5 1368.8l985.8-569.2 10.3 5.9-985.8 569.2-10.3-5.9z"/><path fill="#7cb342" d="M0 847.2v57l295.8 170.7V1018L0 847.2z"/><path fill="#795548" d="M0 865.1V905l295.8 170.8v-39.2L0 865.1z"/><path fill="#655c5a" d="M295.8 1036.6v39.2l246.5 142.3V1179l-246.5-142.4z"/><path fill="#9e9e9e" d="M423.1 1014.8l-4.7-2.7V662.3l4.7 2.7v349.8z"/><path fill="#bcb6ad" d="M427.9 1012.1l-4.8 2.7V665.2l4.8-2.8v349.7z"/><path fill="#e0e0e0" d="M423.1 665l-4.7-2.7 4.7-2.7 4.8 2.7-4.8 2.7z"/><path fill="#4e4545" d="M645.6 816l-4.7 2.7v-57l4.7-2.7v57z"/><path fill="#655c5a" d="M640.9 818.7l-4.8-2.7v-57l4.8 2.7v57zm-49.3-28.4l-4.8-2.7V673.7l4.8 2.7v113.9z"/><path fill="#4e4545" d="M596.3 787.6l-4.7 2.7V676.6l4.7-2.8v113.8z"/><path fill="#9e9e9e" d="M591.6 676.4l-4.8-2.7 4.8-2.7 4.7 2.7-4.7 2.7z"/><path fill="#4e4545" d="M887.4 619.4l-4.8 2.8V508.4l4.8-2.7v113.7z"/><path fill="#655c5a" d="M882.6 622.1l-4.7-2.8V505.7l4.7 2.7v113.7z"/><path fill="#607d8b" d="M591.5 733.4l295.8-170.7 14.7 8.4-295.8 170.8-14.7-8.5z"/><path fill="#455a64" d="M606.2 741.9L902 571.1v6.1L606.2 748v-6.1z"/><path fill="#43535f" d="M606.2 748l-14.7-8.5.1-6.1 14.6 8.5v6.1z"/><path fill="#4e4545" d="M936.7 648l-4.8 2.8v-57.1l4.8-2.7v57z"/><path fill="#655c5a" d="M931.9 650.8l-4.7-2.8v-57l4.7 2.7v57.1z"/><path fill="#607d8b" d="M608.9 743.3l295.8-170.8 14.7 8.5-295.8 170.8-14.7-8.5z"/><path fill="#455a64" d="M623.5 751.8L919.3 581v6.1L623.5 757.9v-6.1z"/><path fill="#43535f" d="M623.6 757.9l-14.7-8.5v-6.1l14.7 8.5v6.1z"/><path fill="#607d8b" d="M626.3 753.4L922 582.6l14.7 8.4-295.8 170.8-14.6-8.4z"/><path fill="#455a64" d="M640.9 761.8L936.7 591v6.2L640.9 767.9v-6.1z"/><path fill="#43535f" d="M640.9 768l-14.6-8.5v-6.1l14.6 8.5v6.1z"/><path fill="#455a64" d="M596.9 699.6l295.8-170.7v16.8L596.9 716.5v-16.9z"/><path fill="#607d8b" d="M892.7 528.9L596.9 699.6l-5.3-3.1 295.8-170.7 5.3 3.1z"/><path fill="#43535f" d="M591.6 713.4v-16.8l5.3 3v16.9l-5.3-3.1z"/><path fill="#455a64" d="M596.9 679.5l295.8-170.7v16.8L596.9 696.4v-16.9z"/><path fill="#607d8b" d="M892.7 508.7L596.9 679.5l-5.3-3.1 295.8-170.7 5.3 3z"/><path fill="#43535f" d="M591.6 693.3v-16.9l5.3 3.1v16.9l-5.3-3.1z"/><path fill="#9e9e9e" d="M882.6 508.4l-4.7-2.7 4.7-2.8 4.8 2.8-4.8 2.7z"/><path fill="#d32e2f" d="M1158.5 386.2v148.1l46.7 26.9V440l-46.7-53.8z"/><path fill="#c62828" d="M1263.5 527.5l-58.3 33.7V440l58.3-33.6v121.1z"/><path fill="#e43935" d="M1263.5 406.4l-46.6-53.9-58.4 33.7 46.7 53.8 58.3-33.6z"/><path fill="#2f2829" d="M1219.5 446l35-20.2v53.8l-35 20.2V446z"/><path fill="#e43935" d="M1220.3 506l33.9-19.5v25.7l-33.9 19.5V506z"/><path fill="#fff" d="M1253.6 487.4v24.4l-32.9 18.9v-24.4l32.8-18.9m1.1-1.9l-35 20.2v26.9l35.1-20.1v-27z"/><path fill="#655c5a" d="M807 630.4l31.3 18-11.6 6.7-31.3-18.1 11.6-6.6z"/><path fill="#2f2829" d="M795.4 636.8l22.3 13.1v13.3l-33.9-19.8 11.6-6.6z"/><path fill="#4e4545" d="M838.3 648.4l-.1 58.1-11.5 6.7v-58.1l11.6-6.7z"/><path fill="#655c5a" d="M779.9 645.9l31.3 18-11.6 6.7-31.3-18.1 11.6-6.6z"/><path fill="#2f2829" d="M739.3 635.6l60.3 35v13.3L739.3 649v-13.4z"/><path fill="#2f2829" d="M799.6 670.6v57.7l-10.8-6.3v-57.6l10.8 6.2zm27.1-15.4v58l-10.9-6.2v-58l10.9 6.2z"/><path fill="#4e4545" d="M811.2 663.9v57.7l-11.6 6.7v-57.7l11.6-6.7z"/><path fill="#2e846b" d="M739.3 583.5l65.8-37.7 15.5 8.8-65.6 37.9-15.7-9z"/><path fill="#fcfcfc" d="M779.8 560l-15.7 9 15.9 9.3 15.7-9-15.9-9.3z"/><path fill="#bcb6ad" d="M764.1 528.4l47-27.1v49.9l-47 27.1v-49.9z"/><path fill="#eee" d="M748.5 519.4l15.6 9 47-27.1-15.7-9.1-46.9 27.2z"/><path fill="#e0e0e0" d="M764.1 578.2l-15.6-8.9v-49.9l15.6 9v49.8z"/><path fill="#795548" d="M748.5 533.1v-13.7"/><path fill="#212121" d="M775.3 545.5l-2.4 1.4v-2.7l2.4-1.4v2.7zm2.4-1.3l-2.4 1.3v-2.7l2.4-1.4v2.8zm2.4-1.4l-2.4 1.4v-2.8l2.4-1.4v2.8z"/><path fill="#2f2829" d="M782.5 541.4l-2.4 1.4V540l2.4-1.4v2.8z"/><path fill="#212121" d="M775.3 548.3l-2.4 1.4v-2.8l2.4-1.4v2.8z"/><path fill="#fff" d="M784.8 560.1l-2.3 1.4v-2.8l2.3-1.4v2.8zm8.6-4.9l-2.4 1.4v-2.8l2.4-1.4v2.8zm-4.2 2.5l-2.4 1.4v-2.8l2.4-1.4v2.8z"/><path fill="#212121" d="M780.1 545.5l-2.4 1.4v-2.7l2.4-1.4v2.7zm-2.4 1.4l-2.4 1.4v-2.8l2.4-1.4v2.8z"/><path fill="#2f2829" d="M782.5 544.2l-2.4 1.3v-2.7l2.4-1.4v2.8z"/><path fill="#4e4545" d="M775.3 551.1l-2.4 1.3v-2.7l2.4-1.4v2.8zm2.4-1.4l-2.4 1.4v-2.8l2.4-1.4v2.8z"/><path fill="#2f2829" d="M782.5 546.9l-2.4 1.4v-2.8l2.4-1.4v2.8z"/><path fill="#212121" d="M795.7 533.9l-2.4 1.4v-2.8l2.4-1.4v2.8zm2.4-1.4l-2.4 1.4v-2.8l2.4-1.4v2.8zm2.4-1.4l-2.4 1.4v-2.8l2.4-1.3v2.7z"/><path fill="#2f2829" d="M802.9 529.7l-2.4 1.4v-2.7l2.4-1.4v2.7z"/><path fill="#212121" d="M795.7 536.7l-2.4 1.3v-2.7l2.4-1.4v2.8zm4.8-2.8l-2.4 1.4v-2.8l2.4-1.4v2.8z"/><path fill="#2f2829" d="M802.9 532.5l-2.4 1.4v-2.8l2.4-1.4v2.8z"/><path fill="#4e4545" d="M795.7 539.4l-2.4 1.4V538l2.4-1.4v2.8zm2.4-1.4l-2.4 1.4v-2.8l2.4-1.3v2.7z"/><path fill="#212121" d="M798.1 535.3l-2.4 1.3v-2.7l2.4-1.4v2.8z"/><path fill="#2f2829" d="M802.9 535.3l-2.4 1.3v-2.7l2.4-1.4v2.8z"/><path fill="#fff" d="M791.3 553.7l2.1-1.3v-3.2l-10.9 6.3v3.3l2.1-1.3"/><path fill="#1e5e4d" d="M811.1 627.8l-47 27.1.1-67.8 47-27.1-.1 67.8z"/><path fill="#f8f8f7" d="M779.8 645.9l15.6-9.1v-67.7l-15.6 9v67.8z"/><path fill="#27725d" d="M739.3 583.5v61.4l9.5 5.6-.3-61.7-9.2-5.3z"/><path fill="#e0e0e0" d="M755 653.5l-.1 6.6-9.3-5.4v-6.6l9.4 5.4z"/><path fill="#27725d" d="M755 592.5l-.1 61.5-9.3-5.4v-61.5l9.4 5.4z"/><path fill="#bcb6ad" d="M764.3 648v6.7l-9.4 5.4.1-6.6 9.3-5.5zm56.3-32.2l-.1 6.6-9.3 5.4v-6.6l9.4-5.4z"/><path fill="#1e5e4d" d="M764.3 587.1v61.5l-9.4 5.4.1-61.5 9.3-5.4z"/><path fill="#1e5e4d" d="M764.3 587.1v61.5l-9.4 5.4.1-61.5 9.3-5.4zm56.3-32.5l-.1 61.5-9.3 5.4V560l9.4-5.4z"/><path fill="#655c5a" d="M811.2 735v3.9l-22.4-13.1v-3.9l22.4 13.1z"/><path fill="#4e4545" d="M811.2 739v3.9l-22.4-13.2v-3.9l22.4 13.2zm11.6-10.7v3.9l-11.6 6.7V735l11.6-6.7z"/><path fill="#2f2829" d="M822.8 732.2v3.9l-11.6 6.8v-4l11.6-6.7z"/><path fill="#9e9e9e" d="M811.2 735l-11.6-6.7 11.6-6.7 11.6 6.7-11.6 6.7z"/><path fill="#655c5a" d="M838.2 719.7v3.9l-22.4-13.2v-3.9l22.4 13.2z"/><path fill="#4e4545" d="M838.2 723.6v3.9l-22.4-13.1v-3.9l22.4 13.1z"/><path fill="#4e4545" d="M849.8 713v3.9l-11.6 6.7v-3.9l11.6-6.7z"/><path fill="#2f2829" d="M849.8 716.9v3.9l-11.6 6.7v-3.9l11.6-6.7z"/><path fill="#9e9e9e" d="M838.2 719.7l-11.6-6.7 11.6-6.7 11.6 6.7-11.6 6.7z"/><path fill="#fcfcfc" d="M424.5 666.8l60.5 34.9v69.8l-60.5-34.9v-69.8z"/><path fill="#e43935" d="M424.5 666.8l60.5 34.9v20.9l-60.5-34.9v-20.9z"/><path fill="#f14336" d="M485 701.7l-60.5-34.9 2.6-1.4 60.4 34.9-2.5 1.4z"/><path fill="#d32e2f" d="M487.5 721.2l-2.5 1.4v-20.9l2.5-1.4v20.9z"/><path fill="#f8f8f7" d="M487.5 770.1l-2.5 1.4v-48.9l2.5-1.4v48.9z"/><path fill="#212121" d="M434.7 703.8a1.5 1.5 0 0 1-.3 1 1.2 1.2 0 0 1-.8.4 4.2 4.2 0 0 1 .9 1.4 4.1 4.1 0 0 1 .3 1.6c0 .8-.2 1.3-.7 1.5a2.3 2.3 0 0 1-2-.4 6.1 6.1 0 0 1-2-1.9 4.4 4.4 0 0 1-.7-2.4 2.1 2.1 0 0 1 .3-1.2 1.2 1.2 0 0 1 .9-.3l-.8-1.3a3.9 3.9 0 0 1-.3-1.4 1.6 1.6 0 0 1 .7-1.5 2.1 2.1 0 0 1 1.9.4 5.2 5.2 0 0 1 1.9 1.7 5.5 5.5 0 0 1 .7 2.4zm-1.5 3.3a2.7 2.7 0 0 0-.3-1.2 3 3 0 0 0-.8-.8.8.8 0 0 0-.8-.1c-.2.1-.3.4-.3.8a2 2 0 0 0 .3 1.1 2.4 2.4 0 0 0 .8.9c.4.2.6.2.8.1s.3-.4.3-.8zm-.1-4.2a1.9 1.9 0 0 0-.3-1 1.6 1.6 0 0 0-.7-.7.6.6 0 0 0-.7-.1c-.2.1-.3.3-.3.7a2.3 2.3 0 0 0 .3 1.1 2.3 2.3 0 0 0 .7.7.6.6 0 0 0 .7.1 1 1 0 0 0 .3-.8zm8.1 4.6a1.8 1.8 0 0 1-.3 1.1 1 1 0 0 1-.8.3 6 6 0 0 1 .9 1.5 2.8 2.8 0 0 1 .4 1.5c0 .9-.3 1.4-.7 1.6a2.7 2.7 0 0 1-2-.4 6.5 6.5 0 0 1-2.1-1.9 5.5 5.5 0 0 1-.7-2.4 1.6 1.6 0 0 1 .4-1.2.9.9 0 0 1 .9-.3 3.9 3.9 0 0 1-.8-1.4 3.1 3.1 0 0 1-.3-1.3c0-.8.2-1.3.7-1.5a2.1 2.1 0 0 1 1.8.3 5.5 5.5 0 0 1 1.9 1.8 4.1 4.1 0 0 1 .7 2.3zm-1.4 3.4a2.7 2.7 0 0 0-.3-1.2 2.4 2.4 0 0 0-.9-.8c-.3-.2-.6-.3-.8-.1s-.3.4-.3.8a2 2 0 0 0 .3 1.1 2 2 0 0 0 .9.9.8.8 0 0 0 .8.1c.2-.1.3-.4.3-.8zm-.2-4.2a3 3 0 0 0-.2-1 2 2 0 0 0-.8-.8c-.3-.1-.5-.2-.7 0a1 1 0 0 0-.2.7 3 3 0 0 0 .2 1 1.6 1.6 0 0 0 .8.8.6.6 0 0 0 .7.1 1.5 1.5 0 0 0 .2-.8z"/><path fill="#fff" d="M449.6 695.5a4.2 4.2 0 0 0 .6 2.1v1.3a1.4 1.4 0 0 0 .7 1.1l.6.4c.4.2.7 0 .7-.4v-.7l5.2 3v.7a1.3 1.3 0 0 0 .6 1.1l.7.4c.3.2.6 0 .6-.4v-1.3c.4-.2.6-.6.6-1.3V694c0-2.6-2.3-4.3-5.1-6s-5.2-2.6-5.2 0zm2.2 2.1a2.2 2.2 0 0 1-.9-1.7c0-.6.4-.9.9-.6a2.1 2.1 0 0 1 1 1.7c0 .6-.4.9-1 .6zm5.9 3.4a2.2 2.2 0 0 1-1-1.7c0-.7.4-.9 1-.6a2.3 2.3 0 0 1 1 1.7.6.6 0 0 1-1 .6zm1-4l-7.8-4.5v-3.7l7.8 4.5z"/><path fill="#307621" d="M1089.9 426v148.1l46.6 27V479.9l-46.6-53.9z"/><path fill="#2e7d32" d="M1194.8 567.4l-58.3 33.7V479.9l58.3-33.7v121.2z"/><path fill="#3c8d24" d="M1194.8 446.2l-46.6-53.8-58.3 33.6 46.6 53.9 58.3-33.7z"/><path fill="#2f2829" d="M1148.2 486.6l34.9-20.2v53.9l-34.9 20.2v-53.9z"/><path fill="#48a12f" d="M1148.7 547.6l33.9-19.6v25.7l-33.9 19.6v-25.7z"/><path fill="#fff" d="M1182 529v24.4l-32.9 18.9v-24.4L1182 529m1.1-1.9l-35 20.2v26.9l35.1-20.2v-26.9z"/><path fill="#fcfcfc" d="M1155.6 551v.6a3.4 3.4 0 0 1 1.4-1.5c.6-.4 1-.4 1.3.1a3.4 3.4 0 0 1 1.4-1.7c.5-.3.9-.3 1.1-.1s.4.6.4 1.3v3.5l-1.3.7v-3.5c0-.3 0-.5-.1-.5s-.3-.1-.6.1a1.6 1.6 0 0 0-.8 1v3.8l-1.2.7v-3.4c0-.4-.1-.6-.2-.6s-.3-.1-.5.1a1.4 1.4 0 0 0-.8.9v3.9l-1.3.7v-5.4zm8.8.5c-.7.4-1.3.5-1.7.2s-.7-.7-.7-1.6a4.1 4.1 0 0 1 .3-1.6 3.6 3.6 0 0 1 .8-1.5 3.5 3.5 0 0 1 1.1-1 1.6 1.6 0 0 1 1.6-.2 2.3 2.3 0 0 1 .5 1.7v.6l-3 1.7a.7.7 0 0 0 .4.7c.2.1.4 0 .7-.1a3 3 0 0 0 1.2-1.3l.6.4a3.2 3.2 0 0 1-.8 1.2 2.8 2.8 0 0 1-1 .8zm-.2-4.4a1.7 1.7 0 0 0-.6.6 2.9 2.9 0 0 0-.3 1l1.8-1a.6.6 0 0 0-.3-.6c-.1-.2-.3-.2-.6 0zm4.3-4.9v1.3l.9-.5v1.1l-.9.5v2.7c0 .2.1.3.1.4h.4l.4-.3v1.1a1.6 1.6 0 0 1-.8.6c-.8.5-1.3.3-1.3-.8v-2.9l-.7.4v-1.1l.7-.4V543zm4.2.3l-.4.2a2.1 2.1 0 0 0-1 1.1v3.6l-1.2.7v-5.5l1.2-.7v.7a2.7 2.7 0 0 1 1.1-1.4l.3-.2zm.3 1.1a4.5 4.5 0 0 1 .3-1.6 3.7 3.7 0 0 1 .7-1.4 6 6 0 0 1 1.2-1.1 1.9 1.9 0 0 1 1.6-.2c.4.2.6.7.7 1.5v.3a4.8 4.8 0 0 1-.6 2.4 4 4 0 0 1-1.7 1.7c-.7.4-1.2.5-1.6.2a1.9 1.9 0 0 1-.6-1.7zm1.2-.6c0 .5.1.9.3 1s.4.2.7 0a1.1 1.1 0 0 0 .7-.8 2.9 2.9 0 0 0 .3-1.4 1.6 1.6 0 0 0-.3-1.1c-.1-.2-.4-.2-.7 0a2.2 2.2 0 0 0-.7.9 2.6 2.6 0 0 0-.3 1.4zm-20.4 18.5l-.8.4v2.6l-.6.4v-2.6l-.8.4v-.5l2.2-1.2zm2.5 1.1l-.6.3v-1.3l-1 .6v1.4l-.6.3v-3.1l.6-.3v1.2l1-.6v-1.3l.6-.3zm2.1-2.6l-1.1.7v.8l1.3-.7v.5l-1.8 1v-3.1l1.8-1v.5l-1.3.7v.8l1.1-.7zm1.5.6v-3.2l.9-.5a.9.9 0 0 1 .8-.2c.1 0 .2.2.2.5a.6.6 0 0 1-.1.4l-.3.5c.2-.1.3-.1.4 0s.1.2.1.4a1.1 1.1 0 0 1-.3.8 1.6 1.6 0 0 1-.7.7zm.5-2.2l.4-.2c.3-.2.5-.4.5-.6a.4.4 0 0 0-.1-.3h-.4l-.4.2zm0 .5v.8l.5-.2.3-.3a.8.8 0 0 0 .1-.4c0-.3-.1-.4-.4-.2zm3.5-2l-1.1.6v.8l1.3-.7v.5l-1.8 1.1V556l1.8-1v.5l-1.3.7v.8l1.1-.6zm1.9-.6c0-.1 0-.2-.1-.2h-.8c-.4-.1-.5-.2-.5-.5a1.3 1.3 0 0 1 .1-.6l.4-.5.5-.4.5-.2.4.2c0 .1.1.2.1.4l-.6.3c0-.1 0-.2-.1-.2a.2.2 0 0 0-.3 0q-.3.1-.3.3a.4.4 0 0 0-.1.3c0 .1 0 .2.1.2h.4a.8.8 0 0 1 .7 0 .6.6 0 0 1 .2.5 1.6 1.6 0 0 1-.3.8l-.7.6-.6.2h-.4a4.3 4.3 0 0 1-.1-.5l.6-.3c0 .3.1.4.5.2l.3-.3a.4.4 0 0 0 .1-.3zm3-3.5l-.8.5v2.6l-.6.3v-2.6l-.8.5v-.5l2.2-1.3zm3.3.7l-.5.3-1.1-1.4v2l-.6.3v-3.1l.6-.3 1.1 1.4v-2l.5-.3zm2.1-2.6l-1 .6v.9l1.2-.8v.6l-1.8 1v-3.1l1.8-1.1v.6l-1.2.7v.7l1-.6zm2.7-1.1l.3-2.4.6-.3-.6 3.5-.6.3-.4-1.8-.5 2.3-.5.3-.6-2.8.5-.3.4 2 .4-2.4.5-.3zm2.6-1.4a.3.3 0 0 0-.1-.2h-.9a.5.5 0 0 1-.5-.5.8.8 0 0 1 .2-.5c0-.2.2-.4.3-.6l.5-.4h.6c.1-.1.2 0 .3.1s.1.2.1.4l-.5.3a.3.3 0 0 0-.1-.2h-.4l-.3.3c-.1.1-.1.2-.1.4s0 .1.1.1h.4a.8.8 0 0 1 .7 0c.2.1.2.3.2.5a2.4 2.4 0 0 1-.2.8c-.2.2-.4.5-.7.6l-.6.2h-.4a.7.7 0 0 1-.1-.5l.5-.3c0 .4.2.4.6.2l.3-.3c0-.2.1-.3.1-.4zm54-39.1c0-.3 0-.5-.2-.5a1.6 1.6 0 0 0-1 0l-1 .2a1.1 1.1 0 0 1-1.1-1.2 3.5 3.5 0 0 1 .3-1.3 4.2 4.2 0 0 1 .8-1.2l1.2-1 1.2-.4a1 1 0 0 1 .9.4 1.3 1.3 0 0 1 .3 1l-1.3.7a.6.6 0 0 0-.3-.6.9.9 0 0 0-.8.2l-.8.6a3.1 3.1 0 0 0-.2.8c0 .2.1.4.3.4h.9a2.4 2.4 0 0 1 1.7 0 1.2 1.2 0 0 1 .5 1.1 2.8 2.8 0 0 1-.7 1.9 4.6 4.6 0 0 1-1.6 1.5 4.8 4.8 0 0 1-1.4.5 1 1 0 0 1-.9-.4 1.3 1.3 0 0 1-.3-1l1.3-.8c0 .8.4 1 1.3.5l.7-.6a1.2 1.2 0 0 0 .2-.8zm5-1.5a2.9 2.9 0 0 1-1.3 1.4c-.5.3-.9.4-1.2.2a1.8 1.8 0 0 1-.4-1.3v-3.6l1.3-.7v3.5c0 .6.2.8.7.5a2.2 2.2 0 0 0 .9-1v-3.9l1.2-.7v5.4l-1.2.7zm3.4-6.9v.7a3.6 3.6 0 0 1 1.4-1.6c.5-.3.8-.3 1.1-.1a1.8 1.8 0 0 1 .4 1.3v3.5l-1.3.8V502a.8.8 0 0 0-.2-.6c-.1-.1-.3 0-.6.1a2.7 2.7 0 0 0-.8 1v3.9l-1.2.7v-5.5zm-13.5 19l-.4.2v1l-.3.2v-1l-.4.2v-.3l.5-.3v-.7l-.4.3v-.4l.5-.3v-.9l.4-.2-.2.9.4-.2v-.9l.4-.2-.2.9.4-.2v.4l-.4.2v.7l.4-.2v.3l-.5.3v1h-.3zm-.3-.2l.4-.2v-.7l-.3.2zm2.8-.4l-.5.3v-2.4l-.7.6v-.5l1.1-1.1h.1zm2.5-1.4l-.6.3v-3.1l.6-.3zm2.7-1.6l-.6.3-1.1-1.4v2.1l-.5.3v-3.1l.5-.3 1.1 1.4v-2.1l.6-.3zm3.6-2.1l-.5.4-1.1-1.5v2.1l-.6.3v-3.1l.6-.3 1.1 1.4v-2.1l.5-.3zm2.1-2.5l-1 .6v.8l1.2-.7v.5l-1.8 1.1v-3.2l1.8-1v.5l-1.2.7v.8l1-.6zm2.6-1.1l.4-2.4.6-.3-.7 3.4-.5.4-.4-1.9-.5 2.4-.5.3-.6-2.8.5-.3.4 2 .4-2.5.5-.2zm2.6-1.4c0-.1 0-.2-.1-.2h-.4c-.2 0-.3.1-.4 0s-.5-.1-.5-.5a4.3 4.3 0 0 0 .1-.5l.4-.5a1 1 0 0 1 .5-.4l.5-.2a.5.5 0 0 1 .4.2c.1.1.1.2.1.4l-.6.3a.4.4 0 0 0-.1-.3h-.3l-.3.3a.4.4 0 0 0-.1.3c0 .1 0 .2.1.2h1.1a.6.6 0 0 1 .2.5 1.1 1.1 0 0 1-.3.7 1.6 1.6 0 0 1-.7.7l-.5.2-.4-.2a.5.5 0 0 1-.2-.4l.6-.3c0 .3.2.4.5.2s.3-.2.3-.3a.4.4 0 0 0 .1-.2z"/><path fill="#fff" d="M1106.5 467.1v1.6c.9-.7 2-.6 3.4.2a6.9 6.9 0 0 1 3.2 3.9c.8-.9 2-.9 3.5 0a6.8 6.8 0 0 1 2.9 2.9 10.3 10.3 0 0 1 1 4.5v8.7l-3.2-1.8v-8.8a3.8 3.8 0 0 0-.4-1.9 3 3 0 0 0-1.4-1.3c-1-.6-1.6-.4-2 .4v9.4l-3.1-1.8v-8.7a5.4 5.4 0 0 0-.4-2 3.5 3.5 0 0 0-1.4-1.3c-.9-.6-1.6-.5-2 .1v9.7l-3.1-1.8v-13.7zm6.2 39.5a11.8 11.8 0 0 1-5.9-10.1v-.4a6.7 6.7 0 0 1 .7-3.3 2.3 2.3 0 0 1 1.9-1.3 4.8 4.8 0 0 1 2.9.7 11.5 11.5 0 0 1 3.9 4 12.8 12.8 0 0 1 1.3 5.9v1.5l-7.5-4.4a7.2 7.2 0 0 0 .9 2.7 5.2 5.2 0 0 0 2 1.9c1.2.7 2.2.8 2.8.1l1.6 3a2.5 2.5 0 0 1-1.9.7 6.9 6.9 0 0 1-2.7-1zm-.4-11.4a1.4 1.4 0 0 0-1.5-.2 2.5 2.5 0 0 0-.8 1.7l4.4 2.6v-.3a4.8 4.8 0 0 0-.5-2.2 4.1 4.1 0 0 0-1.6-1.6zm1 16.5v3.4l2 1.2v2.6l-2-1.1v6.8a3.7 3.7 0 0 0 .2 1.2 3 3 0 0 0 1 .9l.9.5v2.7a8.9 8.9 0 0 1-1.9-.7 6.7 6.7 0 0 1-3.4-5.9v-7.4l-1.7-1v-2.6l1.7 1v-3.4zm2.6 30.3l-1.2-.7c-1.2-.7-2-.7-2.3 0v9l-3.2-1.9v-13.7l3 1.8v1.7a1.7 1.7 0 0 1 2.6-.4l1 .7zm-9.5 19.9a6.9 6.9 0 0 1 .7-3.2 2.6 2.6 0 0 1 2-1.4 4.6 4.6 0 0 1 2.9.9 11.5 11.5 0 0 1 4 3.9 13.5 13.5 0 0 1 1.7 5.6v1c0 2.1-.5 3.4-1.6 4.1s-2.3.6-4-.4a10.6 10.6 0 0 1-4.1-4.3 12.5 12.5 0 0 1-1.6-6zm3.2 2.1a8.1 8.1 0 0 0 .6 3.3 4.4 4.4 0 0 0 1.9 2.1 1.3 1.3 0 0 0 1.8 0 4.4 4.4 0 0 0 .6-2.8 9 9 0 0 0-.6-3.4 5.5 5.5 0 0 0-1.9-2.1 1.5 1.5 0 0 0-1.8 0 4.8 4.8 0 0 0-.6 2.9z"/><path fill="#4e4545" d="M1183.1 466.4l-1.8 1.1v53.8l1.8-1v-53.9z"/><path fill="#655c5a" d="M1148.2 540.5v-2.4l33.1-19.2 1.8 1.4-34.9 20.2z"/><path fill="#4e4545" d="M1254.5 425.8l-1.9 1v53.9l1.9-1.1v-53.8z"/><path fill="#655c5a" d="M1219.5 499.8v-2.4l33.1-19.1 1.9 1.3-35 20.2z"/><path fill="#212121" d="M745.6 648.8v-3.5l9.3 5.2v3.5l-9.3-5.2zm9.3 5.2v-3.4l9.3-5.4.1 3.4-9.4 5.4z"/><path fill="#212121" d="M758.1 652.4c-1 0-1.1-1.2-1.1-1.6a5.7 5.7 0 0 1 2.7-4.6 2.6 2.6 0 0 1 1-.4c1 0 1.1 1.2 1.1 1.6a5.7 5.7 0 0 1-2.7 4.6 2.1 2.1 0 0 1-1 .4z"/><path fill="#212121" d="M760.7 646.4c.5 0 .6.6.6 1a5.5 5.5 0 0 1-2.4 4.1l-.8.3c-.5 0-.5-.6-.5-1a5.6 5.6 0 0 1 2.4-4.2l.7-.2m0-1.1a2.4 2.4 0 0 0-1.3.4 6.4 6.4 0 0 0-2.9 5.1c0 1.3.6 2.1 1.6 2.1a2.4 2.4 0 0 0 1.3-.4 6.5 6.5 0 0 0 3-5.1c0-1.3-.7-2.1-1.7-2.1z"/><path fill="#212121" d="M762.7 646.2l-1.4-.8-4 7.3 1.3.7 4.1-7.2z"/><path fill="#fff" d="M759.2 653c-1 0-1.1-1.2-1.1-1.5a6.1 6.1 0 0 1 2.7-4.7l1-.3c1 0 1.1 1.2 1.1 1.6a5.9 5.9 0 0 1-2.7 4.6 1.9 1.9 0 0 1-1 .3z"/><path fill="#212121" d="M761.8 647.1c.5 0 .6.6.6 1a5.7 5.7 0 0 1-2.4 4.1l-.8.3c-.5 0-.5-.7-.5-1a5.6 5.6 0 0 1 2.4-4.2l.7-.2m0-1.1a2.4 2.4 0 0 0-1.3.4 6.4 6.4 0 0 0-2.9 5.1c0 1.3.6 2.1 1.6 2.1a3.8 3.8 0 0 0 1.3-.4 6.9 6.9 0 0 0 3-5.1c0-1.4-.7-2.1-1.7-2.1z"/><path fill="#4e4545" d="M782.5 546.9l-4.8 2.8v-2.8l2.4-1.4 2.4 1.4zm20.4-11.6l-4.8 2.7v-2.7l2.4-1.4 2.4 1.4z"/><path fill="#5d4037" d="M1023 428.9l27-15.7-8.3-82.5 8.6-43.2 64.3-42.5 7.3-74.5-13.5 8.8-7.4 61.5-47.6 29.4 19.1-90.9h-15.2l-31.5 151.4-2.8 98.2zm-36.5-224.3l-8 55.6 29.5 45.3 6.6-21.1-23.3-29.4 8.8-58.2-13.6 7.8z"/><path fill="#6d4c41" d="M1023 428.9l-22.6-13.1 8.5-85.1-45.8-68.3 11.7-80.6 11.7 22.8-8 55.6 29.5 45.3 39.6-129.7 9.7 3.5-31.5 151.4-2.8 98.2zm85.4-249.6l-13.7-3.5-7.4 62.8-30.7 16.4-3.2 15.2 47.6-29.4 7.4-61.5z"/><path fill="#aed581" d="M932.2 62.5L1040.4 0l-36.5 89.3-71.7-26.8z"/><path fill="#689f38" d="M1040.4 0l94.6 31.8-58.2 53.4-72.9 4.1L1040.4 0z"/><path fill="#558b2f" d="M1167.1 119.3L1135 31.8l-58.2 53.4v72.6l73.8 17.9 16.5-56.4z"/><path fill="#92cd43" d="M932.2 62.5l-5 113.3 47.6-5.3 29.1-81.2-71.7-26.8z"/><path fill="#7cb342" d="M1076.8 85.2l-72.9 4.1-29.1 81.2 102-12.7V85.2z"/><path fill="#558b2f" d="M1038.8 240.2l38-82.4-102 12.7-47.6 5.3 111.6 64.4z"/><path fill="#33691e" d="M1150.6 175.7l-111.8 64.5 38-82.4 73.8 17.9z"/><path fill="#5d4037" d="M234.1 883.9l27-15.7-8.4-82.5 8.7-43.2 64.3-42.5 7.3-74.5-13.5 8.8-7.5 61.5-47.5 29.4 19-90.9h-15.1l-31.6 151.4-2.7 98.2zm-36.5-224.3l-8 55.6 29.5 45.3 6.6-21.1-23.3-29.4 8.8-58.2-13.6 7.8z"/><path fill="#6d4c41" d="M234.1 883.9l-22.7-13.1 8.6-85.1-45.8-68.3 11.6-80.6 11.8 22.8-8 55.6 29.5 45.3 39.6-129.7 9.7 3.5-31.6 151.4-2.7 98.2zm85.4-249.6l-13.8-3.5-7.3 62.8-30.8 16.4-3.1 15.2 47.5-29.4 7.5-61.5z"/><path fill="#aed581" d="M143.2 517.5L251.5 455 215 544.3l-71.8-26.8z"/><path fill="#689f38" d="M251.5 455l94.6 31.8-58.3 53.4-72.8 4.1 36.5-89.3z"/><path fill="#558b2f" d="M378.2 574.3l-32.1-87.5-58.3 53.4v72.6l73.8 17.9 16.6-56.4z"/><path fill="#92cd43" d="M143.2 517.5l-4.9 113.3 47.5-5.3 29.2-81.2-71.8-26.8z"/><path fill="#7cb342" d="M287.8 540.2l-72.8 4.1-29.2 81.2 102-12.7v-72.6z"/><path fill="#558b2f" d="M249.9 695.2l37.9-82.4-102 12.7-47.5 5.3 111.6 64.4z"/><path fill="#33691e" d="M361.6 630.7l-111.7 64.5 37.9-82.4 73.8 17.9z"/><path fill="#655c5a" d="M933.2 397.5l-9.8-5.8v2.3l7.1 5.8 2.7-2.3z"/><path fill="#655c5a" d="M929.7 397.9l-8.5-5.3 1.9 4.3 3 1.7 3.6-.7z"/><path fill="#9e9e9e" d="M949.1 342.5l-8.8-5.1v2l6.4 5.2 2.4-2.1z"/><path fill="#9e9e9e" d="M946 342.9l-7.6-4.7 1.7 3.8 2.7 1.5 3.2-.6z"/><path fill="#655c5a" d="M934.2 394.8l-3.9-2.3v.9l2.8 2.3 1.1-.9z"/><path fill="#655c5a" d="M932.8 394.9l-3.4-2.1.7 1.7 1.2.7 1.5-.3zm-9.2-28l5.6 2.8v3.9l-5.6-2.9v-3.8z"/><path fill="#9e9e9e" d="M932.7 367.7l-5.4-2.5-3.7 1.7 5.6 2.8z"/><path fill="#4e4545" d="M938.9 361.3l-2.6 8.5-7.1 3.8v-3.9l3.5-2v-2.5l-1.6-3.1m12.2-18.8l.5 7.3 3.3 8.5.5 7.5 1.5 3.5 7.1-4.8v-13.6l-7.9-7.4.5-1.7-2.2 1.8-.6-1.5-2.7.4z"/><path fill="#2f2829" d="M941 342l2.3 1.3.5 7.3 3.3 8.5.5 7.5 1.5 3.5-4.1-2.4-5.5-24.8 1.5-.9z"/><path fill="#655c5a" d="M935.5 369.7v-7.2l3.5-2.1 3.6 10.7-1.8 1.1-5.3-2.5zm-3.8 1.7l5.6 2.8v3.9l-5.6-2.8v-3.9zm-4.4-6.2v-5.6l-2.1-5.2v-5.1l7.5 4.2v14.2l-5.4-2.5z"/><path fill="#9e9e9e" d="M940.8 372.2l-5.3-2.5-3.8 1.7 5.6 2.8z"/><path fill="#4e4545" d="M937.7 353.7l-3.2-1.6 6.6-3.2 6 10.2v6.7l-2.7 8.5-7.1 3.8v-3.9l3.5-2v-2.5l-1.6-3.1v-3.1l-1.5-2.3"/><path fill="#655c5a" d="M919.9 348l3.2 1.7v6.1l-3.2-1.8v-6z"/><path fill="#4e4545" d="M920.9 357.1v2.5l4.3-2.5v-8.7l-2.1 1.3v6.1l-2.2 1.3z"/><path fill="#9e9e9e" d="M919.9 353.9l-2.3 1.2 3.3 1.9 2.2-1.2-3.2-1.9zm2.3-7.2l-2.3 1.3 3.2 1.7 2.1-1.3-3-1.7z"/><path fill="#655c5a" d="M920.9 359.6l-3.3-1.9v-2.6l3.3 1.9v2.6z"/><path fill="#4e4545" d="M933.5 361.9v2.6l4.3-2.5v-8.7l-2.1 1.3v6.1l-2.2 1.2z"/><path fill="#655c5a" d="M932.5 352.8l3.2 1.8v6.1l-3.2-1.9v-6z"/><path fill="#9e9e9e" d="M932.5 358.8l-2.3 1.2 3.4 1.9 2.1-1.3-3.2-1.8z"/><path fill="#655c5a" d="M932.8 353.6l-8.4-4.7.8-.5 7.6 4.4v.8z"/><path fill="#9e9e9e" d="M934.9 351.6l-2.4 1.2 3.2 1.8 2.1-1.3-2.9-1.7z"/><path fill="#655c5a" d="M933.6 364.5l-3.4-1.9V360l3.4 1.9v2.6z"/><path fill="#fff" d="M926.5 350.1l2.6 6 3.4-2.7-6-3.3z"/><path fill="#655c5a" d="M920.7 345.8l13.8 8v-12.7l-13.8-8v12.7z"/><path fill="#4e4545" d="M934.5 353.8l6.6-3.8v-12.7l-6.6 3.8v12.7z"/><path fill="#9e9e9e" d="M920.7 333.1l13.8 8 6.6-3.8-13.8-8-6.6 3.8zm2.4 9.8l2.3-1.1 4.7 2.7-2.1 1.3-4.9-2.9z"/><path fill="#4e4545" d="M930.1 349a33.8 33.8 0 0 0 0-4.5l-2.1 1.3v4.6z"/><path fill="#655c5a" d="M923.1 342.9l4.9 2.9v4.6l-4.9-2.7v-4.8z"/><path fill="#4e4545" d="M925.2 317.5l1.6-.5s2.3 3 2.1 5a69.8 69.8 0 0 1-1.5 11.3l-1 .6-1.2-16.4"/><path fill="#655c5a" d="M925.2 317.5a5 5 0 0 0-2.1 1.9c-.7 1.3-.4 6.4 1.5 13.4l1.8 1.1s2-10 .9-12.8c0 0-1-3.2-2.1-3.6z"/><path fill="#4e4545" d="M934.6 322.4l1.6-.4s2.3 2.9 2.1 5a69.8 69.8 0 0 1-1.5 11.3l-1 .5-1.2-16.4"/><path fill="#655c5a" d="M934.6 322.4a5.6 5.6 0 0 0-2.1 2c-.7 1.2-.4 6.3 1.5 13.3l1.8 1.1s2-10 .9-12.8c0 0-1-3.2-2.1-3.6z"/><path fill="#212121" d="M924.9 344l.6 1.5 1-.6-1.6-.9zm-1.3-6.2l-.7-.4v-.7l.7.3v.8zm.6.3l-.6-.3v-.8l.6.4v.7z"/><path fill="#212121" d="M924.8 338.5l-.6-.4v-.7l.6.4v.7zm.7.4l-.7-.4v-.7l.7.3v.8zm-1.9-.4l-.7-.4v-.7l.7.4v.7z"/><path fill="#212121" d="M924.8 339.2l-.6-.3v-.8l.6.4v.7z"/><path fill="#fff" d="M924.8 340l-.6-.4v-.7l.6.3v.8zm-.6-1.1l-.6-.4v-.7l.6.3v.8z"/><path fill="#212121" d="M925.5 339.6l-.7-.4v-.7l.7.4v.7zm-1.9-.4l-.7-.3v-.8l.7.4v.7zm.6.4l-.6-.4v-.7l.6.4v.7z"/><path fill="#212121" d="M925.5 340.3l-.7-.3v-.8l.7.4v.7zm3.9.6l-.7-.4v-.7l.7.3v.8zm.6.3l-.6-.3v-.8l.6.4v.7zm.6.4l-.6-.4v-.7l.6.4v.7z"/><path fill="#212121" d="M931.3 342l-.7-.4v-.7l.7.3v.8zm-1.9-.4l-.7-.4v-.7l.7.4v.7z"/><path fill="#212121" d="M930.6 342.3l-.6-.3v-.8l.6.4v.7z"/><path fill="#fff" d="M930.6 343.1l-.6-.4v-.7l.6.3v.8zm-.6-1.1l-.6-.4v-.7l.6.3v.8z"/><path fill="#212121" d="M931.3 342.7l-.7-.4v-.7l.7.4v.7zm-1.9-.4l-.7-.3v-.8l.7.4v.7zm.6.4l-.6-.4v-.7l.6.4v.7z"/><path fill="#212121" d="M931.3 343.4l-.7-.3v-.8l.7.4v.7z"/><path fill="#4e4545" d="M948.2 380.6l7.1 3.6v5l-7.1-3.6v-5z"/><path fill="#655c5a" d="M959.8 381.7l-6.9-3.2-4.7 2.1 7.1 3.6z"/><path fill="#2f2829" d="M967.7 373.5l-3.4 10.8-9 4.8v-4.9l4.5-2.6v-3.1l-2.1-3.9m15.6-24l.6 9.3 4.2 10.8.7 9.6 1.9 4.4 9.1-6.1v-17.4l-10.1-9.3.6-2.2-2.8 2.3-.8-1.9-3.4.5z"/><path fill="#212121" d="M970.3 348.9l3 1.7.6 9.3 4.2 10.8.7 9.6 1.9 4.4-5.2-3-7.1-31.6 1.9-1.2z"/><path fill="#4e4545" d="M963.3 384.3v-9.2l4.5-2.7 4.6 13.6-2.3 1.4-6.8-3.1zm-4.8 1.8l7.1 3.6v5l-7.1-3.7v-4.9zm-5.6-7.6v-7.1l-2.7-6.6v-6.5l9.6 5.2v18.2l-6.9-3.2z"/><path fill="#655c5a" d="M970.1 387.4l-6.8-3.1-4.8 2 7.2 3.7z"/><path fill="#2f2829" d="M966.2 363.9l-4.1-2.1 8.4-4 7.6 12.9v8.6l-3.4 10.7-9 4.9v-5l4.4-2.5v-3.2l-2-3.9v-4l-1.9-2.9"/><path fill="#4e4545" d="M943.4 353.1l4.1 2.2v7.8l-4.1-2.4v-7.6z"/><path fill="#2f2829" d="M944.7 368.1v3.3l5.5-3.2v-11.1l-2.7 1.7v7.7l-2.8 1.6z"/><path fill="#655c5a" d="M943.4 360.7l-2.9 1.6 4.2 2.4 2.8-1.7-4.1-2.3zm3-9.2l-3 1.6 4.1 2.2 2.7-1.6-3.8-2.2z"/><path fill="#4e4545" d="M944.7 367.9l-4.2-2.4v-3.2l4.2 2.4v3.2zm14.8-5.2l4.1 2.3v7.7l-4.1-2.3v-7.7z"/><path fill="#2f2829" d="M960.8 374.3v3.3l5.5-3.2v-11.1l-2.7 1.7v7.7l-2.8 1.6z"/><path fill="#655c5a" d="M959.5 370.4l-2.9 1.5 4.3 2.4 2.7-1.6-4.1-2.3zm.4-6.8l-10.7-5.9 1-.6 9.7 5.6v.9z"/><path fill="#655c5a" d="M962.5 361.1l-3 1.6 4.1 2.3 2.7-1.7-3.8-2.2z"/><path fill="#4e4545" d="M961.2 377.5l-4.3-2.5v-3.2l4.3 2.4v3.3z"/><path fill="#fff" d="M951.9 359.2l3.3 7.7 4.3-3.5-7.6-4.2z"/><path fill="#4e4545" d="M944.4 353.8l17.6 10.1v-16.2l-17.6-10.1v16.2z"/><path fill="#2f2829" d="M962 363.9l8.4-4.8v-16.2l-8.4 4.8v16.2z"/><path fill="#655c5a" d="M944.4 337.6l17.6 10.1 8.4-4.8-17.6-10.1-8.4 4.8zm3.1 12.5l3-1.5 6 3.5-2.8 1.6-6.2-3.6z"/><path fill="#2f2829" d="M956.5 357.8a54.2 54.2 0 0 0 0-5.7l-2.8 1.6v5.9z"/><path fill="#4e4545" d="M947.5 350.1l6.2 3.6v5.9l-6.2-3.4v-6.1z"/><path fill="#2f2829" d="M950.2 317.6a14.3 14.3 0 0 0 2-.5s3 3.7 2.7 6.3a86.6 86.6 0 0 1-1.9 14.5l-1.2.6-1.6-20.9"/><path fill="#4e4545" d="M950.2 317.6a7.4 7.4 0 0 0-2.7 2.5c-.9 1.6-.4 8.1 1.9 17l2.4 1.4s2.4-12.7 1.1-16.3c0 0-1.3-4-2.7-4.6z"/><path fill="#2f2829" d="M962.2 323.9a14.3 14.3 0 0 0 2-.5s3 3.7 2.7 6.3a81.9 81.9 0 0 1-2 14.5l-1.1.6-1.6-20.9"/><path fill="#4e4545" d="M962.2 323.9a7.4 7.4 0 0 0-2.7 2.5c-.9 1.6-.5 8.1 1.9 17l2.4 1.4s2.4-12.7 1.1-16.3c0 0-1.3-4-2.7-4.6z"/><path fill="#212121" d="M949.8 351.4l.8 2 1.3-.8-2.1-1.2zm-1.7-7.9l-.8-.5v-.9l.8.5v.9zm.8.5l-.8-.5v-.9l.8.4v1zm.8.4l-.8-.4v-1l.8.5v.9zm.8.5l-.8-.5v-.9l.8.5v.9z"/><path fill="#212121" d="M948.1 344.4l-.8-.4v-1l.8.5v.9zm1.6 1l-.8-.5v-.9l.8.4v1z"/><path fill="#fff" d="M949.7 346.3l-.8-.5v-.9l.8.5v.9zm-.8-1.4l-.8-.5v-.9l.8.5v.9z"/><path fill="#212121" d="M950.5 345.8l-.8-.4v-1l.8.5v.9zm-2.4-.4l-.8-.5v-.9l.8.4v1zm.8.4l-.8-.4v-1l.8.5v.9z"/><path fill="#212121" d="M950.5 346.8l-.8-.5v-.9l.8.4v1zm5 .7l-.8-.5v-.9l.8.4v1zm.8.4l-.8-.4v-1l.8.5v.9zm.8.5l-.8-.5v-.9l.8.5v.9zm.8.5l-.8-.5v-.9l.8.4v1z"/><path fill="#212121" d="M955.5 348.4l-.8-.5v-.9l.8.5v.9zm1.6.9l-.8-.4v-1l.8.5v.9z"/><path fill="#fff" d="M957.1 350.3l-.8-.5v-.9l.8.4v1zm-.8-1.4l-.8-.5v-1l.8.5v1z"/><path fill="#212121" d="M957.9 349.8l-.8-.5v-.9l.8.5v.9zm-2.4-.5l-.8-.4v-1l.8.5v.9zm.8.5l-.8-.5v-.9l.8.5v.9z"/><path fill="#212121" d="M957.9 350.7l-.8-.4v-1l.8.5v.9z"/><path fill="#4e4545" d="M887.7 388l2.9 1.5v1.9l-2.9-1.4v-2z"/><path fill="#655c5a" d="M892.4 388.4l-2.8-1.2-1.9.8 2.9 1.5z"/><path fill="#2f2829" d="M895.5 385.2l-1.3 4.3-3.6 1.9v-1.9l1.8-1.1v-1.2l-.9-1.6m6.2-9.5l.3 3.7 1.7 4.3.2 3.8.8 1.7 3.6-2.4v-6.9l-4-3.7.2-.9-1.1.9-.3-.7-1.4.2z"/><path fill="#212121" d="M896.5 375.4l1.2.7.3 3.7 1.7 4.3.2 3.8.8 1.7-2.1-1.1-2.8-12.6.7-.5z"/><path fill="#4e4545" d="M893.8 389.5v-3.7l1.8-1.1 1.8 5.5-.9.5-2.7-1.2zm-2 .7l2.9 1.5v1.9l-2.9-1.4v-2zm-2.2-3v-2.8l-1-2.7v-2.6l3.8 2.1v7.2l-2.8-1.2z"/><path fill="#655c5a" d="M896.5 390.7l-2.7-1.2-1.9.8 2.8 1.5z"/><path fill="#2f2829" d="M894.9 381.4l-1.6-.9 3.3-1.6 3.1 5.2v3.4l-1.4 4.3-3.6 1.9v-2l1.8-1v-1.2l-.8-1.6v-1.6l-.8-1.1"/><path fill="#4e4545" d="M885.9 378.4l1.6.9v3.1l-1.6-.9v-3.1z"/><path fill="#2f2829" d="M886.4 383.1v1.3l2.2-1.3v-4.4l-1.1.6v3.1l-1.1.7z"/><path fill="#655c5a" d="M885.9 381.5l-1.2.6 1.7.9 1.1-.6-1.6-.9zm1.1-3.7l-1.1.6 1.6.9 1.1-.6-1.6-.9z"/><path fill="#4e4545" d="M886.4 384.3l-1.7-.9v-1.3l1.7.9v1.3zm5.9-3.4l1.6.9v3.1l-1.6-.9v-3.1z"/><path fill="#2f2829" d="M892.8 385.5v1.3l2.2-1.2v-4.5l-1.1.7v3.1l-1.1.6z"/><path fill="#655c5a" d="M892.3 383.9l-1.2.7 1.7.9 1.1-.6-1.6-1zm.1-2.6l-4.3-2.4.5-.2 3.8 2.2v.4z"/><path fill="#655c5a" d="M893.4 380.3l-1.1.6 1.6.9 1.1-.7-1.6-.8z"/><path fill="#4e4545" d="M892.9 386.8l-1.7-1v-1.3l1.7 1v1.3z"/><path fill="#fff" d="M889.2 379.5l1.3 3.1 1.8-1.4-3.1-1.7z"/><path fill="#4e4545" d="M886.3 377.3l6.9 4.1v-6.5l-6.9-4v6.4z"/><path fill="#2f2829" d="M893.2 381.4l3.4-1.9V373l-3.4 1.9v6.5z"/><path fill="#655c5a" d="M886.3 370.9l6.9 4 3.4-1.9-7-4-3.3 1.9zm1.2 5l1.2-.6 2.4 1.4-1.1.6-2.5-1.4z"/><path fill="#2f2829" d="M891.1 379v-2.3l-1.1.6v2.3z"/><path fill="#4e4545" d="M887.5 375.9l2.5 1.4v2.3l-2.5-1.3v-2.4z"/><path fill="#2f2829" d="M888.5 363l.9-.3a5 5 0 0 1 1 2.6 27.5 27.5 0 0 1-.8 5.7l-.4.3-.7-8.3"/><path fill="#4e4545" d="M888.5 363a2.1 2.1 0 0 0-1 1c-.4.6-.2 3.2.7 6.7l1 .6s1-5.1.4-6.5-.5-1.6-1.1-1.8z"/><path fill="#2f2829" d="M893.3 365.5l.8-.3a4.9 4.9 0 0 1 1.1 2.6 39.9 39.9 0 0 1-.8 5.7l-.5.3-.6-8.3"/><path fill="#4e4545" d="M893.3 365.5a2.6 2.6 0 0 0-1.1 1c-.3.6-.1 3.2.8 6.7l.9.6s1-5.1.5-6.5-.5-1.6-1.1-1.8z"/><path fill="#212121" d="M888.4 376.4l.3.8.5-.3-.8-.5zm-.7-3.1l-.3-.2v-.4l.3.2v.4zm.3.1l-.3-.1v-.4l.3.2v.3zm.4.2l-.4-.2v-.3l.4.2v.3zm.3.2l-.3-.2v-.3l.3.1v.4z"/><path fill="#212121" d="M887.7 373.6l-.3-.2v-.3l.3.2v.3zm.7.4l-.4-.2v-.4l.4.2v.4z"/><path fill="#fff" d="M888.4 374.4l-.4-.2v-.4l.4.2v.4zm-.4-.6l-.3-.2v-.3l.3.1v.4z"/><path fill="#212121" d="M888.7 374.2l-.3-.2v-.4l.3.2v.4zm-1-.2l-.3-.2v-.4l.3.2v.4zm.3.2l-.3-.2v-.4l.3.2v.4zm.7.4l-.3-.2v-.4l.3.2v.4zm2 .2l-.4-.2v-.3l.4.2v.3zm.3.2l-.3-.2v-.3l.3.1v.4zm.3.2l-.3-.2v-.4l.3.2v.4zm.3.2l-.3-.2v-.4l.3.2v.4z"/><path fill="#212121" d="M890.7 375.2l-.4-.2v-.4l.4.2v.4zm.6.4l-.3-.2v-.4l.3.2v.4z"/><path fill="#fff" d="M891.3 375.9l-.3-.1v-.4l.3.2v.3zm-.3-.5l-.3-.2v-.4l.3.2v.4z"/><path fill="#212121" d="M891.6 375.8l-.3-.2v-.4l.3.2v.4zm-.9-.2l-.4-.2v-.4l.4.2v.4zm.3.2l-.3-.2v-.4l.3.2v.4z"/><path fill="#212121" d="M891.6 376.1l-.3-.2v-.3l.3.2v.3z"/><path fill="#4e4545" d="M921.4 407.1l2.8 1.4v2l-2.8-1.4v-2z"/><path fill="#655c5a" d="M926 407.5l-2.7-1.2-1.9.8 2.8 1.4z"/><path fill="#2f2829" d="M929.2 404.3l-1.4 4.3-3.6 1.9v-2l1.8-1v-1.3l-.8-1.5m6.2-9.5l.3 3.7 1.6 4.2.3 3.8.8 1.8 3.6-2.4v-6.9l-4.1-3.7.3-.9-1.1.9-.3-.8-1.4.3z"/><path fill="#212121" d="M930.2 394.5l1.2.7.3 3.7 1.6 4.2.3 3.8.8 1.8-2.1-1.2-2.8-12.6.7-.4z"/><path fill="#4e4545" d="M927.4 408.5v-3.6l1.8-1.1 1.9 5.4-1 .6-2.7-1.3zm-1.9.8l2.8 1.4v2l-2.8-1.5v-1.9zm-2.2-3v-2.9l-1.1-2.6v-2.6l3.8 2.1v7.2l-2.7-1.2z"/><path fill="#655c5a" d="M930.1 409.8l-2.7-1.3-1.9.9 2.9 1.4z"/><path fill="#2f2829" d="M928.6 400.4l-1.7-.8 3.4-1.6 3 5.1v3.5l-1.3 4.2-3.6 2v-2l1.7-1v-1.3l-.8-1.5v-1.6l-.7-1.2"/><path fill="#4e4545" d="M919.5 397.5l1.6.9v3.1l-1.6-1v-3z"/><path fill="#2f2829" d="M920 402.1v1.3l2.2-1.2v-4.5l-1.1.7v3.1l-1.1.6z"/><path fill="#655c5a" d="M919.5 400.5l-1.1.6 1.6 1 1.1-.6-1.6-1zm1.2-3.6l-1.2.6 1.6.9 1.1-.7-1.5-.8z"/><path fill="#4e4545" d="M920 403.4l-1.6-1v-1.3l1.6 1v1.3zm5.9-3.4l1.6.9v3l-1.6-.9v-3z"/><path fill="#2f2829" d="M926.5 404.6v1.3l2.1-1.3v-4.4l-1.1.7v3l-1 .7z"/><path fill="#655c5a" d="M925.9 403l-1.1.6 1.7 1 1-.7-1.6-.9zm.2-2.7l-4.3-2.3.4-.3 3.9 2.3v.3z"/><path fill="#655c5a" d="M927.1 399.3l-1.2.7 1.6.9 1.1-.7-1.5-.9z"/><path fill="#4e4545" d="M926.6 405.8l-1.7-.9v-1.3l1.7.9v1.3z"/><path fill="#fff" d="M922.9 398.6l1.3 3 1.7-1.3-3-1.7z"/><path fill="#4e4545" d="M919.9 396.4l7 4V394l-7-4v6.4z"/><path fill="#2f2829" d="M926.9 400.4l3.4-1.9v-6.4l-3.4 1.9v6.4z"/><path fill="#655c5a" d="M919.9 390l7 4 3.4-1.9-7-4-3.4 1.9zm1.2 4.9l1.2-.5 2.4 1.3-1.1.7-2.5-1.5z"/><path fill="#2f2829" d="M924.7 398a17.6 17.6 0 0 0 0-2.3l-1.1.7v2.3z"/><path fill="#4e4545" d="M921.1 394.9l2.5 1.5v2.3l-2.5-1.3v-2.5z"/><path fill="#2f2829" d="M922.2 382l.8-.2s1.2 1.5 1.1 2.5a42.1 42.1 0 0 1-.8 5.8l-.5.2-.6-8.3"/><path fill="#4e4545" d="M922.2 382a3.7 3.7 0 0 0-1.1 1c-.3.6-.1 3.2.8 6.8l.9.5s1-5 .5-6.4-.5-1.7-1.1-1.9z"/><path fill="#2f2829" d="M927 384.5l.8-.2s1.2 1.5 1.1 2.5a42.1 42.1 0 0 1-.8 5.8l-.5.2-.6-8.3"/><path fill="#4e4545" d="M927 384.5a2.8 2.8 0 0 0-1.1 1c-.3.7-.2 3.2.8 6.8l.9.5s1-5 .5-6.4-.6-1.7-1.1-1.9z"/><path fill="#212121" d="M922.1 395.5l.3.8.5-.3-.8-.5zm-.7-3.2l-.3-.2v-.3l.3.1v.4zm.3.2l-.3-.2v-.4l.3.2v.4zm.3.2l-.3-.2v-.4l.3.2v.4zm.3.2l-.3-.2v-.4l.3.2v.4z"/><path fill="#212121" d="M921.4 392.7l-.3-.2v-.4l.3.2v.4zm.6.4l-.3-.2v-.4l.3.2v.4z"/><path fill="#fff" d="M922 393.4l-.3-.1v-.4l.3.2v.3zm-.3-.5l-.3-.2v-.4l.3.2v.4z"/><path fill="#212121" d="M922.3 393.3l-.3-.2v-.4l.3.2v.4zm-.9-.2l-.3-.2v-.4l.3.2v.4zm.3.1l-.3-.1v-.4l.3.2v.3z"/><path fill="#212121" d="M922.3 393.6l-.3-.2v-.3l.3.1v.4zm2 .3l-.3-.2v-.4l.3.2v.4zm.3.2l-.3-.2v-.4l.3.2v.4zm.4.2l-.4-.2v-.4l.4.2v.4zm.3.2l-.3-.2v-.4l.3.2v.4zm-1-.2l-.3-.2v-.4l.3.2v.4z"/><path fill="#212121" d="M925 394.6l-.4-.1v-.4l.4.2v.3z"/><path fill="#fff" d="M925 395l-.4-.2v-.3l.4.1v.4zm-.4-.5l-.3-.2v-.4l.3.2v.4z"/><path fill="#212121" d="M925.3 394.8l-.3-.2v-.3l.3.2v.3zm-1-.2l-.3-.1v-.4l.3.2v.3zm.3.2l-.3-.2v-.3l.3.2v.3z"/><path fill="#212121" d="M925.3 395.2l-.3-.2v-.4l.3.2v.4z"/><path fill="#4e4545" d="M864.8 401.5l2.8 1.4v2l-2.8-1.5v-1.9z"/><path fill="#655c5a" d="M869.4 401.9l-2.8-1.3-1.8.9 2.8 1.4z"/><path fill="#2f2829" d="M872.5 398.7l-1.3 4.2-3.6 2v-2l1.8-1v-1.3l-.9-1.5m6.2-9.6l.3 3.7 1.7 4.3.2 3.8.8 1.8 3.6-2.4v-6.9l-4-3.8.2-.8-1.1.9-.3-.8-1.4.2z"/><path fill="#212121" d="M873.6 388.9l1.1.6.3 3.7 1.7 4.3.2 3.8.8 1.8-2.1-1.2-2.8-12.6.8-.4z"/><path fill="#4e4545" d="M870.8 402.9v-3.6l1.8-1.1 1.8 5.4-.9.6-2.7-1.3zm-1.9.8l2.8 1.4v2l-2.8-1.5v-1.9zm-2.3-3.1v-2.8l-1-2.6v-2.6l3.8 2.1v7.2l-2.8-1.3z"/><path fill="#655c5a" d="M873.5 404.2l-2.7-1.3-1.9.9 2.8 1.4z"/><path fill="#2f2829" d="M871.9 394.8l-1.6-.8 3.3-1.6 3.1 5.1v3.4l-1.4 4.3-3.6 2v-2l1.8-1v-1.3l-.8-1.5v-1.6l-.8-1.2"/><path fill="#4e4545" d="M862.9 391.9l1.6.9v3.1l-1.6-1v-3z"/><path fill="#2f2829" d="M863.4 396.5v1.3l2.2-1.3v-4.4l-1.1.7v3.1l-1.1.6z"/><path fill="#655c5a" d="M862.9 394.9l-1.2.6 1.7 1 1.1-.7-1.6-.9zm1.2-3.6l-1.2.6 1.6.9 1.1-.7-1.5-.8z"/><path fill="#4e4545" d="M863.4 397.8l-1.7-1v-1.3l1.7 1v1.3zm5.9-3.4l1.6.9v3l-1.6-.9v-3z"/><path fill="#2f2829" d="M869.8 399v1.3l2.2-1.3v-4.4l-1.1.7v3l-1.1.7z"/><path fill="#655c5a" d="M869.3 397.4l-1.2.6 1.7 1 1.1-.7-1.6-.9zm.1-2.7l-4.2-2.3.4-.3 3.8 2.3v.3z"/><path fill="#655c5a" d="M870.5 393.7l-1.2.7 1.6.9 1.1-.7-1.5-.9z"/><path fill="#4e4545" d="M869.9 400.2l-1.7-.9V398l1.7.9v1.3z"/><path fill="#fff" d="M866.2 393l1.3 3 1.8-1.4-3.1-1.6z"/><path fill="#4e4545" d="M863.3 390.8l7 4v-6.4l-7-4v6.4z"/><path fill="#2f2829" d="M870.3 394.8l3.3-1.9v-6.4l-3.3 1.9v6.4z"/><path fill="#655c5a" d="M863.3 384.4l7 4 3.3-1.9-7-4.1-3.3 2zm1.2 4.9l1.2-.5 2.4 1.3-1.1.7-2.5-1.5z"/><path fill="#2f2829" d="M868.1 392.4a17.6 17.6 0 0 0 0-2.3l-1.1.7v2.3z"/><path fill="#4e4545" d="M864.5 389.3l2.5 1.5v2.3l-2.5-1.3v-2.5z"/><path fill="#2f2829" d="M865.6 376.4l.8-.2s1.2 1.5 1.1 2.5a42.1 42.1 0 0 1-.8 5.8l-.5.2-.6-8.3"/><path fill="#4e4545" d="M865.6 376.4a2.8 2.8 0 0 0-1.1 1c-.3.6-.2 3.2.8 6.8l.9.5s1-5 .4-6.5c0 0-.5-1.6-1-1.8z"/><path fill="#2f2829" d="M870.3 378.9l.9-.2a5 5 0 0 1 1 2.5 28.8 28.8 0 0 1-.8 5.8l-.4.2-.7-8.3"/><path fill="#4e4545" d="M870.3 378.9a2.8 2.8 0 0 0-1 1c-.4.6-.2 3.2.7 6.8l1 .5s.9-5 .4-6.5c0 0-.5-1.6-1.1-1.8z"/><path fill="#212121" d="M865.4 389.9l.3.7.5-.2-.8-.5zm-.7-3.2l-.3-.2v-.3l.3.1v.4zm.4.2l-.4-.2v-.4l.4.2v.4zm.3.2l-.3-.2v-.4l.3.2v.4zm.3.2l-.3-.2v-.4l.3.2v.4zm-1-.2l-.3-.2v-.4l.3.2v.4z"/><path fill="#212121" d="M865.4 387.5l-.3-.2v-.4l.3.2v.4z"/><path fill="#fff" d="M865.4 387.8l-.3-.2v-.3l.3.2v.3zm-.3-.5l-.4-.2v-.4l.4.2v.4z"/><path fill="#212121" d="M865.7 387.6l-.3-.1v-.4l.3.2v.3zm-1-.1l-.3-.2v-.4l.3.2v.4zm.4.1l-.4-.1v-.4l.4.2v.3z"/><path fill="#212121" d="M865.7 388l-.3-.2v-.3l.3.1v.4zm2 .3l-.3-.2v-.4l.3.2v.4zm.3.2l-.3-.2v-.4l.3.2v.4zm.3.2l-.3-.2v-.4l.3.2v.4zm.3.1l-.3-.1v-.4l.3.2v.3z"/><path fill="#212121" d="M867.7 388.7l-.3-.2v-.4l.3.2v.4zm.6.3l-.3-.2v-.3l.3.2v.3z"/><path fill="#fff" d="M868.3 389.4l-.3-.2v-.4l.3.2v.4zm-.3-.6l-.3-.1v-.4l.3.2v.3z"/><path fill="#212121" d="M868.6 389.2l-.3-.2v-.3l.3.1v.4zm-.9-.2l-.3-.2v-.3l.3.2v.3zm.3.2l-.3-.2v-.3l.3.1v.4zm.6.4l-.3-.2v-.4l.3.2v.4z"/><path fill="#4e4545" d="M898.4 420.5l2.9 1.5v2l-2.9-1.5v-2z"/><path fill="#655c5a" d="M903 421l-2.7-1.3-1.9.8 2.9 1.5z"/><path fill="#2f2829" d="M906.2 417.7l-1.3 4.3-3.6 1.9V422l1.7-1.1v-1.2l-.8-1.6m6.2-9.5l.3 3.7 1.6 4.3.3 3.8.8 1.8 3.6-2.4v-7l-4-3.7.2-.9-1.1.9-.3-.7-1.4.2z"/><path fill="#212121" d="M907.2 407.9l1.2.7.3 3.7 1.6 4.3.3 3.8.8 1.8-2.1-1.2-2.8-12.6.7-.5z"/><path fill="#4e4545" d="M904.4 422v-3.7l1.9-1 1.8 5.4-.9.5-2.8-1.2zm-1.9.7l2.8 1.5v1.9l-2.8-1.4v-2zm-2.2-3v-2.8l-1.1-2.7v-2.5l3.8 2.1v7.2l-2.7-1.3z"/><path fill="#655c5a" d="M907.2 423.2l-2.8-1.2-1.8.8 2.8 1.5z"/><path fill="#2f2829" d="M905.6 413.9l-1.6-.9 3.3-1.6 3 5.2v3.4l-1.3 4.3-3.6 1.9v-1.9l1.8-1.1V422l-.9-1.6v-1.6l-.7-1.1"/><path fill="#4e4545" d="M896.5 410.9l1.6.9v3.1l-1.6-.9v-3.1z"/><path fill="#2f2829" d="M897.1 415.6v1.3l2.1-1.3v-4.4l-1.1.6v3.1l-1 .7z"/><path fill="#655c5a" d="M896.5 414l-1.1.6 1.7 1 1-.7-1.6-.9zm1.2-3.7l-1.2.7 1.6.8 1.1-.6-1.5-.9z"/><path fill="#4e4545" d="M897.1 416.9l-1.7-1v-1.3l1.7 1v1.3zm5.9-3.5l1.6.9v3.1l-1.6-.9v-3.1z"/><path fill="#2f2829" d="M903.5 418v1.3l2.1-1.2v-4.4l-1.1.6v3.1l-1 .6z"/><path fill="#655c5a" d="M903 416.5l-1.2.6 1.7.9 1.1-.6-1.6-.9zm.1-2.7l-4.3-2.4.4-.2 3.9 2.2v.4z"/><path fill="#655c5a" d="M904.1 412.8l-1.1.6 1.6.9 1-.6-1.5-.9z"/><path fill="#4e4545" d="M903.6 419.3l-1.7-1V417l1.7 1v1.3z"/><path fill="#fff" d="M899.9 412l1.3 3.1 1.8-1.4-3.1-1.7z"/><path fill="#4e4545" d="M896.9 409.9l7 4v-6.4l-7-4.1v6.5z"/><path fill="#2f2829" d="M903.9 413.9l3.4-1.9v-6.5l-3.4 2v6.4z"/><path fill="#655c5a" d="M896.9 403.4l7 4.1 3.4-2-7-4-3.4 1.9zm1.2 5l1.2-.6 2.4 1.4-1.1.6-2.5-1.4z"/><path fill="#2f2829" d="M901.7 411.5a17.6 17.6 0 0 0 0-2.3l-1.1.6v2.4z"/><path fill="#4e4545" d="M898.1 408.4l2.5 1.4v2.4l-2.5-1.4v-2.4z"/><path fill="#2f2829" d="M899.2 395.5l.8-.2s1.2 1.5 1.1 2.5a27.5 27.5 0 0 1-.8 5.7l-.4.3-.7-8.3"/><path fill="#4e4545" d="M899.2 395.5a3.7 3.7 0 0 0-1.1 1c-.3.6-.1 3.2.8 6.8l1 .5s.9-5.1.4-6.5-.5-1.6-1.1-1.8z"/><path fill="#2f2829" d="M904 398l.8-.2s1.2 1.5 1.1 2.5a39.9 39.9 0 0 1-.8 5.7l-.5.3-.6-8.3"/><path fill="#4e4545" d="M904 398a2.8 2.8 0 0 0-1.1 1c-.3.6-.1 3.2.8 6.8l.9.5s1-5.1.5-6.5-.5-1.6-1.1-1.8z"/><path fill="#212121" d="M899.1 408.9l.3.8.5-.3-.8-.5zm-.7-3.1l-.3-.2v-.4l.3.2v.4zm.3.2l-.3-.2v-.4l.3.2v.4zm.3.1l-.3-.1v-.4l.3.2v.3zm.4.2l-.4-.2v-.3l.4.2v.3z"/><path fill="#212121" d="M898.4 406.1l-.3-.1v-.4l.3.2v.3zm.6.4l-.3-.2v-.3l.3.1v.4z"/><path fill="#fff" d="M899 406.9l-.3-.2v-.4l.3.2v.4zm-.3-.6l-.3-.2v-.3l.3.2v.3z"/><path fill="#212121" d="M899.4 406.7l-.4-.2v-.4l.4.2v.4zm-1-.2l-.3-.2v-.3l.3.1v.4zm.3.2l-.3-.2v-.4l.3.2v.4zm.7.4l-.4-.2v-.4l.4.2v.4zm1.9.3l-.3-.2v-.4l.3.2v.4zm.4.1l-.4-.1v-.4l.4.2v.3zm.3.2l-.3-.2v-.3l.3.2v.3zm.3.2l-.3-.2v-.3l.3.1v.4z"/><path fill="#212121" d="M901.3 407.7l-.3-.2v-.3l.3.2v.3zm.7.4l-.3-.2v-.4l.3.2v.4z"/><path fill="#fff" d="M902 408.5l-.3-.2v-.4l.3.2v.4zm-.3-.6l-.4-.2v-.3l.4.1v.4z"/><path fill="#212121" d="M902.3 408.3l-.3-.2v-.4l.3.2v.4zm-1-.2l-.3-.2v-.4l.3.2v.4zm.4.2l-.4-.2v-.4l.4.2v.4z"/><path fill="#212121" d="M902.3 408.7l-.3-.2v-.4l.3.2v.4z"/><path fill="#e65100" d="M960.6 364.2c-2.2-.4-3.9 1.2-4.6 2.1s-1.7-1.9-2.2-.8.8 1.3 1.7 1.5a6.8 6.8 0 0 0-.7 4.1c.2 3 2.2 2.3 2.2 2.3l6.6-7.1s-.1-1.6-3-2.1z"/><path fill="#f57c00" d="M957 373.4a7 7 0 0 1 1.5-5.5 4.5 4.5 0 0 1 5.1-1.6s2.2 2.6.9 8c0 0-6 1-7.5-.9z"/><path fill="#ffa726" d="M959.3 367.9s2.2-2.7 3.7-.3 1.1 3.6 1.3 6c0 0-2.5-5.3-5-5.7z"/><path fill="#e65100" d="M933.3 355.6a3.1 3.1 0 0 0-2.8 1.3c-.2-.2-1.1-1.2-1.4-.5s.5.8 1.1.9a4.4 4.4 0 0 0-.5 2.6c.1 1.9 1.4 1.4 1.4 1.4l4.1-4.4s0-.9-1.9-1.3z"/><path fill="#f57c00" d="M931.1 361.3a4.3 4.3 0 0 1 .9-3.4 2.9 2.9 0 0 1 3.2-1s1.3 1.7.6 5c0 0-3.8.6-4.7-.6z"/><path fill="#ffa726" d="M932.5 357.9s1.4-1.7 2.3-.2a6.9 6.9 0 0 1 .8 3.7s-1.5-3.2-3.1-3.5z"/><path fill="#e43935" d="M297.7 891.4l-2.5-1.5-1 4.8 3.9 1.1-.4-4.4z"/><path fill="#689f38" d="M337.3 909.6l-1.9-.6v-26.3l1.9.6v26.3z"/><path fill="#92cd43" d="M339.2 909l-1.9.6v-26.2l1.9-.7V909zm-43.9 24.7l-2-1.1v-29.3l2 1.2v29.2zm42-23.8l-1.9-1.1v-29.3l1.9 1.1v29.3z"/><path fill="#aed581" d="M339.2 908.8l-1.9 1.1v-29.1l1.9-1.1v29.1z"/><path fill="#ef5350" d="M353.2 856.3l-2.5-1.5"/><path fill="#aed581" d="M297.2 932.6l-1.9 1.1v-29l1.9-1.2v29.1z"/><path fill="#92cd43" d="M252.5 959.8l-2-1.1v-29.3l2 1.1v29.3z"/><path fill="#aed581" d="M254.4 958.7l-1.9 1.1v-29.1l1.9-1.1v29.1z"/><path fill="#e43935" d="M292.1 912.5l2.4 1.5 3.2-3.3-4.7-1.6-.9 3.4z"/><path fill="#ef5350" d="M297.7 913.4c-1.5.9-2.5 1-3.2.6-4-2.4 3.2-22.6 3.2-22.6"/><path fill="#e43935" d="M295.2 889.9s9.9 16.4 0 22.1 0-22.1 0-22.1"/><path fill="#ef5350" d="M297.7 891.4s9.8 16.4 0 22 0-22 0-22"/><path fill="#e43935" d="M339.8 867.5l-2.4-1.5-1.1 4.8 3.9 1.2-.4-4.5z"/><path fill="#92cd43" d="M337.4 909.9l-1.9-1.1v-29.3l1.9 1.1v29.3z"/><path fill="#aed581" d="M339.3 908.8l-1.9 1.1v-29.1l1.9-1.1v29.1z"/><path fill="#e43935" d="M334.2 888.6l2.5 1.5 3.1-3.3-4.6-1.6-1 3.4z"/><path fill="#ef5350" d="M339.8 889.6c-1.4.8-2.4.9-3.1.5-4-2.4 3.1-22.6 3.1-22.6"/><path fill="#e43935" d="M337.4 866s9.8 16.4 0 22.1 0-22.1 0-22.1"/><path fill="#ef5350" d="M339.8 867.5s9.9 16.4 0 22.1 0-22.1 0-22.1"/><path fill="#e43935" d="M255.1 917.4l-2.5-1.4-1 4.7 3.9 1.2-.4-4.5z"/><path fill="#92cd43" d="M252.7 959.8l-2-1.1v-29.3l2 1.1v29.3z"/><path fill="#aed581" d="M254.6 958.7l-1.9 1.1v-29.1l1.9-1.1v29.1z"/><path fill="#e43935" d="M249.5 938.6l2.4 1.4 3.2-3.3-4.6-1.5-1 3.4z"/><path fill="#ef5350" d="M255.1 939.5c-1.4.8-2.5 1-3.2.5-4-2.3 3.2-22.6 3.2-22.6"/><path fill="#e43935" d="M252.6 916s9.9 16.4 0 22 0-22 0-22"/><path fill="#ef5350" d="M255.1 917.4s9.8 16.4 0 22.1 0-22.1 0-22.1"/><path fill="#f8f8f7" d="M813.4 774l764.2-441.2 246.5 142.3-788.8 455.4L813.4 774z"/><path fill="#e0e0e0" d="M986 1243.6L1724.9 817l99.2-79.2V475.1L986 959v284.6z"/><path fill="#e43935" d="M788.8 845.1L1023 980.3l-37 149.5v113.8l-246.5-142.3V987.4l49.3-142.3z"/><path fill="#90a4ae" d="M986 1186.7l-246.6-142.4.1 57L986 1243.6v-56.9z"/><path fill="#78909c" d="M788.8 845.1l-49.3 142.3L986 1129.8l49.3-142.4-246.5-142.3z"/><path fill="#2f2829" d="M791.5 843.5v-50.6l241.1 139.2v50.6L791.5 843.5z"/><path fill="#e43935" d="M794.3 797.7l235.5 136V978L794.3 842v-44.3m-5.5-9.5v56.9l246.5 142.3v-56.9L788.8 788.2z"/><path fill="#43535f" d="M1035.3 987.4v113.9l-49.3 28.5 49.3-142.4zm5.6-3.2l733.8-423.6.1 113.7-733.9 423.7V984.2z"/><path fill="#f8f8f7" d="M838.2 759.7l739.4-426.9 246.5 142.3-739.5 427-246.4-142.4z"/><path fill="#d32e2f" d="M986 1129.8l49.3-28.5v56.9l-49.3 28.5v-56.9z"/><path fill="#fcfcfc" d="M797 792.9l65.7-75.9 244.2-143.6 273.5 157.9-295.8 170.8L797 792.9z"/><path fill="#e0e0e0" d="M1084.6 845.1l-49.3 85.4 353.5-194.4-57.7-33.3-246.5 142.3z"/><path fill="#eee" d="M1084.6 845.1L862.7 717 797 792.9l238.3 137.6 49.3-85.4z"/><path fill="#bcb6ad" d="M1084.6 845.1V959"/><path fill="#f14336" d="M1035.3 930.5L788.9 788.2l5.6-3.3L1041 927.2l-5.7 3.3z"/><path fill="#d32e2f" d="M1040.9 1155l-5.6 3.2V930.5l5.7-3.3-.1 227.8z"/><g clip-path="url(#a)"><path fill="#d32e2f" fill-rule="evenodd" d="M1796.3 828.5l.4-.6.4-.6 6.3-10.7-72.7-40.5c-1.8-1.1-1.1-6.6.8-9.7 21.4-31.5 40.9-59.9 62.3-91.3l-21.4-1c-3.7-.5-5.8-4.4-5.4-9.2l9.5-123.2-16.8 16.3c-7 7.7-8.8 3.2-13.8-4l-23.3-33.7-25.3 59.8c-2.6 5.3-7 7.8-9.2 7.3l-18.9-2 3.5 61.8c1 9.2-6.4 21.8-15.1 11.4l-48.5-54.9-6.8 30.1c-1.9 8.2-11.8 16.8-11.8 16.8l-59 11.3 18.3 58c1.8 6.2-3 13.6-9.3 19.2l-22.3 19.8 70.3 17.7c13.1 2.7 5.7 15.4-2.3 18.2l-55.2 26.5 10.8 15.9c1.4 1.7 1.4 6.8-2.3 12.2l-39.8 51.2 40.7 4c8.3 1.7 13.1 1.1 10.1 10.4l-6.4 23.4 102.1-67.3c4-2.7 8.3-2.6 10.5.4l11.4 18c17.1-34.1 32.3-65 49.3-99.2 1.5-2.5 5.9-6.7 8.1-5.3l57.8 35.7"/></g><path fill="#78909c" d="M986 1186.7l838.1-483.9v35l-99.2 79.2L986 1243.6v-56.9z"/><path fill="#78909c" d="M1203.6 1046c7.6 4.5 12.4 14.1 12.5 27.6.1 27.2-18.7 60.1-42.1 73.6-11.7 6.8-22.3 7.3-30 2.8s-12.4-14-12.5-27.6c-.1-27.1 18.8-60.1 42.1-73.5 11.7-6.8 22.3-7.4 30-2.9zm482.1-278.6c7.7 4.5 12.5 14.1 12.5 27.6.1 27.2-18.7 60.1-42 73.6-11.7 6.8-22.3 7.4-30 2.9s-12.5-14.1-12.5-27.6c-.1-27.2 18.7-60.1 42-73.6 11.7-6.8 22.3-7.4 30-2.9z"/><path fill="#655c5a" d="M1616.9 879.4l100-57.7 18.5 23.4-91.9 56.5-26.6-22.2z"/><path fill="#212121" d="M1683.4 775.3l-51.1 88.3 15 8.7 45.5-75.4 5.5-13"/><path fill="#212121" d="M1683.4 775.3c6.5 3.7 10.6 11.8 10.6 23.3 0 23-16.2 51-36.1 62.5-10 5.8-19 6.3-25.6 2.5s-10.5-11.8-10.5-23.3c0-23 16.1-51 36.1-62.5 9.9-5.8 19-6.3 25.5-2.5z"/><path fill="#2f2829" d="M1698.3 783.9c6.6 3.8 10.6 11.9 10.6 23.4 0 23-16.2 51-36.1 62.5-10 5.7-19 6.3-25.5 2.5s-10.6-11.9-10.6-23.4c0-23 16.2-51 36.1-62.5 10-5.7 19-6.3 25.5-2.5z"/><path fill="#9e9e9e" d="M1684.7 807.5c3.1 1.7 5 5.5 5 10.9 0 10.7-7.6 23.8-16.9 29.2-4.7 2.7-8.9 2.9-11.9 1.1s-5-5.5-5-10.9c0-10.7 7.6-23.8 16.9-29.2 4.7-2.7 8.9-2.9 11.9-1.1z"/><path fill="#655c5a" d="M1145.9 1152.1l112.5-65 5 32.5s-119.9 56.2-117.5 53.8 0-21.3 0-21.3z"/><path fill="#d32e2f" fill-rule="evenodd" d="M1728.8 529.3l95.3-54.2v227.7l-85.2 49.2-10.1-222.7z"/><path fill="#212121" d="M1201.3 1052.8l-51.1 88.3 14.9 8.7 45.5-75.4 5.6-13"/><path fill="#212121" d="M1201.3 1052.8c6.5 3.8 10.5 11.8 10.5 23.3 0 23-16.1 51-36.1 62.5-9.9 5.8-19 6.3-25.5 2.5s-10.6-11.8-10.6-23.3c0-23 16.2-51 36.1-62.5 10-5.8 19-6.3 25.6-2.5z"/><path fill="#2f2829" d="M1216.2 1061.4c6.5 3.8 10.5 11.9 10.5 23.4 0 23-16.1 51-36 62.5-10 5.7-19 6.3-25.6 2.5s-10.5-11.9-10.5-23.3c0-23.1 16.1-51 36.1-62.5 9.9-5.8 19-6.3 25.5-2.6z"/><path fill="#9e9e9e" d="M1202.6 1085c3 1.7 4.9 5.5 4.9 10.9 0 10.7-7.5 23.8-16.8 29.2-4.7 2.7-8.9 2.9-12 1.2s-4.9-5.6-4.9-10.9c0-10.8 7.6-23.9 16.9-29.2 4.6-2.7 8.8-3 11.9-1.2z"/><path fill="#ffc400" d="M910.4 881.3a3.4 3.4 0 0 1-.6 2.2 2.5 2.5 0 0 1-1.7.8 9.5 9.5 0 0 1 1.9 3 7.1 7.1 0 0 1 .7 3.2c0 1.7-.5 2.8-1.5 3.2s-2.4.1-4.1-.9a11.3 11.3 0 0 1-4.2-3.9 9.4 9.4 0 0 1-1.5-5 3.3 3.3 0 0 1 .7-2.4 2.1 2.1 0 0 1 1.9-.7 11.7 11.7 0 0 1-1.7-2.8 7.1 7.1 0 0 1-.6-2.8c0-1.7.5-2.7 1.4-3.2s2.3-.1 4 .8a11.2 11.2 0 0 1 3.8 3.7 9 9 0 0 1 1.5 4.8zm-3 7a4.8 4.8 0 0 0-.6-2.4 4.5 4.5 0 0 0-1.8-1.8c-.7-.4-1.2-.5-1.7-.2a1.9 1.9 0 0 0-.6 1.7 4.6 4.6 0 0 0 .6 2.3 3.9 3.9 0 0 0 1.8 1.8 1.9 1.9 0 0 0 1.7.3 2.1 2.1 0 0 0 .6-1.7zm-.4-8.7a4.5 4.5 0 0 0-1.9-3.7c-.7-.3-1.2-.4-1.5-.1s-.5.7-.5 1.5a4.2 4.2 0 0 0 .5 2.2 3.1 3.1 0 0 0 1.5 1.5 1.3 1.3 0 0 0 1.4.2c.4-.3.5-.8.5-1.6zm17 9.6a3.1 3.1 0 0 1-.6 2.1 2.1 2.1 0 0 1-1.7.8 12.5 12.5 0 0 1 1.9 3 8 8 0 0 1 .8 3.3c0 1.7-.6 2.8-1.6 3.2s-2.4.1-4.1-.9a11.3 11.3 0 0 1-4.2-3.9 9.4 9.4 0 0 1-1.5-5 3.3 3.3 0 0 1 .7-2.4 2.2 2.2 0 0 1 1.9-.8 9.5 9.5 0 0 1-1.7-2.7 7.5 7.5 0 0 1-.6-2.9c0-1.6.5-2.7 1.5-3.1s2.2-.2 3.9.8a10.6 10.6 0 0 1 3.9 3.7 9.2 9.2 0 0 1 1.4 4.8zm-3 6.9a5.3 5.3 0 0 0-.6-2.4 4.9 4.9 0 0 0-1.8-1.7c-.7-.4-1.2-.5-1.7-.2s-.6.8-.6 1.6a5 5 0 0 0 .6 2.4 5.2 5.2 0 0 0 1.8 1.8c.7.4 1.3.5 1.7.2s.6-.8.6-1.7zm-.4-8.7a4.1 4.1 0 0 0-.5-2.1 3.4 3.4 0 0 0-1.4-1.5c-.7-.4-1.2-.4-1.5-.2a1.9 1.9 0 0 0-.5 1.5 5.4 5.4 0 0 0 .5 2.2 3.3 3.3 0 0 0 1.5 1.6c.6.3 1.1.4 1.4.1s.5-.8.5-1.6z"/><path fill="#fff" d="M851.8 1089.2a8.6 8.6 0 0 0 1.3 4.3v2.8a3.2 3.2 0 0 0 1.4 2.4l1.4.8c.7.4 1.3.1 1.3-.8v-1.6l11 6.3v1.6a2.9 2.9 0 0 0 1.4 2.4l1.3.8c.8.4 1.4.1 1.4-.8v-2.8a2.9 2.9 0 0 0 1.4-2.7V1086c0-5.5-4.9-9.1-11-12.6s-10.9-5.5-10.9 0zm4.8 4.4a4.6 4.6 0 0 1-2.1-3.6c0-1.3.9-1.8 2.1-1.2a4.7 4.7 0 0 1 2 3.6c0 1.3-.9 1.8-2 1.2zm12.3 7.1a4.6 4.6 0 0 1-2.1-3.6c0-1.3.9-1.8 2.1-1.2a4.7 4.7 0 0 1 2 3.6c0 1.3-.9 1.8-2 1.2zm2-8.3l-16.4-9.5v-7.9l16.4 9.5z"/></svg>