<svg xmlns="http://www.w3.org/2000/svg" width="1972" height="1473.4" viewBox="0 0 1972 1473.4"><path fill="#48a12f" d="M295.8 1018L0 847.2 986 278l295.8 170.7-986 569.3z"/><path fill="#4e4545" d="M542.3 1160.3v57L986 1473.4v-56.9l-443.7-256.2z"/><path fill="#2f2829" d="M1972 865.8V904l-986 569.2v-38.1l986-569.3z"/><path fill="#d9c9be" d="M543 1167.1l-246.6-142.2 197.2-120.8-197.2-113.8 591.2-341.4 197.2 113.8 197.6-107.2L1529 598.6l-986 568.5z"/><path fill="#b99e90" d="M295.8 1024.9v50l246.5 142.4v-50.1l-246.5-142.3z"/><path fill="#307621" d="M887.4 455.5l-585.9 338-5.7-3.3 591.6-341.6v6.9z"/><path fill="#655c5a" d="M542.3 1178.1l986-568.5L1972 865.8l-986 569.3-443.7-257z"/><path fill="#a1887f" d="M542.3 1178.1v-10.9l986-568.6v11l-986 568.5z"/><path fill="#307621" d="M1281.8 455.6l-197.2 113.8v-6.8l197.2-113.9v6.9zM493 911l-197.2 113.9v-6.9L493 904.2v6.8z"/><path fill="#3c8d24" d="M1084.6 569.4L887.4 455.6v-6.9l197.2 113.9v6.8z"/><path fill="#ffbe03" d="M871.5 1368.8l985.8-569.2 10.3 5.9-985.8 569.2-10.3-5.9z"/><path fill="#3c8d24" d="M0 847.2v57l295.8 170.7V1018L0 847.2z"/><path fill="#795548" d="M0 864.2v40l295.8 170.7v-39.1L0 864.2z"/><path fill="#655c5a" d="M295.8 1035.8v39.1l246.5 142.4v-39.2l-246.5-142.3z"/><path fill="#9e9e9e" d="M423.1 1014.6l-4.7-2.8V662.1l4.7 2.7v349.8z"/><path fill="#bcb6ad" d="M427.9 1011.8l-4.8 2.8V664.9l4.8-2.7v349.6z"/><path fill="#e0e0e0" d="M423.1 664.8l-4.7-2.7 4.7-2.8 4.8 2.8-4.8 2.7z"/><path fill="#4e4545" d="M645.6 816l-4.7 2.7v-57l4.7-2.7v57z"/><path fill="#655c5a" d="M640.9 818.7l-4.8-2.7v-57l4.8 2.7v57zm-49.3-28.4l-4.8-2.7V673.7l4.8 2.7v113.9z"/><path fill="#4e4545" d="M596.3 787.6l-4.7 2.7V676.6l4.7-2.8v113.8z"/><path fill="#9e9e9e" d="M591.6 676.4l-4.8-2.7 4.8-2.7 4.7 2.7-4.7 2.7z"/><path fill="#4e4545" d="M887.4 619.4l-4.8 2.8V508.4l4.8-2.7v113.7z"/><path fill="#655c5a" d="M882.6 622.1l-4.7-2.8V505.7l4.7 2.7v113.7z"/><path fill="#607d8b" d="M591.5 733.4l295.8-170.7 14.7 8.4-295.8 170.8-14.7-8.5z"/><path fill="#455a64" d="M606.2 741.9L902 571.1v6.1L606.2 748v-6.1z"/><path fill="#43535f" d="M606.2 748l-14.7-8.5.1-6.1 14.6 8.5v6.1z"/><path fill="#4e4545" d="M936.7 648l-4.8 2.8v-57.1l4.8-2.7v57z"/><path fill="#655c5a" d="M931.9 650.8l-4.7-2.8v-57l4.7 2.7v57.1z"/><path fill="#607d8b" d="M608.9 743.3l295.8-170.8 14.7 8.5-295.8 170.8-14.7-8.5z"/><path fill="#455a64" d="M623.5 751.8L919.3 581v6.1L623.5 757.9v-6.1z"/><path fill="#43535f" d="M623.6 757.9l-14.7-8.5v-6.1l14.7 8.5v6.1z"/><path fill="#607d8b" d="M626.3 753.4L922 582.6l14.7 8.4-295.8 170.8-14.6-8.4z"/><path fill="#455a64" d="M640.9 761.8L936.7 591v6.2L640.9 767.9v-6.1z"/><path fill="#43535f" d="M640.9 768l-14.6-8.5v-6.1l14.6 8.5v6.1z"/><path fill="#455a64" d="M596.9 699.6l295.8-170.7v16.8L596.9 716.5v-16.9z"/><path fill="#607d8b" d="M892.7 528.9L596.9 699.6l-5.3-3.1 295.8-170.7 5.3 3.1z"/><path fill="#43535f" d="M591.6 713.4v-16.8l5.3 3v16.9l-5.3-3.1z"/><path fill="#455a64" d="M596.9 679.5l295.8-170.7v16.8L596.9 696.4v-16.9z"/><path fill="#607d8b" d="M892.7 508.7L596.9 679.5l-5.3-3.1 295.8-170.7 5.3 3z"/><path fill="#43535f" d="M591.6 693.3v-16.9l5.3 3.1v16.9l-5.3-3.1z"/><path fill="#9e9e9e" d="M882.6 508.4l-4.7-2.7 4.7-2.8 4.8 2.8-4.8 2.7z"/><path fill="#d32e2f" d="M1158.5 386.2v148.1l46.7 26.9V440l-46.7-53.8z"/><path fill="#c62828" d="M1263.5 527.5l-58.3 33.7V440l58.3-33.6v121.1z"/><path fill="#e43935" d="M1263.5 406.4l-46.6-53.9-58.4 33.7 46.7 53.8 58.3-33.6z"/><path fill="#2f2829" d="M1219.5 446l35-20.2v53.8l-35 20.2V446z"/><path fill="#e43935" d="M1220.3 506l33.9-19.5v25.7l-33.9 19.5V506z"/><path fill="#fff" d="M1253.6 487.4v24.4l-32.9 18.9v-24.4l32.8-18.9m1.1-1.9l-35 20.2v26.9l35.1-20.1v-27z"/><path fill="#655c5a" d="M807 630.4l31.3 18-11.6 6.7-31.3-18.1 11.6-6.6z"/><path fill="#2f2829" d="M795.4 636.8l22.3 13.1v13.3l-33.9-19.8 11.6-6.6z"/><path fill="#4e4545" d="M838.3 648.4l-.1 58.1-11.5 6.7v-58.1l11.6-6.7z"/><path fill="#655c5a" d="M779.9 645.9l31.3 18-11.6 6.7-31.3-18.1 11.6-6.6z"/><path fill="#2f2829" d="M739.3 635.6l60.3 35v13.3L739.3 649v-13.4z"/><path fill="#2f2829" d="M799.6 670.6v57.7l-10.8-6.3v-57.6l10.8 6.2zm27.1-15.4v58l-10.9-6.2v-58l10.9 6.2z"/><path fill="#4e4545" d="M811.2 663.9v57.7l-11.6 6.7v-57.7l11.6-6.7z"/><path fill="#2e846b" d="M739.3 583.5l65.8-37.7 15.5 8.8-65.6 37.9-15.7-9z"/><path fill="#fcfcfc" d="M779.8 560l-15.7 9 15.9 9.3 15.7-9-15.9-9.3z"/><path fill="#ffcc80" d="M764.1 528.4l47-27.1v49.9l-47 27.1v-49.9z"/><path fill="#5d4037" d="M764.1 528.4l47-27.1v10.8l-47 27.1v-10.8z"/><path fill="#795548" d="M748.5 519.4l15.6 9 47-27.1-15.7-9.1-46.9 27.2z"/><path fill="#ffe0b2" d="M764.1 578.2l-15.6-8.9v-49.9l15.6 9v49.8z"/><path fill="#6d4c41" d="M753.5 572.2l-5-2.9v-49.9l5 2.9v49.9z"/><path fill="#5d4037" d="M769.2 540.1l-5 2.8v-6.8l5-2.8v6.8z"/><path fill="#5d4037" d="M766.4 545.1l-2.2 1.3v-18l2.2-1.3v18z"/><path fill="#6d4c41" d="M764.2 542.9l-15.7-9v-14.5l15.6 9 .1 14.5zm-6.4 18l-9.3-5.4v-9.7l9.2 5.3.1 9.8z"/><path fill="#795548" d="M748.5 533.1v-13.7"/><path fill="#6d4c41" d="M764.1 558.7l-6.3-3.7v-3.8l6.3 3.7v3.8z"/><path fill="#212121" d="M775.3 545.5l-2.4 1.4v-2.7l2.4-1.4v2.7zm2.4-1.3l-2.4 1.3v-2.7l2.4-1.4v2.8zm2.4-1.4l-2.4 1.4v-2.8l2.4-1.4v2.8zm2.4-1.4l-2.4 1.4V540l2.4-1.4v2.8z"/><path fill="#212121" d="M775.3 548.3l-2.4 1.4v-2.8l2.4-1.4v2.8zm4.8-2.8l-2.4 1.4v-2.7l2.4-1.4v2.7z"/><path fill="#fff" d="M780.1 548.3l-2.4 1.4v-2.8l2.4-1.4v2.8zm-2.4-1.4l-2.4 1.4v-2.8l2.4-1.4v2.8z"/><path fill="#212121" d="M782.5 544.2l-2.4 1.3v-2.7l2.4-1.4v2.8zm-7.2 6.9l-2.4 1.3v-2.7l2.4-1.4v2.8zm2.4-1.4l-2.4 1.4v-2.8l2.4-1.4v2.8z"/><path fill="#212121" d="M782.5 546.9l-2.4 1.4v-2.8l2.4-1.4v2.8zm13.2-13l-2.4 1.4v-2.8l2.4-1.4v2.8zm2.4-1.4l-2.4 1.4v-2.8l2.4-1.4v2.8zm2.4-1.4l-2.4 1.4v-2.8l2.4-1.3v2.7zm2.4-1.4l-2.4 1.4v-2.7l2.4-1.4v2.7z"/><path fill="#212121" d="M795.7 536.7l-2.4 1.3v-2.7l2.4-1.4v2.8zm4.8-2.8l-2.4 1.4v-2.8l2.4-1.4v2.8zm2.4-1.4l-2.4 1.4v-2.8l2.4-1.4v2.8z"/><path fill="#212121" d="M795.7 539.4l-2.4 1.4V538l2.4-1.4v2.8zm2.4-1.4l-2.4 1.4v-2.8l2.4-1.3v2.7z"/><path fill="#fff" d="M800.5 536.7l-2.4 1.3v-2.7l2.4-1.4v2.8zm-2.4-1.4l-2.4 1.3v-2.7l2.4-1.4v2.8z"/><path fill="#212121" d="M802.9 535.3l-2.4 1.3v-2.7l2.4-1.4v2.8z"/><path fill="#fff" d="M782.5 555.5v3.3l2.1-1.3v3.3l6.7-3.9v-3.2l2.1-1.3v-3.2l-10.9 6.3z"/><path fill="#1e5e4d" d="M811.1 627.8l-47 27.1.1-67.8 47-27.1-.1 67.8z"/><path fill="#f8f8f7" d="M779.8 645.9l15.6-9.1v-67.7l-15.6 9v67.8z"/><path fill="#27725d" d="M739.3 583.5v61.4l9.5 5.6-.3-61.7-9.2-5.3z"/><path fill="#ffe0b2" d="M755 653.5l-.1 6.6-9.3-5.4v-6.6l9.4 5.4z"/><path fill="#27725d" d="M755 592.5l-.1 61.5-9.3-5.4v-61.5l9.4 5.4z"/><path fill="#ffcc80" d="M764.3 648v6.7l-9.4 5.4.1-6.6 9.3-5.5zm56.3-32.2l-.1 6.6-9.3 5.4v-6.6l9.4-5.4z"/><path fill="#1e5e4d" d="M764.3 587.1v61.5l-9.4 5.4.1-61.5 9.3-5.4z"/><path fill="#1e5e4d" d="M764.3 587.1v61.5l-9.4 5.4.1-61.5 9.3-5.4zm56.3-32.5l-.1 61.5-9.3 5.4V560l9.4-5.4z"/><path fill="#655c5a" d="M811.2 735v3.9l-22.4-13.1v-3.9l22.4 13.1z"/><path fill="#4e4545" d="M811.2 739v3.9l-22.4-13.2v-3.9l22.4 13.2zm11.6-10.7v3.9l-11.6 6.7V735l11.6-6.7z"/><path fill="#2f2829" d="M822.8 732.2v3.9l-11.6 6.8v-4l11.6-6.7z"/><path fill="#9e9e9e" d="M811.2 735l-11.6-6.7 11.6-6.7 11.6 6.7-11.6 6.7z"/><path fill="#655c5a" d="M838.2 719.7v3.9l-22.4-13.2v-3.9l22.4 13.2z"/><path fill="#4e4545" d="M838.2 723.6v3.9l-22.4-13.1v-3.9l22.4 13.1z"/><path fill="#4e4545" d="M849.8 713v3.9l-11.6 6.7v-3.9l11.6-6.7z"/><path fill="#2f2829" d="M849.8 716.9v3.9l-11.6 6.7v-3.9l11.6-6.7z"/><path fill="#9e9e9e" d="M838.2 719.7l-11.6-6.7 11.6-6.7 11.6 6.7-11.6 6.7z"/><path fill="#fcfcfc" d="M424.5 666.8l60.5 34.9v69.8l-60.5-34.9v-69.8z"/><path fill="#e43935" d="M424.5 666.8l60.5 34.9v20.9l-60.5-34.9v-20.9z"/><path fill="#f14336" d="M485 701.7l-60.5-34.9 2.6-1.4 60.4 34.9-2.5 1.4z"/><path fill="#d32e2f" d="M487.5 721.2l-2.5 1.4v-20.9l2.5-1.4v20.9z"/><path fill="#f8f8f7" d="M487.5 770.1l-2.5 1.4v-48.9l2.5-1.4v48.9z"/><path fill="#212121" d="M434.7 703.8a1.5 1.5 0 0 1-.3 1 1.2 1.2 0 0 1-.8.4 4.2 4.2 0 0 1 .9 1.4 4.1 4.1 0 0 1 .3 1.6c0 .8-.2 1.3-.7 1.5a2.3 2.3 0 0 1-2-.4 6.1 6.1 0 0 1-2-1.9 4.4 4.4 0 0 1-.7-2.4 2.1 2.1 0 0 1 .3-1.2 1.2 1.2 0 0 1 .9-.3l-.8-1.3a3.9 3.9 0 0 1-.3-1.4 1.6 1.6 0 0 1 .7-1.5 2.1 2.1 0 0 1 1.9.4 5.2 5.2 0 0 1 1.9 1.7 5.5 5.5 0 0 1 .7 2.4zm-1.5 3.3a2.7 2.7 0 0 0-.3-1.2 3 3 0 0 0-.8-.8.8.8 0 0 0-.8-.1c-.2.1-.3.4-.3.8a2 2 0 0 0 .3 1.1 2.4 2.4 0 0 0 .8.9c.4.2.6.2.8.1s.3-.4.3-.8zm-.1-4.2a1.9 1.9 0 0 0-.3-1 1.6 1.6 0 0 0-.7-.7.6.6 0 0 0-.7-.1c-.2.1-.3.3-.3.7a2.3 2.3 0 0 0 .3 1.1 2.3 2.3 0 0 0 .7.7.6.6 0 0 0 .7.1 1 1 0 0 0 .3-.8zm8.1 4.6a1.8 1.8 0 0 1-.3 1.1 1 1 0 0 1-.8.3 6 6 0 0 1 .9 1.5 2.8 2.8 0 0 1 .4 1.5c0 .9-.3 1.4-.7 1.6a2.7 2.7 0 0 1-2-.4 6.5 6.5 0 0 1-2.1-1.9 5.5 5.5 0 0 1-.7-2.4 1.6 1.6 0 0 1 .4-1.2.9.9 0 0 1 .9-.3 3.9 3.9 0 0 1-.8-1.4 3.1 3.1 0 0 1-.3-1.3c0-.8.2-1.3.7-1.5a2.1 2.1 0 0 1 1.8.3 5.5 5.5 0 0 1 1.9 1.8 4.1 4.1 0 0 1 .7 2.3zm-1.4 3.4a2.7 2.7 0 0 0-.3-1.2 2.4 2.4 0 0 0-.9-.8c-.3-.2-.6-.3-.8-.1s-.3.4-.3.8a2 2 0 0 0 .3 1.1 2 2 0 0 0 .9.9.8.8 0 0 0 .8.1c.2-.1.3-.4.3-.8zm-.2-4.2a3 3 0 0 0-.2-1 2 2 0 0 0-.8-.8c-.3-.1-.5-.2-.7 0a1 1 0 0 0-.2.7 3 3 0 0 0 .2 1 1.6 1.6 0 0 0 .8.8.6.6 0 0 0 .7.1 1.5 1.5 0 0 0 .2-.8z"/><path fill="#fff" d="M449.6 695.5a4.2 4.2 0 0 0 .6 2.1v1.3a1.4 1.4 0 0 0 .7 1.1l.6.4c.4.2.7 0 .7-.4v-.7l5.2 3v.7a1.3 1.3 0 0 0 .6 1.1l.7.4c.3.2.6 0 .6-.4v-1.3c.4-.2.6-.6.6-1.3V694c0-2.6-2.3-4.3-5.1-6s-5.2-2.6-5.2 0zm2.2 2.1a2.2 2.2 0 0 1-.9-1.7c0-.6.4-.9.9-.6a2.1 2.1 0 0 1 1 1.7c0 .6-.4.9-1 .6zm5.9 3.4a2.2 2.2 0 0 1-1-1.7c0-.7.4-.9 1-.6a2.3 2.3 0 0 1 1 1.7.6.6 0 0 1-1 .6zm1-4l-7.8-4.5v-3.7l7.8 4.5z"/><path fill="#307621" d="M1089.9 426v148.1l46.6 27V479.9l-46.6-53.9z"/><path fill="#2e7d32" d="M1194.8 567.4l-58.3 33.7V479.9l58.3-33.7v121.2z"/><path fill="#3c8d24" d="M1194.8 446.2l-46.6-53.8-58.3 33.6 46.6 53.9 58.3-33.7z"/><path fill="#2f2829" d="M1148.2 486.6l34.9-20.2v53.9l-34.9 20.2v-53.9z"/><path fill="#48a12f" d="M1148.7 547.6l33.9-19.6v25.7l-33.9 19.6v-25.7z"/><path fill="#fff" d="M1182 529v24.4l-32.9 18.9v-24.4L1182 529m1.1-1.9l-35 20.2v26.9l35.1-20.2v-26.9z"/><path fill="#fcfcfc" d="M1155.6 551.1v.6a3.2 3.2 0 0 1 1.3-1.5c.7-.4 1.1-.3 1.3.1a3.4 3.4 0 0 1 1.4-1.7 1.1 1.1 0 0 1 1.2-.1 1.8 1.8 0 0 1 .4 1.3v3.5l-1.3.8v-3.5c0-.4-.1-.6-.2-.6s-.3-.1-.5.1a1.4 1.4 0 0 0-.8 1v3.8l-1.3.7v-3.4c0-.4 0-.6-.1-.6s-.3-.1-.6.1a1.8 1.8 0 0 0-.8.9v3.9l-1.2.7v-5.4zm8.8.5c-.7.4-1.2.5-1.7.2s-.6-.7-.6-1.6a8.8 8.8 0 0 1 .2-1.6 5.3 5.3 0 0 1 .8-1.5 3.8 3.8 0 0 1 1.2-1 1.4 1.4 0 0 1 1.5-.2 1.9 1.9 0 0 1 .6 1.7v.6l-3.1 1.8a.9.9 0 0 0 .4.6 1.2 1.2 0 0 0 .8-.1 2.4 2.4 0 0 0 1.1-1.3l.7.4a3.6 3.6 0 0 1-.8 1.2 3.1 3.1 0 0 1-1.1.8zm-.1-4.4a.9.9 0 0 0-.6.6 1.9 1.9 0 0 0-.3 1l1.7-1a.8.8 0 0 0-.2-.6.5.5 0 0 0-.6 0zm4.3-4.9v1.3l.8-.5v1.1l-.8.5v2.7c0 .2 0 .3.1.4h.4l.4-.3v1.2l-.8.5c-.9.5-1.3.3-1.4-.7v-3l-.7.4v-1.1l.7-.4V543zm4.2.3l-.5.2a1.6 1.6 0 0 0-.9 1.1v3.6l-1.3.7v-5.5l1.2-.7v.7a3.3 3.3 0 0 1 1.1-1.4l.4-.2zm.2 1.1a5 5 0 0 1 .3-1.6 3.9 3.9 0 0 1 .8-1.4 4.3 4.3 0 0 1 1.2-1.1 1.7 1.7 0 0 1 1.5-.2 1.6 1.6 0 0 1 .7 1.5v.3a4.8 4.8 0 0 1-.6 2.4 3.8 3.8 0 0 1-1.6 1.7c-.7.4-1.3.5-1.7.2a1.9 1.9 0 0 1-.6-1.7zm1.3-.6c0 .5.1.9.3 1s.4.2.7 0 .5-.4.7-.8a2.9 2.9 0 0 0 .3-1.4 1.6 1.6 0 0 0-.3-1.1c-.2-.2-.4-.2-.7 0a1.6 1.6 0 0 0-.7.9 2.6 2.6 0 0 0-.3 1.4zm-20.5 18.5l-.8.5v2.5l-.5.4v-2.6l-.9.4v-.5l2.2-1.2zm2.6 1.1l-.6.3v-1.3l-1.1.6v1.4l-.5.3v-3.1l.5-.3v1.2l1.1-.6v-1.3l.6-.3zm2.1-2.5l-1.1.6v.8l1.3-.7v.5l-1.9 1v-3.1l1.9-1v.5l-1.3.7v.8l1.1-.6zm1.4.5v-3.1l1-.6c.3-.2.5-.3.7-.2s.3.2.3.5-.1.3-.1.4l-.3.5a.2.2 0 0 1 .3 0c.1.1.1.2.1.4a1.9 1.9 0 0 1-.2.8 2.3 2.3 0 0 1-.7.7zm.6-2.2l.4-.2a.7.7 0 0 0 .4-.6c0-.2 0-.3-.1-.3h-.3l-.4.2zm0 .5v.8l.5-.2.3-.3c0-.1.1-.3.1-.4s-.2-.4-.4-.2zm3.5-2l-1.1.6v.8l1.3-.7v.5l-1.9 1.1v-3.1l1.9-1.1v.5l-1.3.7v.8l1.1-.6zm1.9-.6a.3.3 0 0 0-.1-.2h-.9c-.3 0-.4-.2-.4-.5a1.3 1.3 0 0 1 .1-.6l.3-.5.5-.4.6-.2.3.2c.1.1.1.2.1.4l-.5.3a.3.3 0 0 0-.1-.2h-.4l-.3.3a.4.4 0 0 0-.1.3.3.3 0 0 0 .1.2h.4a.8.8 0 0 1 .7 0c.2.1.2.2.2.5a2.4 2.4 0 0 1-.2.8l-.7.6-.6.2h-.4a.7.7 0 0 1-.1-.5l.5-.3c0 .3.2.4.6.2l.3-.3c0-.1.1-.2.1-.3zm2.9-3.5l-.8.5v2.6l-.5.3v-2.6l-.9.5v-.5l2.2-1.3zm3.4.7l-.6.3-1-1.4v2l-.6.3v-3.1l.6-.3 1 1.4v-2l.6-.3zm2.1-2.6l-1.1.6v.9l1.3-.8v.6l-1.8 1v-3.1l1.8-1.1v.6l-1.3.7v.7l1.1-.6zm2.6-1l.4-2.5.5-.3-.6 3.5-.5.3-.5-1.8-.4 2.3-.6.3-.6-2.7.6-.4.4 2 .4-2.4.5-.3zm2.6-1.5c0-.1 0-.2-.1-.2h-.8a.5.5 0 0 1-.5-.5.7.7 0 0 1 .1-.5l.4-.6.5-.4h.9c0 .1.1.2.1.4l-.6.4c0-.2 0-.3-.1-.3h-.3c-.2 0-.3.1-.3.2a.6.6 0 0 0-.1.4c0 .1 0 .1.1.1h.4a.8.8 0 0 1 .7 0 .8.8 0 0 1 .2.5 1.3 1.3 0 0 1-.3.8c-.2.2-.4.5-.7.6a.7.7 0 0 1-.6.2h-.3a.8.8 0 0 1-.2-.5l.6-.3c0 .4.1.4.5.2l.3-.2a.8.8 0 0 0 .1-.3zm54.1-39.1c0-.3-.1-.5-.3-.5h-.9l-1.1.2a1.1 1.1 0 0 1-1.1-1.2 3.5 3.5 0 0 1 .3-1.3l.8-1.2 1.3-1a2.8 2.8 0 0 1 1.2-.4.9.9 0 0 1 .8.4 1.3 1.3 0 0 1 .3 1l-1.3.7a.6.6 0 0 0-.3-.6c-.2-.1-.4 0-.8.2l-.7.6a1.6 1.6 0 0 0-.3.8c0 .3.1.4.3.4a1.7 1.7 0 0 0 1 0 2.1 2.1 0 0 1 1.6 0 1.2 1.2 0 0 1 .5 1.1 3.3 3.3 0 0 1-.6 1.9 5 5 0 0 1-1.7 1.5 4.3 4.3 0 0 1-1.3.5 1.3 1.3 0 0 1-1-.4 1.3 1.3 0 0 1-.3-1l1.3-.8c0 .8.5 1 1.3.5a2.2 2.2 0 0 0 .7-.6 1.3 1.3 0 0 0 .3-.8zm5-1.5a3.5 3.5 0 0 1-1.3 1.4c-.5.3-.9.4-1.2.2s-.4-.6-.4-1.3v-3.6l1.3-.7v3.6c0 .5.2.7.6.4a1.5 1.5 0 0 0 .9-1V503l1.3-.7v5.5l-1.2.6zm3.3-6.8v.6a4.4 4.4 0 0 1 1.4-1.6c.5-.3.9-.3 1.1-.1s.4.6.4 1.3v3.6l-1.3.7v-3.5c0-.3 0-.5-.1-.6s-.3 0-.6.1a2 2 0 0 0-.8 1v3.9l-1.3.7v-5.5zm-13.4 18.9l-.4.2v1l-.4.2.2-1-.5.2v-.3l.5-.3v-.7l-.4.3v-.4l.5-.3v-.9l.3-.2v.9l.4-.2v-.9l.3-.2v.9l.4-.2v.4l-.5.2v.7l.5-.2v.3l-.5.3v1l-.4.2zm-.3-.2l.3-.2v-.7l-.4.2zm2.8-.4l-.6.3v-2.3l-.6.5v-.5l1.1-1.1h.1zm2.4-1.4l-.5.3v-3.1l.5-.3zm2.7-1.6l-.5.4-1.1-1.5v2.1l-.6.3v-3.1l.6-.3 1.1 1.4v-2.1l.5-.3zm3.7-2.1l-.6.4-1.1-1.5v2.1l-.5.3v-3.1l.5-.3 1.1 1.4v-2l.6-.4zm2.1-2.5l-1.1.6v.8l1.3-.7v.5l-1.8 1.1v-3.2l1.8-1v.5l-1.3.7v.8l1.1-.6zm2.6-1.1l.3-2.4.6-.3-.6 3.4-.6.4-.4-1.9-.4 2.4-.6.3-.6-2.8.6-.3.3 2 .5-2.5.4-.2zm2.6-1.4c0-.1 0-.2-.1-.2h-.9c-.3-.1-.4-.2-.4-.6a1.1 1.1 0 0 1 .1-.5l.4-.5a1 1 0 0 1 .5-.4l.5-.2.3.2a.5.5 0 0 1 .2.4l-.6.3a.4.4 0 0 0-.1-.3h-.3l-.4.3c0 .1-.1.2-.1.3a.2.2 0 0 0 .2.2h.4q.5-.2.6 0a.5.5 0 0 1 .3.5 1.6 1.6 0 0 1-.3.8l-.7.6-.6.2h-.4a.7.7 0 0 1-.1-.5l.5-.3c0 .3.2.4.6.2l.3-.3a.4.4 0 0 0 .1-.2z"/><path fill="#fff" d="M1106.5 467.1v1.6c.9-.7 2-.6 3.4.2a6.9 6.9 0 0 1 3.2 3.9c.8-.9 2-.9 3.5 0a6.8 6.8 0 0 1 2.9 2.9 10.3 10.3 0 0 1 1 4.5v8.7l-3.2-1.8v-8.8a3.8 3.8 0 0 0-.4-1.9 3 3 0 0 0-1.4-1.3c-1-.6-1.6-.4-2 .4v9.4l-3.1-1.8v-8.7a5.4 5.4 0 0 0-.4-2 3.5 3.5 0 0 0-1.4-1.3c-.9-.6-1.6-.5-2 .1v9.7l-3.1-1.8v-13.7zm6.2 39.5a11.8 11.8 0 0 1-5.9-10.1v-.4a6.7 6.7 0 0 1 .7-3.3 2.3 2.3 0 0 1 1.9-1.3 4.8 4.8 0 0 1 2.9.7 11.5 11.5 0 0 1 3.9 4 12.8 12.8 0 0 1 1.3 5.9v1.5l-7.5-4.4a7.2 7.2 0 0 0 .9 2.7 5.2 5.2 0 0 0 2 1.9c1.2.7 2.2.8 2.8.1l1.6 3a2.5 2.5 0 0 1-1.9.7 6.9 6.9 0 0 1-2.7-1zm-.4-11.4a1.4 1.4 0 0 0-1.5-.2 2.5 2.5 0 0 0-.8 1.7l4.4 2.6v-.3a4.8 4.8 0 0 0-.5-2.2 4.1 4.1 0 0 0-1.6-1.6zm1 16.5v3.4l2 1.2v2.6l-2-1.1v6.8a3.7 3.7 0 0 0 .2 1.2 3 3 0 0 0 1 .9l.9.5v2.7a8.9 8.9 0 0 1-1.9-.7 6.7 6.7 0 0 1-3.4-5.9v-7.4l-1.7-1v-2.6l1.7 1v-3.4zm2.6 30.3l-1.2-.7c-1.2-.7-2-.7-2.3 0v9l-3.2-1.9v-13.7l3 1.8v1.7a1.7 1.7 0 0 1 2.6-.4l1 .7zm-9.5 19.9a6.9 6.9 0 0 1 .7-3.2 2.6 2.6 0 0 1 2-1.4 4.6 4.6 0 0 1 2.9.9 11.5 11.5 0 0 1 4 3.9 13.5 13.5 0 0 1 1.7 5.6v1c0 2.1-.5 3.4-1.6 4.1s-2.3.6-4-.4a10.6 10.6 0 0 1-4.1-4.3 12.5 12.5 0 0 1-1.6-6zm3.2 2.1a8.1 8.1 0 0 0 .6 3.3 4.4 4.4 0 0 0 1.9 2.1 1.3 1.3 0 0 0 1.8 0 4.4 4.4 0 0 0 .6-2.8 9 9 0 0 0-.6-3.4 5.5 5.5 0 0 0-1.9-2.1 1.5 1.5 0 0 0-1.8 0 4.8 4.8 0 0 0-.6 2.9z"/><path fill="#4e4545" d="M1183.1 466.4l-1.8 1.1v53.8l1.8-1v-53.9z"/><path fill="#655c5a" d="M1148.2 540.5v-2.4l33.1-19.2 1.8 1.4-34.9 20.2z"/><path fill="#4e4545" d="M1254.5 425.8l-1.9 1v53.9l1.9-1.1v-53.8z"/><path fill="#655c5a" d="M1219.5 499.8v-2.4l33.1-19.1 1.9 1.3-35 20.2z"/><path fill="#212121" d="M745.7 648.8l-.1-3.5 9.3 5.2.1 3.5-9.3-5.2z"/><path fill="#212121" d="M754.9 654v-3.5l9.4-5.3v3.4l-9.4 5.4z"/><path fill="#212121" d="M758.1 652.3c-1 0-1-1.1-1-1.5a5.9 5.9 0 0 1 2.6-4.6 3 3 0 0 1 1.1-.4c1 0 1 1.2 1 1.6a5.9 5.9 0 0 1-2.6 4.6z"/><path fill="#212121" d="M760.8 646.4c.4 0 .5.6.5 1a5.2 5.2 0 0 1-2.4 4.1l-.8.3c-.4 0-.5-.6-.5-1a5.6 5.6 0 0 1 2.4-4.2l.8-.2m0-1.1a2.7 2.7 0 0 0-1.4.4 6.4 6.4 0 0 0-2.9 5.1c0 1.3.7 2.1 1.6 2.1a2.2 2.2 0 0 0 1.3-.4 6.3 6.3 0 0 0 3-5.1c0-1.3-.7-2.1-1.6-2.1z"/><path fill="#212121" d="M762.7 646.2l-1.4-.8-4 7.3 1.3.7 4.1-7.2z"/><path fill="#fff" d="M759.2 653c-1 0-1.1-1.2-1.1-1.5a6.4 6.4 0 0 1 2.7-4.7 2.3 2.3 0 0 1 1.1-.3c1 0 1 1.2 1 1.6a6.1 6.1 0 0 1-2.6 4.6z"/><path fill="#212121" d="M761.9 647.1c.4 0 .5.6.5 1a5.4 5.4 0 0 1-2.4 4.1l-.8.3c-.4 0-.5-.7-.5-1a5.4 5.4 0 0 1 2.4-4.2 1.2 1.2 0 0 1 .8-.2m0-1.1a2.7 2.7 0 0 0-1.4.4 6.4 6.4 0 0 0-2.9 5.1c0 1.3.7 2.1 1.6 2.1a3.3 3.3 0 0 0 1.3-.4 6.6 6.6 0 0 0 3-5.1c0-1.4-.7-2.1-1.6-2.1z"/><path fill="#6d4c41" d="M1008 305.5l18.6-61 3.3 12.3-21.9 48.7z"/><path fill="#5d4037" d="M1023 428.9l27-15.7-8.3-82.5 8.6-43.2 64.3-42.5 7.3-74.5-13.5 8.8-7.4 61.5-47.6 29.4 19.1-90.9h-15.2l-31.5 151.4-2.8 98.2zm-36.5-224.3l-8 55.6 29.5 45.3 6.6-21.1-23.3-29.4 8.8-58.2-13.6 7.8z"/><path fill="#6d4c41" d="M1023 428.9l-22.6-13.1 8.5-85.1-45.8-68.3 11.7-80.6 11.7 22.8-8 55.6 29.5 45.3 4.1-13.3 13.2-43.1 22.3-73.3 9.7 3.5-31.5 151.4-2.8 98.2zm85.4-249.6l-13.7-3.5-7.4 62.8-30.7 16.4-3.2 15.2 47.6-29.4 7.4-61.5z"/><path fill="#81c784" d="M932.2 62.5L1040.4 0l-36.5 89.3-71.7-26.8z"/><path fill="#3c8d24" d="M1040.4 0l94.6 31.8-58.2 53.4-72.9 4.1L1040.4 0z"/><path fill="#307621" d="M1167.1 119.3L1135 31.8l-58.2 53.4v72.6l73.8 17.9 16.5-56.4z"/><path fill="#65b668" d="M932.2 62.5l-5 113.3 47.6-5.3 29.1-81.2-71.7-26.8z"/><path fill="#48a12f" d="M1076.8 85.2l-72.9 4.1-29.1 81.2 102-12.7V85.2z"/><path fill="#307621" d="M1038.8 240.2l38-82.4-102 12.7-47.6 5.3 111.6 64.4z"/><path fill="#2e7d32" d="M1150.6 175.7l-111.8 64.5 38-82.4 73.8 17.9z"/><path fill="#5d4037" d="M234.1 883.9l27-15.7-8.4-82.5 8.7-43.2 64.3-42.5 7.3-74.5-13.5 8.8-7.5 61.5-47.5 29.4 19-90.9h-15.1l-31.6 151.4-2.7 98.2zm-36.5-224.3l-8 55.6 29.5 45.3 6.6-21.1-23.3-29.4 8.8-58.2-13.6 7.8z"/><path fill="#6d4c41" d="M234.1 883.9l-22.7-13.1 8.6-85.1-45.8-68.3 11.6-80.6 11.8 22.8-8 55.6 29.5 45.3 39.6-129.7 9.7 3.5-31.6 151.4-2.7 98.2zm85.4-249.6l-13.8-3.5-7.3 62.8-30.8 16.4-3.1 15.2 47.5-29.4 7.5-61.5z"/><path fill="#81c784" d="M143.2 517.5L251.5 455 215 544.3l-71.8-26.8z"/><path fill="#3c8d24" d="M251.5 455l94.6 31.8-58.3 53.4-72.8 4.1 36.5-89.3z"/><path fill="#307621" d="M378.2 574.3l-32.1-87.5-58.3 53.4v72.6l73.8 17.9 16.6-56.4z"/><path fill="#65b668" d="M143.2 517.5l-4.9 113.3 47.5-5.3 29.2-81.2-71.8-26.8z"/><path fill="#48a12f" d="M287.8 540.2l-72.8 4.1-29.2 81.2 102-12.7v-72.6z"/><path fill="#307621" d="M249.9 695.2l37.9-82.4-102 12.7-47.5 5.3 111.6 64.4z"/><path fill="#2e7d32" d="M361.6 630.7l-111.7 64.5 37.9-82.4 73.8 17.9z"/><path fill="#655c5a" d="M1013.4 244.9l-9.9-5.7v2.2l7.1 5.9 2.8-2.4z"/><path fill="#655c5a" d="M1009.8 245.4l-8.4-5.3 1.8 4.3 3 1.7 3.6-.7z"/><path fill="#4e4545" d="M981.3 275.9l7.1 3.6v5l-7.1-3.6v-5z"/><path fill="#655c5a" d="M992.9 277l-6.9-3.2-4.7 2.1 7.1 3.6z"/><path fill="#2f2829" d="M1000.8 268.8l-3.4 10.8-9 4.8v-4.9l4.5-2.6v-3.1l-2.1-3.9m15.6-24l.6 9.3 4.2 10.8.7 9.6 1.9 4.4 9.1-6.1v-17.4l-10.1-9.3.6-2.2-2.8 2.3-.8-1.9-3.4.5z"/><path fill="#212121" d="M1003.4 244.2l3 1.7.6 9.3 4.2 10.8.7 9.6 1.9 4.4-5.2-3-7.1-31.6 1.9-1.2z"/><path fill="#4e4545" d="M996.4 279.6v-9.2l4.5-2.7 4.6 13.6-2.3 1.4-6.8-3.1zm-4.9 1.8l7.2 3.6v5l-7.2-3.6v-5zm-5.5-7.6v-7.1l-2.7-6.6v-6.5l9.6 5.2V277l-6.9-3.2z"/><path fill="#655c5a" d="M1003.2 282.7l-6.8-3.1-4.8 2.1 7.1 3.6z"/><path fill="#2f2829" d="M999.3 259.2l-4.1-2.1 8.4-4 7.6 12.9v8.6l-3.4 10.8-9.1 4.8v-4.9l4.5-2.6v-3.2l-2-3.9v-4l-1.9-2.9"/><path fill="#4e4545" d="M976.5 251.8l4.1 2.3v7.7l-4.1-2.3v-7.7z"/><path fill="#2f2829" d="M977.8 263.4v3.3l5.5-3.2v-11.1l-2.8 1.7v7.7l-2.7 1.6z"/><path fill="#655c5a" d="M976.5 259.4l-2.9 1.6 4.2 2.4 2.8-1.6-4.1-2.4zm3-9.2l-3 1.6 4.1 2.3 2.7-1.7-3.8-2.2z"/><path fill="#4e4545" d="M977.8 266.7l-4.2-2.5V261l4.2 2.4v3.3zm14.8-8.7l4.1 2.3v7.7l-4.1-2.3V258z"/><path fill="#2f2829" d="M993.9 269.6v3.3l5.5-3.2v-11.1l-2.7 1.7v7.7l-2.8 1.6z"/><path fill="#655c5a" d="M992.6 265.7l-2.9 1.5 4.3 2.4 2.7-1.6-4.1-2.3zm.4-6.7l-10.7-6 1-.6 9.7 5.6v1z"/><path fill="#655c5a" d="M995.6 256.5l-3 1.5 4.1 2.3 2.7-1.7-3.8-2.1z"/><path fill="#4e4545" d="M994.3 272.8l-4.3-2.4v-3.3l4.3 2.4v3.3z"/><path fill="#fff" d="M985 254.5l3.3 7.7 4.3-3.5-7.6-4.2z"/><path fill="#4e4545" d="M977.5 249.1l17.6 10.1V243l-17.6-10.1v16.2z"/><path fill="#2f2829" d="M995.1 259.2l8.4-4.8v-16.2l-8.4 4.8v16.2z"/><path fill="#655c5a" d="M977.5 232.9l17.6 10.1 8.4-4.8-17.6-10.1-8.4 4.8zm3.1 12.5l3-1.5 6 3.5-2.8 1.6-6.2-3.6z"/><path fill="#2f2829" d="M989.6 253.1a54.2 54.2 0 0 0 0-5.7l-2.8 1.6v5.9z"/><path fill="#4e4545" d="M980.6 245.4l6.2 3.6v5.9l-6.2-3.4v-6.1z"/><path fill="#2f2829" d="M983.3 212.9a14.3 14.3 0 0 0 2-.5s3 3.7 2.7 6.3a86.6 86.6 0 0 1-1.9 14.5l-1.2.6-1.6-20.9"/><path fill="#4e4545" d="M983.3 212.9a7.4 7.4 0 0 0-2.7 2.5c-.9 1.6-.4 8.1 1.9 17.1l2.4 1.3s2.4-12.7 1.1-16.3c0 0-1.3-4-2.7-4.6z"/><path fill="#2f2829" d="M995.3 219.2a14.3 14.3 0 0 0 2-.5s3 3.7 2.7 6.3a81.9 81.9 0 0 1-2 14.5l-1.1.6-1.6-20.9"/><path fill="#4e4545" d="M995.3 219.2a7.4 7.4 0 0 0-2.7 2.5c-.9 1.6-.5 8.1 1.9 17l2.4 1.4s2.4-12.7 1.1-16.3c0 0-1.3-4-2.7-4.6z"/><path fill="#212121" d="M982.9 246.7l.8 2 1.3-.8-2.1-1.2zm-1.7-7.9l-.8-.5v-.9l.8.5v.9zm.8.5l-.8-.5v-.9l.8.4v1zm.8.4l-.8-.4v-1l.8.5v.9zm.8.5l-.8-.5v-.9l.8.5v.9z"/><path fill="#212121" d="M981.2 239.7l-.8-.4v-1l.8.5v.9zm1.6 1l-.8-.5v-.9l.8.4v1z"/><path fill="#fff" d="M982.8 241.6l-.8-.5v-.9l.8.5v.9zm-.8-1.4l-.8-.5v-.9l.8.5v.9z"/><path fill="#212121" d="M983.6 241.1l-.8-.4v-1l.8.5v.9zm-2.4-.4l-.8-.5v-.9l.8.4v1zm.8.4l-.8-.4v-1l.8.5v.9z"/><path fill="#212121" d="M983.6 242.1l-.8-.5v-.9l.8.4v1zm5 .7l-.8-.5v-.9l.8.4v1zm.8.4l-.8-.4v-1l.8.5v.9zm.8.5l-.8-.5v-.9l.8.5v.9zm.8.5l-.8-.5v-.9l.8.4v1z"/><path fill="#212121" d="M988.6 243.7l-.8-.5v-.9l.8.5v.9zm1.6.9l-.8-.4v-1l.8.5v.9z"/><path fill="#fff" d="M990.2 245.6l-.8-.5v-.9l.8.4v1zm-.8-1.4l-.8-.5v-.9l.8.4v1z"/><path fill="#212121" d="M991 245.1l-.8-.5v-.9l.8.5v.9zm-2.4-.5l-.8-.4v-1l.8.5v.9zm.8.5l-.8-.5v-.9l.8.5v.9z"/><path fill="#212121" d="M991 246l-.8-.4v-1l.8.5v.9z"/><path fill="#6d4c41" d="M1037.1 263l-12.5-11.8-12.7 42.2 25.2-30.4z"/><path fill="#9e9e9e" d="M216.6 733.2l-3.9 2.2 3.4 1.9 3.8-2.1-3.3-2z"/><path fill="#655c5a" d="M212.5 743.8l-7-3.9 3.9-6.9 5.7 5.7-2.6 5.1z"/><path fill="#4e4545" d="M211.7 732.7l-4-7.7 6.7-16.2h7l-9.7 23.9z"/><path fill="#4e4545" d="M219.5 714.3l1.4-4.1-5 3.2-6.2 17.7v7.1l2.8 5.6 7.4-4.6v-4l-3.7 2.1v-2.6l1.7-5.1v-3.3l1.6-4.2"/><path fill="#9e9e9e" d="M217.9 716.1l-2.4 1.2 3.5 2 2.2-1.3-3.3-1.9z"/><path fill="#4e4545" d="M200.3 707.2l3.3 1.8v9.1l-3.3-1.9v-9z"/><path fill="#2f2829" d="M205.8 716.7v-9l-2.2 1.3v9.1"/><path fill="#655c5a" d="M202.7 705.9l-2.4 1.3 3.3 1.8 2.2-1.4-3.1-1.7zm10.7 6.3l3.3 1.9v9.2l-3.3-1.9v-9.2z"/><path fill="#2f2829" d="M216.7 723.3l2.3-1.5v-9.1l-2.3 1.4v9"/><path fill="#655c5a" d="M213.8 713l-8.8-4.9.8-.4 8 4.5v.8z"/><path fill="#9e9e9e" d="M215.8 711l-2.4 1.2 3.3 1.9 2.3-1.4-3.2-1.7z"/><path fill="#fff" d="M207.2 709.4l2.6 6.3 3.6-2.9-6.2-3.4z"/><path fill="#655c5a" d="M201.1 704.9l14.3 8.3V700l-14.3-8.3v13.2z"/><path fill="#4e4545" d="M215.4 713.2l6.9-3.9V696l-6.9 4v13.2z"/><path fill="#9e9e9e" d="M201.1 691.7l14.3 8.3 6.9-3.9-14.3-8.3-6.9 3.9z"/><path fill="#4e4545" d="M205.8 675.4l1.7-.5s2.4 3.1 2.2 5.2a65.8 65.8 0 0 1-1.7 11.8l-.9.6-1.3-17.1"/><path fill="#655c5a" d="M205.8 675.4a5.6 5.6 0 0 0-2.2 2c-.7 1.3-.4 6.6 1.6 13.9l1.9 1.2s2-10.4.9-13.4c0 0-1-3.3-2.2-3.7z"/><path fill="#4e4545" d="M215.6 680.5l1.7-.4s2.4 3.1 2.2 5.2a79.6 79.6 0 0 1-1.7 11.8l-.9.5-1.3-17.1"/><path fill="#655c5a" d="M215.6 680.5a5.4 5.4 0 0 0-2.2 2.1c-.7 1.3-.4 6.6 1.6 13.9l1.9 1.1s2-10.4.9-13.3c0 0-1.1-3.3-2.2-3.8z"/><path fill="#212121" d="M207.2 704l-1.7-1"/><path fill="#4e4545" d="M213.9 710.2l-.5 8.2-3.4 12.8-.6 8.4-1.6 5.5-7.4 3.6v-14.3l8.3-17.1-.5-1.3 2.3-.7.6-2.3 2.8-2.8z"/><path fill="#2f2829" d="M203 703.6l-.5 8.2-3.4 12.7-.5 8.4-1.6 5.5-7.4 3.6v-14.2l8.2-17.2-.5-1.2 2.3-.7.6-2.3 2.8-2.8z"/><path fill="#9e9e9e" d="M213.9 710.2l-10.9-6.6-2.8 2.8 10.9 6.6 2.8-2.8z"/><path fill="#655c5a" d="M210.5 715.3l-10.9-6.6.6-2.3 10.9 6.6-.6 2.3z"/><path fill="#9e9e9e" d="M208.2 716l-10.9-6.6 2.3-.7 10.9 6.6-2.3.7z"/><path fill="#655c5a" d="M208.7 717.3l-10.9-6.7-.5-1.2 10.9 6.6.5 1.3z"/><path fill="#9e9e9e" d="M200.4 734.4l-10.8-6.6 8.2-17.2 10.9 6.7-8.3 17.1z"/><path fill="#655c5a" d="M200.4 748.7l-10.8-6.7v-14.2l10.8 6.6v14.3z"/><path fill="#4e4545" d="M221.2 717.9v2.7l-4.5 2.7v-9.2l2.3-1.4v6.5l2.2-1.3z"/><path fill="#e43935" d="M292.4 882.7s9.9 16.4 0 22.1 0-22.1 0-22.1"/><path fill="#92cd43" d="M295.3 933.2l-2-1.1v-46.3l2 1.1v46.3z"/><path fill="#7ec028" d="M297.2 932.1l-1.9 1.1v-46.3l1.9-1.1v46.3z"/><path fill="#e43935" d="M292.4 882.7s-9.8-16.4 0-22.1 0 22.1 0 22.1m0 0s10.3-24.7 15.7-21.5a2 2 0 0 1 .8.8c5 7-16.5 20.7-16.5 20.7m-.1.1s12.5-7 16.3-4.7c1.3.7 1.6 2.4.5 5.4-4.6 12.7-16.8-.7-16.8-.7m0 0s-11.5-14.3-16.5-1.6c-1.3 3.1-.9 4.8.4 5.6 3.9 2.3 16.1-4 16.1-4"/><path fill="#e43935" d="M292.4 882.7s-21.5 12.8-16.8 20.1a3 3 0 0 0 .9 1c5.2 3.1 15.9-21.1 15.9-21.1"/><path fill="#e43935" d="M292.4 904.8c-1.4.8-2.4.9-3.1.5-4-2.4 3.1-22.6 3.1-22.6"/><path fill="#e43935" d="M291.7 906.8l-2.4-1.5.3-4.6 4.2.4-2.1 5.7z"/><path fill="#ef5350" d="M294.9 884.2s9.9 16.4 0 22.1 0-22.1 0-22.1m0 22.1c-1.4.8-2.5.9-3.2.5-4-2.4 3.2-22.6 3.2-22.6"/><path fill="#e43935" d="M292.4 860.6c1.5-.8 2.5-.9 3.2-.5 4 2.4-3.2 22.6-3.2 22.6"/><path fill="#e43935" d="M298.1 861.6l-2.5-1.5-3.2 3.3 4.7 1.6 1-3.4z"/><path fill="#ef5350" d="M294.9 884.2s-9.8-16.4 0-22.1 0 22.1 0 22.1"/><path fill="#e43935" d="M310.5 862.6l-2.4-1.4-4.2 2.8 1.6 1.9 5-3.3zm.6 17l-2.5-1.5-2.5 6.1 5-4.6z"/><path fill="#ef5350" d="M294.7 884.3s12.5-7 16.4-4.7c1.2.7 1.6 2.3.5 5.3-4.7 12.8-16.9-.6-16.9-.6"/><path fill="#ef5350" d="M294.9 884.2s10.3-24.7 15.6-21.5a2.2 2.2 0 0 1 .9.8c5 6.9-16.5 20.7-16.5 20.7m16.2-4.6l-2.5-1.5"/><path fill="#e43935" d="M278.7 888.2l-2.5-1.4c0-.2.6-3.5.6-3.5l6.5 2.1zm.3 17.1l1.5-3.8-3.6-.4-.4 2.7 2.5 1.5"/><path fill="#ef5350" d="M294.7 884.3s-11.5-14.4-16.5-1.7c-1.2 3.2-.8 4.9.5 5.6 3.8 2.3 16-3.9 16-3.9m.2-.1S273.4 897 278 904.3a2.4 2.4 0 0 0 1 1c5.1 3.1 15.9-21.1 15.9-21.1"/><path fill="#ffcc80" d="M296.9 879.2a2.7 2.7 0 0 1 1 2.4 8.3 8.3 0 0 1-3.8 6.5c-1.2.7-2.2.7-2.8.2a2.4 2.4 0 0 1-1-2.3 8.3 8.3 0 0 1 3.8-6.6 2.4 2.4 0 0 1 2.8-.2z"/><path fill="#ffcc80" d="M292.6 889.3l-1.4-1 5.6-9.2 1.4 1-5.6 9.2"/><path fill="#ffe0b2" d="M298.2 880.1a2.5 2.5 0 0 1 1 2.4 8.6 8.6 0 0 1-3.8 6.6 2.6 2.6 0 0 1-2.8.1 2.7 2.7 0 0 1-1-2.3 8.3 8.3 0 0 1 3.8-6.6 2.4 2.4 0 0 1 2.8-.2z"/><path fill="#e43935" d="M334.5 859.1s9.9 16.4 0 22.1 0-22.1 0-22.1"/><path fill="#92cd43" d="M337.3 909.6l-1.9-1.1v-46.3l1.9 1.1v46.3z"/><path fill="#7ec028" d="M339.2 908.5l-1.9 1.1v-46.2l1.9-1.2v46.3z"/><path fill="#e43935" d="M334.5 859.1s-9.8-16.3 0-22 0 22 0 22m0 0s10.3-24.7 15.6-21.5l.9.8c5 7-16.5 20.7-16.5 20.7m-.2.2s12.5-7.1 16.4-4.8c1.2.8 1.6 2.4.5 5.4-4.6 12.7-16.9-.6-16.9-.6m0 0s-11.5-14.4-16.5-1.7c-1.2 3.1-.8 4.8.5 5.6 3.9 2.3 16-3.9 16-3.9"/><path fill="#e43935" d="M334.5 859.1s-21.5 12.8-16.9 20.2a3.2 3.2 0 0 0 1 1c5.1 3 15.9-21.2 15.9-21.2m0 22.1c-1.4.9-2.5 1-3.1.6-4.1-2.4 3.1-22.7 3.1-22.7"/><path fill="#e43935" d="M333.8 883.2l-2.4-1.4.3-4.7 4.1.5-2 5.6z"/><path fill="#ef5350" d="M337 860.6s9.8 16.4 0 22.1 0-22.1 0-22.1m0 22.1c-1.5.8-2.5.9-3.2.5-4-2.4 3.2-22.6 3.2-22.6"/><path fill="#e43935" d="M334.5 837.1c1.5-.9 2.5-1 3.2-.6 4 2.4-3.2 22.6-3.2 22.6"/><path fill="#e43935" d="M340.1 838l-2.4-1.5-3.2 3.3 4.7 1.6.9-3.4z"/><path fill="#ef5350" d="M337 860.6s-9.9-16.4 0-22.1 0 22.1 0 22.1"/><path fill="#e43935" d="M352.6 839.1l-2.5-1.5-4.1 2.9 1.6 1.9 5-3.3zm.6 16.9l-2.5-1.5-2.5 6.1 5-4.6z"/><path fill="#ef5350" d="M336.8 860.7s12.5-7 16.4-4.7c1.2.7 1.5 2.3.4 5.4-4.6 12.7-16.8-.7-16.8-.7"/><path fill="#ef5350" d="M337 860.6s10.3-24.7 15.6-21.5a3.2 3.2 0 0 1 .9.8c4.9 6.9-16.5 20.7-16.5 20.7m16.2-4.6l-2.5-1.5"/><path fill="#e43935" d="M320.7 864.6l-2.4-1.4c0-.2.5-3.5.5-3.5l6.6 2.2zm.3 17.1l1.5-3.8-3.5-.3-.4 2.7 2.4 1.4"/><path fill="#ef5350" d="M336.8 860.7s-11.5-14.3-16.5-1.6c-1.2 3.1-.9 4.8.4 5.5 3.9 2.4 16.1-3.9 16.1-3.9m.2-.1s-21.5 12.8-16.9 20.1a3 3 0 0 0 .9 1c5.2 3.1 16-21.1 16-21.1"/><path fill="#ffcc80" d="M338.9 855.6a2.9 2.9 0 0 1 1 2.4 8.4 8.4 0 0 1-3.8 6.6 2.9 2.9 0 0 1-2.8.2 3 3 0 0 1-1-2.4 8.4 8.4 0 0 1 3.8-6.6 2.6 2.6 0 0 1 2.8-.2z"/><path fill="#ffcc80" d="M334.7 865.7l-1.4-1 5.6-9.2 1.4 1-5.6 9.2"/><path fill="#ffe0b2" d="M340.3 856.5a2.9 2.9 0 0 1 1 2.4 8.4 8.4 0 0 1-3.8 6.6 2.6 2.6 0 0 1-2.8.2 2.9 2.9 0 0 1-1-2.4 8.4 8.4 0 0 1 3.8-6.6 2.6 2.6 0 0 1 2.8-.2z"/><path fill="#e43935" d="M249.2 909.1s9.9 16.4 0 22.1 0-22.1 0-22.1"/><path fill="#92cd43" d="M252 959.6l-1.9-1.2v-46.3l1.9 1.2v46.3z"/><path fill="#7ec028" d="M254 958.4l-2 1.2v-46.3l2-1.1v46.2z"/><path fill="#e43935" d="M249.2 909.1s-9.8-16.4 0-22.1 0 22.1 0 22.1m0 0s10.3-24.7 15.6-21.5c.4.1.6.4.9.8 5 6.9-16.5 20.7-16.5 20.7"/><path fill="#e43935" d="M249 909.2s12.5-7 16.4-4.7c1.2.7 1.6 2.3.5 5.4-4.6 12.7-16.9-.7-16.9-.7m0 0s-11.5-14.3-16.5-1.7c-1.2 3.2-.8 4.9.5 5.6 3.9 2.4 16-3.9 16-3.9"/><path fill="#e43935" d="M249.2 909.1s-21.5 12.8-16.8 20.1a2.2 2.2 0 0 0 .9 1c5.2 3.1 15.9-21.1 15.9-21.1m0 22.1c-1.4.8-2.4.9-3.1.5-4.1-2.4 3.1-22.6 3.1-22.6"/><path fill="#e43935" d="M248.5 933.2l-2.4-1.5.3-4.6 4.1.4-2 5.7z"/><path fill="#ef5350" d="M251.7 910.6s9.8 16.3 0 22 0-22 0-22m0 22c-1.5.9-2.5 1-3.2.6-4-2.4 3.2-22.6 3.2-22.6"/><path fill="#e43935" d="M249.2 887c1.5-.8 2.5-.9 3.2-.5 4 2.4-3.2 22.6-3.2 22.6"/><path fill="#e43935" d="M254.8 887.9l-2.4-1.4-3.2 3.3 4.7 1.5.9-3.4z"/><path fill="#ef5350" d="M251.7 910.6s-9.9-16.4 0-22.1 0 22.1 0 22.1"/><path fill="#e43935" d="M267.3 889l-2.5-1.4-4.1 2.8 1.6 1.9 5-3.3zm.6 17l-2.5-1.5-2.5 6.1 5-4.6z"/><path fill="#ef5350" d="M251.5 910.7s12.5-7.1 16.4-4.7c1.2.7 1.6 2.3.5 5.3-4.7 12.7-16.9-.6-16.9-.6"/><path fill="#ef5350" d="M251.7 910.6s10.3-24.7 15.6-21.6l.9.9c5 6.9-16.5 20.7-16.5 20.7m16.2-4.6l-2.5-1.5"/><path fill="#e43935" d="M235.4 914.6l-2.4-1.5c0-.2.5-3.4.5-3.4l6.6 2.1zm.4 17.1l1.4-3.9-3.5-.3-.4 2.7 2.5 1.5"/><path fill="#ef5350" d="M251.5 910.7S240 896.3 235 909c-1.2 3.1-.8 4.8.4 5.6 3.9 2.3 16.1-3.9 16.1-3.9m.2-.1s-21.5 12.7-16.9 20.1a3.2 3.2 0 0 0 1 1c5.1 3 15.9-21.1 15.9-21.1"/><path fill="#ffcc80" d="M253.6 905.6a2.4 2.4 0 0 1 1 2.3 8.3 8.3 0 0 1-3.8 6.6 2.4 2.4 0 0 1-2.8.2 2.7 2.7 0 0 1-1-2.4 8.6 8.6 0 0 1 3.8-6.6 2.6 2.6 0 0 1 2.8-.1z"/><path fill="#ffcc80" d="M249.4 915.6l-1.4-1 5.6-9.1 1.4 1-5.6 9.1"/><path fill="#ffe0b2" d="M255 906.5a2.7 2.7 0 0 1 1 2.3 8.3 8.3 0 0 1-3.8 6.6 2.4 2.4 0 0 1-2.8.2 2.7 2.7 0 0 1-1-2.4 8.3 8.3 0 0 1 3.8-6.5 2.4 2.4 0 0 1 2.8-.2z"/></svg>