<svg xmlns="http://www.w3.org/2000/svg" width="1972" height="1473.4" viewBox="0 0 1972 1473.4"><path fill="#e0f7fa" d="M295.8 1018L0 847.2 986 278l295.8 170.7-986 569.3z"/><path fill="#4e4545" d="M542.3 1160.3v57L986 1473.4v-56.9l-443.7-256.2z"/><path fill="#2f2829" d="M1972 865.8V904l-986 569.2v-38.1l986-569.3z"/><path fill="#d9c9be" d="M543 1167.1l-246.6-142.2 197.2-120.8-197.2-113.8 591.2-341.4 197.2 113.8 197.6-107.2L1529 598.6l-986 568.5z"/><path fill="#b99e90" d="M295.8 1024.9v50l246.5 142.4v-50.1l-246.5-142.3z"/><path fill="#80deea" d="M887.4 455.5l-585.9 338-5.7-3.3 591.6-341.6v6.9z"/><path fill="#655c5a" d="M542.3 1178.1l986-568.5L1972 865.8l-986 569.3-443.7-257z"/><path fill="#a1887f" d="M542.3 1178.1v-10.9l986-568.6v11l-986 568.5z"/><path fill="#80deea" d="M1281.8 455.6l-197.2 113.8v-6.8l197.2-113.9v6.9zM493 911l-197.2 113.9v-6.9L493 904.2v6.8z"/><path fill="#b2ebf2" d="M1084.6 569.4L887.4 455.6v-6.9l197.2 113.9v6.8z"/><path fill="#ffbe03" d="M871.5 1368.8l985.8-569.2 10.3 5.9-985.8 569.2-10.3-5.9z"/><path fill="#b2ebf2" d="M0 847.2v57l295.8 170.7V1018L0 847.2z"/><path fill="#795548" d="M0 864.6v40l295.8 170.8v-39.2L0 864.6z"/><path fill="#655c5a" d="M295.8 1036.2v39.2l246.5 142.3v-39.2l-246.5-142.3z"/><path fill="#9e9e9e" d="M423.1 1014.6l-4.7-2.8V662.1l4.7 2.7v349.8z"/><path fill="#bcb6ad" d="M427.9 1011.8l-4.8 2.8V664.9l4.8-2.7v349.6z"/><path fill="#e0e0e0" d="M423.1 664.8l-4.7-2.7 4.7-2.8 4.8 2.8-4.8 2.7z"/><path fill="#4e4545" d="M645.6 816l-4.7 2.7v-57l4.7-2.7v57z"/><path fill="#655c5a" d="M640.9 818.7l-4.8-2.7v-57l4.8 2.7v57zm-49.3-28.4l-4.8-2.7V673.7l4.8 2.7v113.9z"/><path fill="#4e4545" d="M596.3 787.6l-4.7 2.7V676.6l4.7-2.8v113.8z"/><path fill="#9e9e9e" d="M591.6 676.4l-4.8-2.7 4.8-2.7 4.7 2.7-4.7 2.7z"/><path fill="#4e4545" d="M887.4 619.4l-4.8 2.8V508.4l4.8-2.7v113.7z"/><path fill="#655c5a" d="M882.6 622.1l-4.7-2.8V505.7l4.7 2.7v113.7z"/><path fill="#607d8b" d="M591.5 733.4l295.8-170.7 14.7 8.4-295.8 170.8-14.7-8.5z"/><path fill="#455a64" d="M606.2 741.9L902 571.1v6.1L606.2 748v-6.1z"/><path fill="#43535f" d="M606.2 748l-14.7-8.5.1-6.1 14.6 8.5v6.1z"/><path fill="#4e4545" d="M936.7 648l-4.8 2.8v-57.1l4.8-2.7v57z"/><path fill="#655c5a" d="M931.9 650.8l-4.7-2.8v-57l4.7 2.7v57.1z"/><path fill="#607d8b" d="M608.9 743.3l295.8-170.8 14.7 8.5-295.8 170.8-14.7-8.5z"/><path fill="#455a64" d="M623.5 751.8L919.3 581v6.1L623.5 757.9v-6.1z"/><path fill="#43535f" d="M623.6 757.9l-14.7-8.5v-6.1l14.7 8.5v6.1z"/><path fill="#607d8b" d="M626.3 753.4L922 582.6l14.7 8.4-295.8 170.8-14.6-8.4z"/><path fill="#455a64" d="M640.9 761.8L936.7 591v6.2L640.9 767.9v-6.1z"/><path fill="#43535f" d="M640.9 768l-14.6-8.5v-6.1l14.6 8.5v6.1z"/><path fill="#455a64" d="M596.9 699.6l295.8-170.7v16.8L596.9 716.5v-16.9z"/><path fill="#607d8b" d="M892.7 528.9L596.9 699.6l-5.3-3.1 295.8-170.7 5.3 3.1z"/><path fill="#43535f" d="M591.6 713.4v-16.8l5.3 3v16.9l-5.3-3.1z"/><path fill="#455a64" d="M596.9 679.5l295.8-170.7v16.8L596.9 696.4v-16.9z"/><path fill="#607d8b" d="M892.7 508.7L596.9 679.5l-5.3-3.1 295.8-170.7 5.3 3z"/><path fill="#43535f" d="M591.6 693.3v-16.9l5.3 3.1v16.9l-5.3-3.1z"/><path fill="#9e9e9e" d="M882.6 508.4l-4.7-2.7 4.7-2.8 4.8 2.8-4.8 2.7z"/><path fill="#fcfcfc" d="M602 682.8c4-2 5.9-6 9.5-8.4 1.7-1.2 4.6-1 6.7-1.7a19.7 19.7 0 0 0 6.7-4.3c1.6-1.4 2.9-3.3 4.5-4.7s3.3-1.2 5.5-1.7c5.1-1 9.3-3.7 13.2-7.1s5.8-5.8 10.2-6.9 10.1-3.2 13.8-7.8c1.5-1.9 2.2-3.1 4.5-3.8s4.9-.9 7.3-1.7c5.7-1.9 9.8-5.5 11.8-11.3 3.5-10-12.3-14.3-15.8-4.3.2-.5-2.5.4-3.1.5a51.7 51.7 0 0 0-6.8 1.6 20.1 20.1 0 0 0-7.3 4.6c-1.5 1.5-2.5 3.8-4.3 5s-4.1 1.2-6 1.8a25.1 25.1 0 0 0-6.5 2.8c-3.9 2.5-6.8 6-10.5 8.7s-7.9 2.1-11.8 3.9-6.3 5-9.4 7.9-7.9 2.3-11.5 4.7-5.4 6.2-9 8c-9.4 4.8-1.1 19 8.3 14.2z"/><path fill="#fcfcfc" d="M695.4 627.4a16.5 16.5 0 0 0 7.5-4.5c1.3-1.3 2.6-4.1 4.2-5s6.4-.8 9.2-1.9a56 56 0 0 0 9.7-5.1c6.2-3.9 12.4-7.6 18.4-11.7a43.6 43.6 0 0 0 7.8-6.4c1.7-1.8 3.1-4.3 5.6-4.9 10.3-2.3 5.9-18.1-4.4-15.8-6.5 1.4-9.7 6.3-14.3 10.6s-12.3 8.2-18.3 12a69.6 69.6 0 0 1-8.7 5.3c-2.9 1.4-6 1.2-9 2a18.2 18.2 0 0 0-8.3 5c-.8.9-2.6 4.2-3.7 4.5-10.2 2.9-5.9 18.8 4.3 15.9zm113.9-66.8a24.9 24.9 0 0 0 11.2-3.8c2.9-2 5.4-4.7 8.6-6.3s7.2-2 10.6-3.7a15.3 15.3 0 0 0 5.1-3.6c1.2-1.3 2-3.4 3.4-4.5s7.1-2.1 9.9-3.4 7.1-4.6 10.3-7.5c6.1-5.5 14.7-5.3 21.3-10.5 3.5-2.8 2.9-8.8 0-11.6s-8.1-2.8-11.6 0-6.7 1.9-9.5 2.9a33 33 0 0 0-10.7 6.6c-2.4 2-4.4 4.4-7.5 5.6s-6.8 1.7-10 3.5a17.6 17.6 0 0 0-4.3 3.3c-1.2 1.1-2.1 3.7-3.4 4.5s-5.5 1.4-7.6 2.2a36.2 36.2 0 0 0-9.3 5.5c-1.7 1.4-4.3 4.1-6.5 4.4-4.4.5-8.2 3.4-8.2 8.2s3.8 8.7 8.2 8.2zM219.1 812.3c-6.7-5-14.9-9.4-23.5-7a18.5 18.5 0 0 0-7 4.2 8.6 8.6 0 0 0-1.4 1.3c-1.7 1.6-.2 1.1 4.5-1.6 1.1.2 1.1.2.2 0l-2.1-.7c-1.5-.6-2.9-1.3-4.4-1.8-8.7-2.8-18-.8-24 6.3s-10.5 15-5.6 24.5l-1.8-6.9v.9l1.9-6.9.2-.2a35.1 35.1 0 0 0-2.9 3.6 18.2 18.2 0 0 0-1.9 4.3c-.8 4.4-.7 4.8.1 1.1l4.9-4.9c2.1-1.2-3.4.3-4.1.5a27.5 27.5 0 0 0-6.8 2.4c-5.4 2.9-9.2 8.1-9.2 14.4s4.7 13.5 11.3 14.6c2.4 1 .9-.1-4.3-3.2.4 1 .9 1.9 1.3 2.8l3 7c3.4 7.9 16.1 8.7 21.5 2.7 1.1-1.1 1.3-1.3.3-.6l.6-.3c-1.4.1-1.2.2.5.2a13.7 13.7 0 0 0 4.9-.5c5.3-1.3 8.9-4.7 11.1-9.6 4.2-9.2 10.4-21.8 4.9-31.5-3.8-6.6-12.2-8.3-18.8-4.9a17.7 17.7 0 0 0-7.3 7.3c-4.1 7.7-.7 17.9 8.2 20.2s17.8 1.3 26.7 1.2l-9.7-23.4c-8.9 9.8-17.3 24-9.3 37.1 4.9 7.9 15.7 9.3 23.3 4.5a20.4 20.4 0 0 0 7.8-10 21.1 21.1 0 0 0 1.4-4.9l.2-1.7c.9-3.2 0-2.5-2.8 2.2l-6.9 1.9c6.1-.7 10.7.4 15.8-4.3a15.5 15.5 0 0 0 4.6-16.2 14.1 14.1 0 0 0-13.2-10c-5.7 0-12 4.2-13.2 10a38.2 38.2 0 0 1-3.4 10.2c-2 3.7-4.9 6.8-6.7 10.5l4.9-4.9c-7.5 3.6-16-1.7-25.1 1-13.2 3.9-12.9 22.4 0 26.4a75.1 75.1 0 0 0 19.4 3.3c7.4.3 13.7-6.5 13.7-13.7s-6.3-13.4-13.7-13.7a47 47 0 0 1-12.1-2.3v26.4c-.2.1-2-.6.2 0l3.3.6a44.8 44.8 0 0 0 9.7.7c6.5-.4 14.5-1.9 19.8-6.1 2.8-2.2 4.1-5.2 6.1-8.1a45.4 45.4 0 0 0 4.1-6.3 59 59 0 0 0 6.2-16.7h-26.4l.3 1 1.4-10.5.7-1 6-3.5c1.5-.4-.1-.3-.8-.4a23.3 23.3 0 0 0-5.3.7 16.8 16.8 0 0 0-9.1 6.6 20 20 0 0 0-3.7 8.1 17.5 17.5 0 0 0-.6 3.3c.2 2.9 1.2-3.8 6.9-3.2l6.9 1.8-.9-.5 4.9 4.9c1.2 1.7-.2 2 .4 3-.4-.7.5-1.6.6-1.8 1.2-2.2 1.8-2.7 4-5 7.7-8.5 2.7-23.7-9.7-23.4-6.2.1-13.6 1.3-19.4-.3l8.2 20.2-2.5 2.5-18.8-5 .6 1.1-1.9-7c.2-1.8-.7 1.6-.8 2.1l-1.5 4.2c-.4 1.2-.9 2.3-1.2 3.4s-2.1 3 .4.3l6-3.5c2.8-.9-.9-.2-1.6-.1a26.8 26.8 0 0 0-18 8.7l21.5 2.7c-1.5-3.5-2.8-7.4-4.8-10.7s-7.1-6.6-12-8.6l6 3.5-.7-.8 4.1 9.7v-.9l-1.9 6.9c-4.9 3.4-5.6 4.4-2.2 3.2l3.6-.7a19.5 19.5 0 0 0 6.5-2.3c6.5-3.8 7.7-9.6 8.6-16.5l-1.9 6.9c-1.3 2.4.2-.1.7-.7a19.6 19.6 0 0 0 3.3-5.3c1.8-5.1 1-9.6-1.5-14.5l1.9 6.9v-.9l-1.9 6.9c.4-.6 3.3-4.1 3.1-4.5a3.7 3.7 0 0 1-2.8 1.8c-3.2-.1-3.5.1-1.1.6a31 31 0 0 0 12.2 3.4 21.2 21.2 0 0 0 14.9-5.1l1.8-1.7c-9.5-.3-12 .5-7.6 2.4 1.7 1.4 4 2.5 5.9 3.9 5.9 4.4 15.3.9 18.7-4.9s1-14.3-4.9-18.8z"/><path fill="#e0f7fa" d="M599.7 682.8c6.7-3.6 12.5-8.6 19.3-12.3s14.3-6.5 21.3-9.9A156.4 156.4 0 0 0 660 649c3.1-2.1 6.2-4.4 9.2-6.8s5.3-4.8 8.3-6.4 3.9-1.3 5.8-2.1a16.3 16.3 0 0 0 4.3-2.7c2.8-2.2 4.9-5.2 8.3-6.7s.4-6.2-2.8-4.8-5 3.6-7.3 5.7-4.8 3.5-8.1 4.7a24.1 24.1 0 0 0-8.6 5.4q-4.5 3.8-9.3 7.2a149.4 149.4 0 0 1-19.5 11.9c-6.8 3.6-14 6.3-20.9 9.7s-14.6 9.8-22.5 13.9c-3.1 1.7-.3 6.4 2.8 4.8z"/><path fill="#e0f7fa" d="M695 624.3c4.4.5 7.6-2.5 10.7-5.1a32.6 32.6 0 0 1 10.9-6.1c3.9-1.3 8-1.5 11.7-3.4s6.7-5 10.7-6.3c1.6-.5 2.8-2.5 1.7-4a4 4 0 0 0-3.9-2c-3.5.4-3.5 5.9 0 5.5l-.9-.7 1.7-4.1c-3.8 1.2-6.7 3.6-10 5.7s-7.7 2.5-11.7 3.8a39.4 39.4 0 0 0-10.9 5.3c-2.9 2.1-6.1 6.4-10 5.9s-3.4 5 0 5.5zm125.4-67.7c5.8-4.1 11.6-8 17.6-11.7s11.3-7.3 17.8-9.2a50.8 50.8 0 0 0 8.5-4l9.8-5.1 9.2-4.8c2.6-1.4 5.2-2.7 6.7-5.4s-2.9-5.8-4.7-2.7-5.1 3.5-7.4 4.7l-9.3 4.8-9.2 4.9c-1.3.6-2.6 1.4-3.9 1.9s-3 .9-4.5 1.4c-5.7 2.1-11 5.8-16.1 9s-11.6 7.5-17.3 11.4c-2.9 2.1-.1 6.8 2.8 4.8z"/><path fill="#fcfcfc" d="M162.8 859.4a26 26 0 0 1-7.2-1c-1.4-.4-2.7-1-4.1-1.3s-1.4-2.6 1.2 1.8l1.8 6.9v-1l-1.8 6.9c-1.9 3.2.9-.5 1.6-1.1l3-3.3a87 87 0 0 0 6.9-9.1c3.3-5 1.9-12.5-2.2-16.6a15.9 15.9 0 0 0-5.2-3.7 37.9 37.9 0 0 0-4.2-1.8 10.8 10.8 0 0 1 3 1.6l3.5 6.1-.2-.8v7.2l-.7.9c.6-1.3 1.1-2.5 1.6-3.8a16.7 16.7 0 0 0 .7-5.4c-.3-8.7-8.6-15.8-17.3-13.2-18.9 5.6-13.7 34 .7 41.7 8.1 4.4 22-.8 20.6-11.8a35 35 0 0 1 2.1-18.7c4.4-11.4-10.5-21.4-20.1-15.5s-13.5 17.6-11 28.4a20.5 20.5 0 0 0 9.8 13c.5.2 4.3 2.4 4.7 2.3-2 1-3.2-5.9-2.2-.9 1.9 9.8 3.3 23.1 14.6 26.6 4.8 1.5 12.2 1.5 17.1.3a14.1 14.1 0 0 0 9.3-6.6c.6-1.3 1.2-2.7 1.7-4 .5-4.2.6-4.9.4-1.9l-3.5 6.1c-3.6 1.5-4.5 2.1-2.7 1.6l2.5-.6 5.8-1.3c7.2-1.6 11.5-10 9.6-16.8s-9.6-11.2-16.9-9.6c-4.6 1-9.5 1.7-13.7 4.1a16.7 16.7 0 0 0-6.1 6 30.7 30.7 0 0 0-1.7 4.2c-.5 4.3-.6 4.9-.4 1.7l9.6-9.6c1.7-.5-2-.2-2.5-.1s-4.6-.9-1.2.1l6 3.5c1.6 3 2 3.3 1 .8s-.7-2.2-1-3.3-.8-4.3-1.2-6.5a24.8 24.8 0 0 0-5-12.2 20.6 20.6 0 0 0-5.7-5.3c-.6-.3-4.1-2.5-4.6-2.3a7.8 7.8 0 0 1 3 5.8v-2.7c.9.3-1.6 2.7-1.9 2.9l-20.1-15.5a53.6 53.6 0 0 0-3.1 26l20.6-11.8c-2.6-1.4.5 1 1.2 1.6l-.7-1.1c.5 1 .6 1.1.4.1s-.1 1.9-.1-.4.8-2.8 0-.5l-3.5 6.1.6-.8-6.1 3.5.9-.2-17.3-13.2c1.4-4.5 1.3-4.6-.4-.2-.3 1.7-.5 3.3-.7 4.9a15.6 15.6 0 0 0 4.2 10.5 19.8 19.8 0 0 0 4.9 3.7l4.2 1.7a6.1 6.1 0 0 1-2.6-1.5l-2.2-16.6c-2.4 3.6-5.4 6.4-8.5 9.5a16.1 16.1 0 0 0-1.4 21.2c6.9 8.9 21.7 11.4 32.2 11.7 7.4.3 13.7-6.4 13.7-13.7s-6.3-13.4-13.7-13.7z"/><path fill="#e0f7fa" d="M177.4 872.5c2.7.4 5.6.6 7.5-1.7a2.9 2.9 0 0 0 .8-1.4c.4-.6.4-.7-.1-.3s-.4.5.6.1a29.7 29.7 0 0 0 5.2-.9c3.5-.7 2-5.9-1.4-5.3s-5.3.4-7.3 1.5a3.3 3.3 0 0 0-1.6 1.7c-.6 1.3-.6 1.3-2.2 1.1-3.5-.5-5 4.7-1.5 5.2zM147 858.8c1.2 1 1.8 2.6 3.1 3.5a4.9 4.9 0 0 0 4.5.7 4.5 4.5 0 0 0 2.5-3.6 4.1 4.1 0 0 0 .1-1.1h.3a10.6 10.6 0 0 1 3.1-.2 2.8 2.8 0 0 0 2.6-3.5l-.2-.8c-.9-3.4-6.1-1.9-5.3 1.5l.2.8 2.7-3.5c-2.6.2-5.8 0-7.7 2.1-.3.4-1.9 3.2-1.2 3.7l1.3-.7-.5-.9-1.6-1.8c-2.7-2.3-6.6 1.6-3.9 3.9zm59.7-15.7a3.5 3.5 0 0 0-4.4-.3 3.8 3.8 0 0 0-1.3 1.8 2.4 2.4 0 0 0-.2.8c-.1.1-.1.8-.1.4a.5.5 0 0 1 .3-.3c0 .1-.7.4-.5.3h-.4l-.6.2a3.7 3.7 0 0 0-2.6 3.5 2.8 2.8 0 0 0 2.7 2.7 2.8 2.8 0 0 0 2.8-2.7v.3l-.7 1.2c-.1.1-.7.2-.1.1l.8-.3a5 5 0 0 0 1.9-1 5.4 5.4 0 0 0 1.4-1.6 5 5 0 0 0 .4-1.3v-.3c.2-.8-.1-.6-1 .8h-1.3l-1.2-.7.2.2a2.9 2.9 0 0 0 3.9 0c.9-1 1.1-3 0-3.9z"/><path fill="#fcfcfc" d="M185.5 854.4c17.6 0 17.6-27.4 0-27.4s-17.7 27.4 0 27.4z"/><path fill="#fcfcfc" d="M182.7 856.7c17.7 0 17.7-27.4 0-27.4s-17.6 27.4 0 27.4z"/><path fill="#d32e2f" d="M1158.5 386.2v148.1l46.7 26.9V440l-46.7-53.8z"/><path fill="#c62828" d="M1263.5 527.5l-58.3 33.7V440l58.3-33.6v121.1z"/><path fill="#e43935" d="M1263.5 406.4l-46.6-53.9-58.4 33.7 46.7 53.8 58.3-33.6z"/><path fill="#2f2829" d="M1219.5 446l35-20.2v53.8l-35 20.2V446z"/><path fill="#e43935" d="M1220.3 506l33.9-19.5v25.7l-33.9 19.5V506z"/><path fill="#fff" d="M1253.6 487.4v24.4l-32.9 18.9v-24.4l32.8-18.9m1.1-1.9l-35 20.2v26.9l35.1-20.1v-27z"/><path fill="#655c5a" d="M807 630.4l31.3 18-11.6 6.7-31.3-18.1 11.6-6.6z"/><path fill="#2f2829" d="M795.4 636.8l22.3 13.1v13.3l-33.9-19.8 11.6-6.6z"/><path fill="#4e4545" d="M838.3 648.4l-.1 58.1-11.5 6.7v-58.1l11.6-6.7z"/><path fill="#655c5a" d="M779.9 645.9l31.3 18-11.6 6.7-31.3-18.1 11.6-6.6z"/><path fill="#2f2829" d="M739.3 635.6l60.3 35v13.3L739.3 649v-13.4z"/><path fill="#2f2829" d="M799.6 670.6v57.7l-10.8-6.3v-57.6l10.8 6.2zm27.1-15.4v58l-10.9-6.2v-58l10.9 6.2z"/><path fill="#4e4545" d="M811.2 663.9v57.7l-11.6 6.7v-57.7l11.6-6.7z"/><path fill="#2e846b" d="M739.3 583.5l65.8-37.7 15.5 8.8-65.6 37.9-15.7-9z"/><path fill="#fcfcfc" d="M779.8 560l-15.7 9 15.9 9.3 15.7-9-15.9-9.3z"/><path fill="#ffcc80" d="M764.1 528.4l47-27.1v49.9l-47 27.1v-49.9z"/><path fill="#5d4037" d="M764.1 528.4l47-27.1v10.8l-47 27.1v-10.8zm0 46.5l47-27.1v10.8l-47 27.1v-10.8z"/><path fill="#795548" d="M748.5 519.4l15.6 9 47-27.1-15.7-9.1-46.9 27.2z"/><path fill="#ffe0b2" d="M764.1 578.2l-15.6-8.9v-49.9l15.6 9v49.8z"/><path fill="#6d4c41" d="M753.5 572.2l-5-2.9v-49.9l5 2.9v49.9z"/><path fill="#5d4037" d="M769.2 540.1l-5 2.8v-6.8l5-2.8v6.8z"/><path fill="#5d4037" d="M766.4 545.1l-2.2 1.3v-18l2.2-1.3v18z"/><path fill="#6d4c41" d="M764.2 542.9l-15.7-9v-14.5l15.6 9 .1 14.5zm-6.4 18l-9.3-5.4v-9.7l9.2 5.3.1 9.8z"/><path fill="#795548" d="M748.5 533.1v-13.7"/><path fill="#6d4c41" d="M764.1 558.7l-6.3-3.7v-3.8l6.3 3.7v3.8z"/><path fill="#212121" d="M775.3 545.5l-2.4 1.4v-2.7l2.4-1.4v2.7zm2.4-1.3l-2.4 1.3v-2.7l2.4-1.4v2.8zm2.4-1.4l-2.4 1.4v-2.8l2.4-1.4v2.8zm2.4-1.4l-2.4 1.4V540l2.4-1.4v2.8z"/><path fill="#212121" d="M775.3 548.3l-2.4 1.4v-2.8l2.4-1.4v2.8zm4.8-2.8l-2.4 1.4v-2.7l2.4-1.4v2.7z"/><path fill="#fff" d="M780.1 548.3l-2.4 1.4v-2.8l2.4-1.4v2.8zm-2.4-1.4l-2.4 1.4v-2.8l2.4-1.4v2.8z"/><path fill="#212121" d="M782.5 544.2l-2.4 1.3v-2.7l2.4-1.4v2.8zm-7.2 6.9l-2.4 1.3v-2.7l2.4-1.4v2.8zm2.4-1.4l-2.4 1.4v-2.8l2.4-1.4v2.8z"/><path fill="#212121" d="M782.5 546.9l-2.4 1.4v-2.8l2.4-1.4v2.8zm13.2-13l-2.4 1.4v-2.8l2.4-1.4v2.8zm2.4-1.4l-2.4 1.4v-2.8l2.4-1.4v2.8zm2.4-1.4l-2.4 1.4v-2.8l2.4-1.3v2.7zm2.4-1.4l-2.4 1.4v-2.7l2.4-1.4v2.7z"/><path fill="#212121" d="M795.7 536.7l-2.4 1.3v-2.7l2.4-1.4v2.8zm4.8-2.8l-2.4 1.4v-2.8l2.4-1.4v2.8zm2.4-1.4l-2.4 1.4v-2.8l2.4-1.4v2.8z"/><path fill="#212121" d="M795.7 539.4l-2.4 1.4V538l2.4-1.4v2.8zm2.4-1.4l-2.4 1.4v-2.8l2.4-1.3v2.7z"/><path fill="#fff" d="M800.5 536.7l-2.4 1.3v-2.7l2.4-1.4v2.8zm-2.4-1.4l-2.4 1.3v-2.7l2.4-1.4v2.8z"/><path fill="#212121" d="M802.9 535.3l-2.4 1.3v-2.7l2.4-1.4v2.8z"/><path fill="#fff" d="M782.5 555.5v3.3l2.1-1.3v3.3l6.7-3.9v-3.2l2.1-1.3v-3.2l-10.9 6.3z"/><path fill="#1e5e4d" d="M811.1 627.8l-47 27.1.1-67.8 47-27.1-.1 67.8z"/><path fill="#f8f8f7" d="M779.8 645.9l15.6-9.1v-67.7l-15.6 9v67.8z"/><path fill="#27725d" d="M739.3 583.5v61.4l9.5 5.6-.3-61.7-9.2-5.3z"/><path fill="#ffe0b2" d="M755 653.5l-.1 6.6-9.3-5.4v-6.6l9.4 5.4z"/><path fill="#27725d" d="M755 592.5l-.1 61.5-9.3-5.4v-61.5l9.4 5.4z"/><path fill="#ffcc80" d="M764.3 648v6.7l-9.4 5.4.1-6.6 9.3-5.5zm56.3-32.2l-.1 6.6-9.3 5.4v-6.6l9.4-5.4z"/><path fill="#1e5e4d" d="M764.3 587.1v61.5l-9.4 5.4.1-61.5 9.3-5.4z"/><path fill="#1e5e4d" d="M764.3 587.1v61.5l-9.4 5.4.1-61.5 9.3-5.4zm56.3-32.5l-.1 61.5-9.3 5.4V560l9.4-5.4z"/><path fill="#655c5a" d="M811.2 735v3.9l-22.4-13.1v-3.9l22.4 13.1z"/><path fill="#4e4545" d="M811.2 739v3.9l-22.4-13.2v-3.9l22.4 13.2zm11.6-10.7v3.9l-11.6 6.7V735l11.6-6.7z"/><path fill="#2f2829" d="M822.8 732.2v3.9l-11.6 6.8v-4l11.6-6.7z"/><path fill="#9e9e9e" d="M811.2 735l-11.6-6.7 11.6-6.7 11.6 6.7-11.6 6.7z"/><path fill="#655c5a" d="M838.2 719.7v3.9l-22.4-13.2v-3.9l22.4 13.2z"/><path fill="#4e4545" d="M838.2 723.6v3.9l-22.4-13.1v-3.9l22.4 13.1z"/><path fill="#4e4545" d="M849.8 713v3.9l-11.6 6.7v-3.9l11.6-6.7z"/><path fill="#2f2829" d="M849.8 716.9v3.9l-11.6 6.7v-3.9l11.6-6.7z"/><path fill="#9e9e9e" d="M838.2 719.7l-11.6-6.7 11.6-6.7 11.6 6.7-11.6 6.7z"/><path fill="#fcfcfc" d="M424.5 666.8l60.5 34.9v69.8l-60.5-34.9v-69.8z"/><path fill="#e43935" d="M424.5 666.8l60.5 34.9v20.9l-60.5-34.9v-20.9z"/><path fill="#f14336" d="M485 701.7l-60.5-34.9 2.6-1.4 60.4 34.9-2.5 1.4z"/><path fill="#d32e2f" d="M487.5 721.2l-2.5 1.4v-20.9l2.5-1.4v20.9z"/><path fill="#f8f8f7" d="M487.5 770.1l-2.5 1.4v-48.9l2.5-1.4v48.9z"/><path fill="#212121" d="M434.7 703.8a1.5 1.5 0 0 1-.3 1 1.2 1.2 0 0 1-.8.4 4.2 4.2 0 0 1 .9 1.4 4.1 4.1 0 0 1 .3 1.6c0 .8-.2 1.3-.7 1.5a2.3 2.3 0 0 1-2-.4 6.1 6.1 0 0 1-2-1.9 4.4 4.4 0 0 1-.7-2.4 2.1 2.1 0 0 1 .3-1.2 1.2 1.2 0 0 1 .9-.3l-.8-1.3a3.9 3.9 0 0 1-.3-1.4 1.6 1.6 0 0 1 .7-1.5 2.1 2.1 0 0 1 1.9.4 5.2 5.2 0 0 1 1.9 1.7 5.5 5.5 0 0 1 .7 2.4zm-1.5 3.3a2.7 2.7 0 0 0-.3-1.2 3 3 0 0 0-.8-.8.8.8 0 0 0-.8-.1c-.2.1-.3.4-.3.8a2 2 0 0 0 .3 1.1 2.4 2.4 0 0 0 .8.9c.4.2.6.2.8.1s.3-.4.3-.8zm-.1-4.2a1.9 1.9 0 0 0-.3-1 1.6 1.6 0 0 0-.7-.7.6.6 0 0 0-.7-.1c-.2.1-.3.3-.3.7a2.3 2.3 0 0 0 .3 1.1 2.3 2.3 0 0 0 .7.7.6.6 0 0 0 .7.1 1 1 0 0 0 .3-.8zm8.1 4.6a1.8 1.8 0 0 1-.3 1.1 1 1 0 0 1-.8.3 6 6 0 0 1 .9 1.5 2.8 2.8 0 0 1 .4 1.5c0 .9-.3 1.4-.7 1.6a2.7 2.7 0 0 1-2-.4 6.5 6.5 0 0 1-2.1-1.9 5.5 5.5 0 0 1-.7-2.4 1.6 1.6 0 0 1 .4-1.2.9.9 0 0 1 .9-.3 3.9 3.9 0 0 1-.8-1.4 3.1 3.1 0 0 1-.3-1.3c0-.8.2-1.3.7-1.5a2.1 2.1 0 0 1 1.8.3 5.5 5.5 0 0 1 1.9 1.8 4.1 4.1 0 0 1 .7 2.3zm-1.4 3.4a2.7 2.7 0 0 0-.3-1.2 2.4 2.4 0 0 0-.9-.8c-.3-.2-.6-.3-.8-.1s-.3.4-.3.8a2 2 0 0 0 .3 1.1 2 2 0 0 0 .9.9.8.8 0 0 0 .8.1c.2-.1.3-.4.3-.8zm-.2-4.2a3 3 0 0 0-.2-1 2 2 0 0 0-.8-.8c-.3-.1-.5-.2-.7 0a1 1 0 0 0-.2.7 3 3 0 0 0 .2 1 1.6 1.6 0 0 0 .8.8.6.6 0 0 0 .7.1 1.5 1.5 0 0 0 .2-.8z"/><path fill="#fff" d="M449.6 695.5a4.2 4.2 0 0 0 .6 2.1v1.3a1.4 1.4 0 0 0 .7 1.1l.6.4c.4.2.7 0 .7-.4v-.7l5.2 3v.7a1.3 1.3 0 0 0 .6 1.1l.7.4c.3.2.6 0 .6-.4v-1.3c.4-.2.6-.6.6-1.3V694c0-2.6-2.3-4.3-5.1-6s-5.2-2.6-5.2 0zm2.2 2.1a2.2 2.2 0 0 1-.9-1.7c0-.6.4-.9.9-.6a2.1 2.1 0 0 1 1 1.7c0 .6-.4.9-1 .6zm5.9 3.4a2.2 2.2 0 0 1-1-1.7c0-.7.4-.9 1-.6a2.3 2.3 0 0 1 1 1.7.6.6 0 0 1-1 .6zm1-4l-7.8-4.5v-3.7l7.8 4.5z"/><path fill="#307621" d="M1089.9 426v148.1l46.6 27V479.9l-46.6-53.9z"/><path fill="#2e7d32" d="M1194.8 567.4l-58.3 33.7V479.9l58.3-33.7v121.2z"/><path fill="#3c8d24" d="M1194.8 446.2l-46.6-53.8-58.3 33.6 46.6 53.9 58.3-33.7z"/><path fill="#2f2829" d="M1148.2 486.6l34.9-20.2v53.9l-34.9 20.2v-53.9z"/><path fill="#48a12f" d="M1148.7 547.6l33.9-19.6v25.7l-33.9 19.6v-25.7z"/><path fill="#fff" d="M1182 529v24.4l-32.9 18.9v-24.4L1182 529m1.1-1.9l-35 20.2v26.9l35.1-20.2v-26.9z"/><path fill="#fcfcfc" d="M1155.6 551.1v.6a3.2 3.2 0 0 1 1.3-1.5c.7-.4 1.1-.4 1.3.1a3.4 3.4 0 0 1 1.4-1.7 1.1 1.1 0 0 1 1.2-.1 1.8 1.8 0 0 1 .4 1.3v3.5l-1.3.8v-3.5c0-.4-.1-.6-.2-.6s-.3-.1-.5.1a1.4 1.4 0 0 0-.8 1v3.8l-1.3.7v-3.4c0-.4 0-.6-.1-.6s-.3-.1-.6.1a1.8 1.8 0 0 0-.8.9v3.9l-1.2.7v-5.4zm8.8.5c-.7.4-1.2.5-1.7.2s-.6-.7-.6-1.6a8.8 8.8 0 0 1 .2-1.6 5.3 5.3 0 0 1 .8-1.5 3.8 3.8 0 0 1 1.2-1 1.4 1.4 0 0 1 1.5-.2 1.9 1.9 0 0 1 .6 1.7v.6l-3.1 1.7c.1.4.2.6.4.7a1.2 1.2 0 0 0 .8-.1 2.4 2.4 0 0 0 1.1-1.3l.7.4a3.6 3.6 0 0 1-.8 1.2 3.1 3.1 0 0 1-1.1.8zm-.1-4.4a.9.9 0 0 0-.6.6 1.9 1.9 0 0 0-.3 1l1.7-1a.8.8 0 0 0-.2-.6.5.5 0 0 0-.6 0zm4.3-4.9v1.3l.8-.5v1.1l-.8.5v2.7c0 .2 0 .3.1.4h.4l.4-.3v1.1a2.1 2.1 0 0 1-.8.6c-.9.5-1.3.3-1.4-.7v-3l-.7.4v-1.1l.7-.4V543zm4.2.3l-.5.2a1.6 1.6 0 0 0-.9 1.1v3.6l-1.3.7v-5.5l1.2-.7v.7a3.3 3.3 0 0 1 1.1-1.4l.4-.2zm.2 1.1a5 5 0 0 1 .3-1.6 3.9 3.9 0 0 1 .8-1.4 4.3 4.3 0 0 1 1.2-1.1 1.7 1.7 0 0 1 1.5-.2 1.6 1.6 0 0 1 .7 1.5v.3a4.8 4.8 0 0 1-.6 2.4 3.8 3.8 0 0 1-1.6 1.7c-.7.4-1.3.5-1.7.2a1.9 1.9 0 0 1-.6-1.7zm1.3-.6c0 .5.1.9.3 1s.4.2.7 0 .5-.4.7-.8a2.9 2.9 0 0 0 .3-1.4 1.6 1.6 0 0 0-.3-1.1c-.2-.2-.4-.2-.7 0a1.6 1.6 0 0 0-.7.9 2.6 2.6 0 0 0-.3 1.4zm-20.5 18.5l-.8.5v2.5l-.5.4v-2.6l-.9.4v-.5l2.2-1.2zm2.6 1.1l-.6.3v-1.3l-1.1.6v1.4l-.5.3v-3.1l.5-.3v1.2l1.1-.6v-1.3l.6-.3zm2.1-2.5l-1.1.6v.8l1.3-.7v.5l-1.9 1v-3.1l1.9-1v.5l-1.3.7v.8l1.1-.6zm1.4.5v-3.1l1-.6c.3-.2.5-.3.7-.2s.3.2.3.5-.1.3-.1.4l-.3.5a.2.2 0 0 1 .3 0c.1.1.1.2.1.4a1.9 1.9 0 0 1-.2.8 2.3 2.3 0 0 1-.7.7zm.6-2.2l.4-.2a.7.7 0 0 0 .4-.6c0-.2 0-.3-.1-.3h-.3l-.4.2zm0 .5v.8l.5-.2.3-.3c0-.1.1-.3.1-.4s-.2-.4-.4-.2zm3.5-2l-1.1.6v.8l1.3-.7v.5l-1.9 1.1v-3.2l1.9-1v.5l-1.3.7v.8l1.1-.6zm1.9-.6a.3.3 0 0 0-.1-.2h-.9c-.3 0-.4-.2-.4-.5a1.3 1.3 0 0 1 .1-.6l.3-.5.5-.4.6-.2.3.2c.1.1.1.2.1.4l-.5.3a.3.3 0 0 0-.1-.2h-.4l-.3.3a.4.4 0 0 0-.1.3.3.3 0 0 0 .1.2h.4a.8.8 0 0 1 .7 0c.2.1.2.2.2.5a2.4 2.4 0 0 1-.2.8l-.7.6-.6.2h-.4a.7.7 0 0 1-.1-.5l.5-.3c0 .3.2.4.6.2l.3-.3c0-.1.1-.2.1-.3zm2.9-3.5l-.8.5v2.6l-.5.3v-2.6l-.9.5v-.5l2.2-1.3zm3.4.7l-.6.3-1-1.4v2l-.6.3v-3.1l.6-.3 1 1.4v-2l.6-.3zm2.1-2.6l-1.1.6v.9l1.3-.8v.6l-1.8 1v-3.1l1.8-1.1v.6l-1.3.7v.7l1.1-.6zm2.6-1l.4-2.5.5-.3-.6 3.5-.5.3-.5-1.8-.4 2.3-.6.3-.6-2.7.6-.4.4 2 .4-2.4.5-.3zm2.6-1.5c0-.1 0-.2-.1-.2h-.8a.5.5 0 0 1-.5-.5.7.7 0 0 1 .1-.5l.4-.6.5-.4h.9c0 .1.1.2.1.4l-.6.4c0-.2 0-.3-.1-.3h-.3c-.2 0-.3.1-.3.2a.6.6 0 0 0-.1.4c0 .1 0 .1.1.1h.4a.8.8 0 0 1 .7 0 .8.8 0 0 1 .2.5 1.3 1.3 0 0 1-.3.8c-.2.2-.4.5-.7.6a.7.7 0 0 1-.6.2h-.3a.8.8 0 0 1-.2-.5l.6-.3c0 .4.1.4.5.2l.3-.2a.8.8 0 0 0 .1-.3zm54.1-39.1c0-.3-.1-.5-.3-.5h-.9l-1.1.2a1.1 1.1 0 0 1-1.1-1.2 3.5 3.5 0 0 1 .3-1.3l.8-1.2 1.3-1a2.8 2.8 0 0 1 1.2-.4.9.9 0 0 1 .8.4 1.3 1.3 0 0 1 .3 1l-1.3.7a.6.6 0 0 0-.3-.6c-.2-.1-.4 0-.8.2l-.7.6a1.6 1.6 0 0 0-.3.8c0 .3.1.4.3.4a1.7 1.7 0 0 0 1 0 2.1 2.1 0 0 1 1.6 0 1.2 1.2 0 0 1 .5 1.1 3.3 3.3 0 0 1-.6 1.9 5 5 0 0 1-1.7 1.5 4.3 4.3 0 0 1-1.3.5 1.3 1.3 0 0 1-1-.4 1.3 1.3 0 0 1-.3-1l1.3-.8c0 .8.5 1 1.3.5a2.2 2.2 0 0 0 .7-.6 1.3 1.3 0 0 0 .3-.8zm5-1.5a3.5 3.5 0 0 1-1.3 1.4c-.5.3-.9.4-1.2.2s-.4-.6-.4-1.3v-3.6l1.3-.7v3.5c0 .6.2.8.6.5a1.5 1.5 0 0 0 .9-1V503l1.3-.7v5.5l-1.2.6zm3.3-6.8v.6a4.4 4.4 0 0 1 1.4-1.6c.5-.3.9-.3 1.1-.1s.4.6.4 1.3v3.6l-1.3.7v-3.5c0-.3 0-.5-.1-.6s-.3 0-.6.1a2 2 0 0 0-.8 1v3.9l-1.3.7v-5.5zm-13.4 18.9l-.4.2v1l-.4.2.2-1-.5.2v-.3l.5-.3v-.7l-.4.3v-.4l.5-.3v-.9l.3-.2v.9l.4-.2v-.9l.3-.2v.9l.4-.2v.4l-.5.2v.7l.5-.2v.3l-.5.3v1l-.4.2zm-.3-.2l.3-.2v-.7l-.4.2zm2.8-.4l-.6.3v-2.3l-.6.5v-.5l1.1-1.1h.1zm2.4-1.4l-.5.3v-3.1l.5-.3zm2.7-1.6l-.5.4-1.1-1.5v2.1l-.6.3v-3.1l.6-.3 1.1 1.4v-2.1l.5-.3zm3.7-2.1l-.6.4-1.1-1.5v2.1l-.5.3v-3.1l.5-.3 1.1 1.4v-2l.6-.4zm2.1-2.5l-1.1.6v.8l1.3-.7v.5l-1.8 1.1v-3.2l1.8-1v.5l-1.3.7v.8l1.1-.6zm2.6-1.1l.3-2.4.6-.3-.6 3.4-.6.4-.4-1.9-.4 2.4-.6.3-.6-2.8.6-.3.3 2 .5-2.5.4-.2zm2.6-1.4c0-.1 0-.2-.1-.2h-.9c-.3 0-.4-.1-.4-.5a1.1 1.1 0 0 1 .1-.5l.4-.5a1 1 0 0 1 .5-.4l.5-.2.3.2a.5.5 0 0 1 .2.4l-.6.3a.4.4 0 0 0-.1-.3h-.3l-.4.3c0 .1-.1.2-.1.3a.2.2 0 0 0 .2.2h.4q.5-.2.6 0a.5.5 0 0 1 .3.5 1.1 1.1 0 0 1-.3.7l-.7.7-.6.2c-.2 0-.3 0-.4-.2s-.1-.2-.1-.4l.5-.3c0 .3.2.4.6.2l.3-.3a.4.4 0 0 0 .1-.2z"/><path fill="#fff" d="M1106.5 467.1v1.6c.9-.7 2-.6 3.4.2a6.9 6.9 0 0 1 3.2 3.9c.8-.9 2-.9 3.5 0a6.8 6.8 0 0 1 2.9 2.9 10.3 10.3 0 0 1 1 4.5v8.7l-3.2-1.8v-8.8a3.8 3.8 0 0 0-.4-1.9 3 3 0 0 0-1.4-1.3c-1-.6-1.6-.4-2 .4v9.4l-3.1-1.8v-8.7a5.4 5.4 0 0 0-.4-2 3.5 3.5 0 0 0-1.4-1.3c-.9-.6-1.6-.5-2 .1v9.7l-3.1-1.8v-13.7zm6.2 39.5a11.8 11.8 0 0 1-5.9-10.1v-.4a6.5 6.5 0 0 1 .7-3.3 2.3 2.3 0 0 1 1.9-1.3 4.8 4.8 0 0 1 2.9.7 11.5 11.5 0 0 1 3.9 4 12.5 12.5 0 0 1 1.3 5.9v1.5l-7.5-4.4a7.2 7.2 0 0 0 .9 2.7 5.2 5.2 0 0 0 2 1.9c1.2.7 2.2.8 2.8.1l1.6 2.9a2.2 2.2 0 0 1-1.9.8 6.9 6.9 0 0 1-2.7-1zm-.4-11.4a1.4 1.4 0 0 0-1.5-.2 2.5 2.5 0 0 0-.8 1.7l4.4 2.6v-.3a5.1 5.1 0 0 0-.5-2.2 4.1 4.1 0 0 0-1.6-1.6zm1 16.5v3.4l2 1.2v2.6l-2-1.1v6.8a3.7 3.7 0 0 0 .2 1.2 3 3 0 0 0 1 .9l.9.5v2.7a8.9 8.9 0 0 1-1.9-.7 6.7 6.7 0 0 1-3.4-5.9v-7.4l-1.7-1v-2.6l1.7 1v-3.4zm2.6 30.3l-1.2-.7c-1.2-.7-2-.7-2.3 0v9l-3.2-1.9v-13.6l3 1.7v1.7a1.7 1.7 0 0 1 2.6-.4l1 .7zm-9.5 19.9a6.9 6.9 0 0 1 .7-3.2 2.6 2.6 0 0 1 2-1.4 4.6 4.6 0 0 1 2.9.9 11.5 11.5 0 0 1 4 3.9 13.5 13.5 0 0 1 1.7 5.6v1c0 2.1-.5 3.4-1.6 4.1s-2.3.6-4-.4a10.6 10.6 0 0 1-4.1-4.3 12.5 12.5 0 0 1-1.6-6zm3.2 2.1a8.1 8.1 0 0 0 .6 3.3 4.4 4.4 0 0 0 1.9 2.1 1.3 1.3 0 0 0 1.8 0 4.4 4.4 0 0 0 .6-2.8 9 9 0 0 0-.6-3.4 5.5 5.5 0 0 0-1.9-2.1 1.5 1.5 0 0 0-1.8 0 4.8 4.8 0 0 0-.6 2.9z"/><path fill="#4e4545" d="M1183.1 466.4l-1.8 1.1v53.8l1.8-1v-53.9z"/><path fill="#655c5a" d="M1148.2 540.5v-2.4l33.1-19.2 1.8 1.4-34.9 20.2z"/><path fill="#4e4545" d="M1254.5 425.8l-1.9 1v53.9l1.9-1.1v-53.8z"/><path fill="#655c5a" d="M1219.5 499.8v-2.4l33.1-19.1 1.9 1.3-35 20.2z"/><path fill="#5d4037" d="M764.1 562.5l47-27.1v15.8l-47 27.1v-15.8z"/><path fill="#ffcc80" d="M783.3 555.7l17.2-9.8v7.6l-17.2 9.8v-7.6z"/><path fill="#5d4037" d="M766.4 562.5l-2.3 1.3v-8.9l2.3-1.3v8.9z"/><path fill="#ff8a65" d="M796.9 553l-9.7 5.6v-2.4l9.7-5.6v2.4z"/><path fill="#5d4037" d="M766.8 579.9l42.3-24.4v9.7l-42.3 24.4v-9.7z"/><path fill="#5d4037" d="M768.9 584.8l38.1-21.9v8.7l-38.1 22v-8.8z"/><path fill="#5d4037" d="M770.8 588.6l34.3-19.8v7.9l-34.3 19.7v-7.8z"/><path fill="#5d4037" d="M772.5 592.5l30.9-17.8v7.1l-30.9 17.8v-7.1z"/><path fill="#5d4037" d="M774.1 595.7l27.7-16v6.4l-27.7 16v-6.4z"/><path fill="#212121" d="M745.7 648.8v-3.5l9.2 5.3.1 3.4-9.3-5.2z"/><path fill="#212121" d="M755 654l-.1-3.4 9.4-5.4v3.4L755 654z"/><path fill="#212121" d="M758.1 652.4c-1 0-1-1.2-1-1.6a5.9 5.9 0 0 1 2.6-4.6l1.1-.3c1 0 1.1 1.1 1.1 1.5a6 6 0 0 1-2.7 4.6 3 3 0 0 1-1.1.4z"/><path fill="#212121" d="M760.8 646.4c.4 0 .5.6.5 1a5.6 5.6 0 0 1-2.4 4.2l-.8.2c-.4 0-.5-.6-.5-1a5.2 5.2 0 0 1 2.4-4.1l.8-.3m0-1.1a2.2 2.2 0 0 0-1.3.4 6.3 6.3 0 0 0-3 5.1c0 1.3.7 2.1 1.6 2.1a2.7 2.7 0 0 0 1.4-.4 6.4 6.4 0 0 0 2.9-5.1c0-1.3-.7-2.1-1.6-2.1z"/><path fill="#212121" d="M762.7 646.2l-1.3-.8-4.1 7.3 1.3.7 4.1-7.2z"/><path fill="#fff" d="M759.2 653c-1 0-1-1.2-1-1.5a6.3 6.3 0 0 1 2.6-4.7l1.1-.3c1 0 1 1.2 1 1.6a6.1 6.1 0 0 1-2.6 4.6z"/><path fill="#212121" d="M761.9 647.1c.4 0 .5.6.5 1a5.4 5.4 0 0 1-2.4 4.1l-.8.3c-.4 0-.5-.7-.5-1a5.6 5.6 0 0 1 2.4-4.2l.8-.2m0-1.1a2.7 2.7 0 0 0-1.4.4 6.4 6.4 0 0 0-2.9 5.1c0 1.3.7 2.1 1.6 2.1a3.3 3.3 0 0 0 1.3-.4 6.4 6.4 0 0 0 3-5.1c0-1.4-.7-2.1-1.6-2.1z"/><path fill="#5d4037" d="M1022.9 428.4l27-15.6-8.4-82.5 8.7-43.2 64.3-42.5 7.3-74.5-13.5 8.8-7.5 61.5-47.5 29.4 19-98.8-15.1 7.9-31.6 151.4-2.7 98.1zm-36.5-224.2l-8 55.6 29.5 45.3 6.6-21.1-23.3-29.4 8.8-58.2-13.6 7.8z"/><path fill="#6d4c41" d="M1022.9 428.4l-22.7-13 8.6-85.1L963 262l11.6-80.6 11.8 22.8-8 55.6 29.5 45.3 39.6-129.7 9.7 3.5-31.6 151.4-2.7 98.1zm85.4-249.5l-13.8-3.5-7.3 62.8-30.8 16.4-3.1 15.2 47.5-29.4 7.5-61.5z"/><path fill="#6d4c41" d="M1038 141l-8.7-5.5-35.9 34.6-32.1-24.4-9.5 6.4 22.8 29.3 11.8 22.8L1038 141z"/><path fill="#5d4037" d="M1000 196.4l49.5-58.2-11.5 2.8-51.6 63.2 13.6-7.8z"/><path fill="#8d6e63" d="M1029.3 135.5l14.1-1.3 6.1 4-11.5 2.8-8.7-5.5z"/><path fill="#5d4037" d="M961.3 145.7l6-2.5 31.2 22-5.1 4.9-32.1-24.4z"/><path fill="#6d4c41" d="M1108.3 178.9l-13.4-40.7-8.7 8.5 8.3 28.7 13.8 3.5z"/><path fill="#5d4037" d="M1121.8 170.1l-18.4-35.9-8.5 4 13.4 40.7 13.5-8.8z"/><path fill="#8d6e63" d="M1072.3 171c-4.2 0-10.7-3.7-10.7-3.7l-14.1 8.1 9.7 3.5"/><path fill="#5d4037" d="M234.1 883.9l27-15.7-8.4-82.5 8.7-43.2 64.3-42.5 7.3-74.5-13.5 8.8-7.5 61.5-47.5 29.4 19-98.7-15.1 7.8-31.6 151.4-2.7 98.2zm-36.5-224.3l-8 55.6 29.5 45.3 6.6-21.1-23.3-29.4 8.8-58.2-13.6 7.8z"/><path fill="#6d4c41" d="M234.1 883.9l-22.7-13.1 8.6-85.1-45.8-68.3 11.6-80.6 11.8 22.8-8 55.6 29.5 45.3 39.6-129.7 9.7 3.5-31.6 151.4-2.7 98.2zm85.4-249.6l-13.8-3.5-7.3 62.8-30.8 16.4-3.1 15.2 47.5-29.4 7.5-61.5z"/><path fill="#6d4c41" d="M249.2 596.4l-8.7-5.5-35.9 34.6-32-24.4-9.6 6.4 22.8 29.3 11.8 22.8 51.6-63.2z"/><path fill="#5d4037" d="M211.2 651.8l49.5-58.2-11.5 2.8-51.6 63.2 13.6-7.8z"/><path fill="#8d6e63" d="M240.5 590.9l14.1-1.3 6.1 4-11.5 2.8-8.7-5.5z"/><path fill="#5d4037" d="M172.6 601.1l5.9-2.5 31.2 22-5.1 4.9-32-24.4z"/><path fill="#6d4c41" d="M319.5 634.3l-13.4-40.7-8.7 8.5 8.3 28.7 13.8 3.5z"/><path fill="#5d4037" d="M333 625.5l-18.4-35.9-8.5 4 13.4 40.7 13.5-8.8z"/><path fill="#8d6e63" d="M283.5 626.5c-4.2 0-10.7-3.8-10.7-3.8l-14.1 8.1 9.7 3.5"/><path fill="#2f2829" d="M179.7 799.7l2.1-.5s3 3.8 2.7 6.4a95.2 95.2 0 0 1-2 14.4l-1.2.6-1.6-20.9"/><path fill="#4e4545" d="M179.7 799.7a7.1 7.1 0 0 0-2.7 2.6c-.8 1.5-.4 8 2 17l2.3 1.3s2.5-12.7 1.2-16.3c0 0-1.3-4-2.8-4.6z"/><path fill="#2f2829" d="M191.7 806l2.1-.5s2.9 3.8 2.7 6.3a95.5 95.5 0 0 1-2 14.5l-1.2.6-1.6-20.9"/><path fill="#4e4545" d="M191.7 806a7.4 7.4 0 0 0-2.7 2.5c-.8 1.6-.4 8.1 1.9 17.1l2.4 1.3s2.5-12.7 1.1-16.3c0 0-1.3-4-2.7-4.6z"/><path fill="#fcfcfc" d="M201 837.7a8.6 8.6 0 0 1-.2-2.2c-.3-6.1-6.8-10.4-12.4-7.1q-1.2.8-.3.3h-.4a2 2 0 0 1 1.9.9l-1.1-1.1a20 20 0 0 0-7.1-4.7l3.6 13.7c-.3.3-1.3.9-.3.4a9.3 9.3 0 0 0 4-9.9 8.7 8.7 0 0 0-10.7-6c-7 2.1-7.8 11.1-2 15a9.1 9.1 0 0 0 5.6 1.5c8.1-.3 11.2-10.9 4.1-15.3a9.9 9.9 0 0 0-9.4-.9c-3.6 1.7-5 4.6-5.5 8.5s4.2 8.4 8.2 8.2 7.7-3.6 8.2-8.2v-.5l-2.4 5.8.4-.4-3.6 2.1.5-.2h-4.4l-.4-.2 4.2-15.3h-.8l4.2 1.1-.7-.4-1.9 15h.3l-6.4-.8.3.2-3.8-4.9v.3l.8-6.3-.3.4 3-2.9a9.3 9.3 0 0 0-3 2.2c-4.4 4.9-2.2 11.4 3.6 13.7-.7-.3-1.5-1-.6 0a8 8 0 0 0 1.3 1.3 16.1 16.1 0 0 0 6 3.6c4.3 1.4 9.2.3 13-2l-12.4-7.1c.1.7.1 1.4.2 2.2.5 4.2 3.4 8.4 8.2 8.2s8.8-3.7 8.3-8.2z"/><path fill="#4e4545" d="M172.6 820.6l1.6-.5s2.5 3.1 2.2 5.2a70.5 70.5 0 0 1-1.6 11.8l-.9.6-1.3-17.1"/><path fill="#655c5a" d="M172.6 820.6a6.3 6.3 0 0 0-2.3 2c-.6 1.3-.3 6.6 1.6 14l2 1.1s2-10.4.9-13.4c0 0-1.1-3.3-2.2-3.7z"/><path fill="#4e4545" d="M182.3 825.7l1.7-.4s2.5 3.1 2.2 5.2a70.5 70.5 0 0 1-1.6 11.8l-.9.5-1.4-17.1"/><path fill="#655c5a" d="M182.3 825.7a6 6 0 0 0-2.2 2.1c-.6 1.3-.3 6.6 1.6 13.9l2 1.1s2-10.4.9-13.3c0 0-1.1-3.3-2.3-3.8z"/><path fill="#fcfcfc" d="M185.4 841.5h-.3l1.3.6-.2-.2 1.1.9-.2-.2.9 1.1c-.1-.1-.1-.2-.2-.2l.6 1.3c0-.1-.1-.2-.1-.3a5.5 5.5 0 0 0-2.5-3.3 5.2 5.2 0 0 0-4.2-.5 5.5 5.5 0 0 0-3.3 2.5l-.5 1.3a4.8 4.8 0 0 0 0 2.9 6.5 6.5 0 0 0 4.7 4.8 5.2 5.2 0 0 0 4.2-.6 5.4 5.4 0 0 0 2.5-3.2 5.6 5.6 0 0 0-.5-4.2 6.1 6.1 0 0 0-3.3-2.6zm-10.5 3.8l.6-.3-7.5-1.9v.2l-.5-1.3v.2l-.2-1.5v.3l.2-1.5c0 .1 0 .1-.1.2l.6-1.3c0 .1-.1.1-.1.2l.8-1.1h-.1l1.2-.9h-.2a6.1 6.1 0 0 0-2.6 3.3 5.6 5.6 0 0 0 .6 4.2 5.7 5.7 0 0 0 3.3 2.6l1.4.2a6 6 0 0 0 4.6-2.4 9.4 9.4 0 0 0 1.2-2.2 8.6 8.6 0 0 0 0-3.2 9.6 9.6 0 0 0-.7-1.8 5.4 5.4 0 0 0-1.4-1.3 4 4 0 0 0-1.8-1l-1.5-.2a5 5 0 0 0-2.7.8l-.7.3a5.8 5.8 0 0 0-2.5 3.2 5.9 5.9 0 0 0 .6 4.3 5.7 5.7 0 0 0 3.2 2.5l1.5.2a5.7 5.7 0 0 0 2.8-.8zm17-12.5c3.5 0 3.5-5.5 0-5.5s-3.5 5.5 0 5.5z"/><path fill="#fcfcfc" d="M194.6 830.8c-.1.1-.3.5-.1.2h.1c-.3.3-.1 0 0 0l.3-.3a2.7 2.7 0 0 0 .4-3.3 3.2 3.2 0 0 0-2.9-1.7 2.8 2.8 0 0 0-2.7 2.8 2.7 2.7 0 0 0 2.7 2.7h.8a2.8 2.8 0 0 0 2.7-2.7 2.8 2.8 0 0 0-2.7-2.8h-.8v5.5l-1.8-1.1.4-3.3a6.9 6.9 0 0 0-1.7 2.7 2.3 2.3 0 0 0 .3 2.1 2.5 2.5 0 0 0 1.6 1.2 2.6 2.6 0 0 0 2.1-.2 4.3 4.3 0 0 0 1.3-1.7zm-13.8-11.6h-.4a2.9 2.9 0 0 0-2.8 2.8 2.8 2.8 0 0 0 2.8 2.7h1a2.7 2.7 0 0 0 2.8-2.7 2.9 2.9 0 0 0-2.8-2.8h-1a2.9 2.9 0 0 0-2.8 2.8 2.8 2.8 0 0 0 2.8 2.7h.4a2.8 2.8 0 0 0 2.8-2.7 2.9 2.9 0 0 0-2.8-2.8zM420 667.6a19.4 19.4 0 0 1 7.3 5 20.4 20.4 0 0 0 6.2 5.1c6.5 3.6 13.2 7 19.8 10.5a140.3 140.3 0 0 0 18.1 8.3c5.7 1.9 7.1 9.2 14.3 8.5s7-11.7 0-11c-1 .1-3.9-4.7-4.8-5.4-2.5-1.8-5.4-2.3-8.2-3.2-6.1-2-11.7-5.5-17.3-8.5s-12.2-5.7-17.6-9.3c-1.9-1.3-3-3.2-4.7-4.8a30.6 30.6 0 0 0-7.5-4.7c-6.3-3.1-11.9 6.4-5.6 9.5zm680.5-231.3c1.4-1.4 2.9-3.2 4.7-4s4-.5 6-.8c5.9-1.1 9-5.3 14-7.8s8.9-2.7 13.1-4.8 6.3-6.3 10.3-6c5.9.4 10.9-5.4 10.9-11s-5-10.5-10.9-10.9c-8.1-.6-12.9 3.1-19 7.6-3.9 2.9-9.7 3.4-14.1 5.5-2.8 1.3-4.8 3.5-7.4 5.1s-3.4.8-6.2 1.3c-6.7 1.3-12 5.6-16.9 10.3-10.1 9.8 5.4 25.3 15.5 15.5z"/><path fill="#fcfcfc" d="M1109 446.3c4-2.4 8-5 12.4-6.6s9.1-1.6 14.1-1.8 11.2-1.3 15.9-4.6 5.2-5.6 10.1-5l-5.5-20.4c-7.6 4.3-15.2 8.9-22.6 13.6s-15.4 9.1-21.3 15.3-3.5 16.5 4.9 18.3c10.8 2.4 20.3-.3 29.3-6.4 3.5-2.4 6.7-4.7 11-5.4s9-.4 13.5-.2l-2.9-21.5a200.5 200.5 0 0 1-40.1 11.1c-7.9 1.3-15.2 6.9-12.6 16 2.2 7.4 10.7 10.6 17.4 12.9l-7.7-13.5c-2.1 7.2-.1 14 4.8 19.5 3.5 3.9 9 3.7 13.3 1.7s9.6-6 14.4-9 9-3.6 14.7-3.6c14.1-.1 14.1-22 0-21.9-8.2 0-15.9 1-23.2 5s-10.8 7.7-17 10.6l13.3 1.7c-.8-.9.9 1.6.9 1.8 1.7-5.9-2.2-11.6-7.7-13.5a17.8 17.8 0 0 1-4.7-1.9l2.9 4.9-.4-1.1-1.1 8.5.4-.9-4 4c-2 1.1 2.4-.1 3-.2l5.5-1q5.9-1.2 11.7-2.7a189 189 0 0 0 22-7.3c11.2-4.4 10-20.8-2.9-21.5-9.8-.5-19.5-.2-28.4 4.2-6.3 3.1-12.1 10.2-19.6 8.6l4.8 18.3c5-5.3 12.4-9 18.5-12.9s13.9-8.5 21-12.6a11.1 11.1 0 0 0 5-12.4c-1.4-5-5.7-7.4-10.6-8a24.1 24.1 0 0 0-16.5 4.1c-2.2 1.4-4.2 4.3-6.7 5.2s-4.3.3-6.1.3c-12.8.3-23.3 4.9-34.2 11.3s-1.2 26.2 11 19zm60-48.8c8.6-5.6 17.2-11.1 25.9-16.5l12.5-7.7a18 18 0 0 1 4.9-2.2c3.6-.8 1.9 1.3-.4-2.8l-1.1-8.5-.5 1.1 5.1-6.5c-9.1 5.6-20.9 5.4-30.1 10.6-5.4 3.1-8.6 9-11.7 14s-6.6 12.9-2.8 19.6c8.2 14.2 23.2 0 32.6-4.5s18-8.1 28.9-6.3l-4.9-18.3c-2.6 2.1-8.2 2.4-11.6 3.3a35.4 35.4 0 0 0-15.6 7.8c-3.1 2.9-5.2 7.2-8.3 9.8s-4.5 2.4-6.5 4.2a14.1 14.1 0 0 0-5 8.7c-1.2 7 3.6 13.6 10.4 15.4s12.9-2.3 18.6-6.3 10.1-4.2 15.2-5.6 12.8-3.3 19.4-3.5l-5.5-20.4-19.2 8.9c-5.6 2.6-10.4 5.7-13.2 11.5-.7 1.5-1 2.6-2 3.5s-5.5 2.6-7.8 4.8c-5 5-7.1 13.9-2.6 19.8 2.9 3.8 7.4 6.7 12.4 5.1a75.4 75.4 0 0 0 24.7-13.5 38.9 38.9 0 0 0 4.8-4.3 18.9 18.9 0 0 0 2-2l-2.1.5c.5-.6 6.1 0 7 0h7.4l-9.4-16.5c-.9 1.6-.6 1.5.8-.5-11.9 7.5-.9 26.4 11.1 18.9a18.2 18.2 0 0 0 7-7.3c3.4-7.4-.6-16.5-9.5-16.5-5-.1-10.1-.4-15.1 0s-9.6 2.8-13.5 6.7a52.1 52.1 0 0 1-21 13.2l12.3 5.1a14.9 14.9 0 0 0-.8 6.9l2.7-1.3a23.5 23.5 0 0 0 5.8-4.1 20.6 20.6 0 0 0 3.9-5.7c.2-.5 2.5-4.7 1.3-3.2s2.4-1.1 3.1-1.5l7-3.2 13.9-6.5c10-4.7 5-20.8-5.5-20.4s-19.4 2.6-28.9 5.3a91.4 91.4 0 0 0-12.4 4.4 25.7 25.7 0 0 0-5.7 3.5 28.3 28.3 0 0 1-2.8 2c-3.3 1.8-1.7 2.5 5.1 2.4l2.8 4.8v.9l-1.5 5.5c-.2.6-1.7.9-.4.6s2.2-1.2 2.8-1.5a30.7 30.7 0 0 0 5.8-5c2.6-3 4.6-6.9 8.1-8.9s7.5-2.1 11.1-3a38 38 0 0 0 14.9-7.4c6.2-4.9 2.9-17.1-4.8-18.4-11.3-1.8-21.7-1.8-32.5 2.6-5 2.1-10 4.3-14.8 6.7l-6.3 3.4c-1.5.9-4.3 3.6-5.8 4.1h5.9l-1.2-.5 6.6 5.1-.5-.9 1.5 5.5c-.7.9-.7.9-.1-.1a8.6 8.6 0 0 0 1-1.6l2.7-4.2c.7-1 1.3-2.2 2-3s-2.7.7.7-.1a156.6 156.6 0 0 0 16.1-4.9c5.6-2 13.8-3.9 16.9-9.3 4.1-7 .9-14.5-5.8-17.9-11.9-6.2-24 .3-34.2 6.6s-21.7 13.5-32.4 20.5-.8 26.6 11.1 18.9zM751.8 582.1l-.3.2 1.2-.8-.6.3 1.3-.6-.5.2 1.4-.2h-.4l1.4.2h-.1a3.3 3.3 0 0 0-2.2-.1 3.6 3.6 0 0 0-2 .6 5.7 5.7 0 0 0-2.6 3.3 5.6 5.6 0 0 0 .6 4.2 5.2 5.2 0 0 0 3.3 2.5 7.4 7.4 0 0 0 3.9-.1 6.9 6.9 0 0 0 3.3-1.9 5.7 5.7 0 0 0 1.6-3.9 5.9 5.9 0 0 0-1.6-3.9 5.4 5.4 0 0 0-7.7 0z"/><path fill="#fcfcfc" d="M753.7 576.9a14.7 14.7 0 0 0-8.7 3.8l9.1 2.4a10 10 0 0 0-1.9-3.5 6.2 6.2 0 0 0-3.9-1.6 7.1 7.1 0 0 0-3.9 1.6 11.3 11.3 0 0 0-2.4 3 5.4 5.4 0 1 0 9.4 5.5c.6-.8-.4.4 0 0l.8-.7h-7.8l-.9-1.4c1.1 4.2 6.2 5.1 9.2 2.4.4-.4.4-.1 0 .1s1.2-.8.5-.4.3-.1.4-.1 1.3-.2.1-.1c2.9-.3 5.6-2.3 5.5-5.5s-2.4-5.8-5.5-5.5zm26-24.2l-.4 1.2a2.8 2.8 0 0 0 5.3 1.5l.4-1.2a2.7 2.7 0 0 0-1.9-3.4 2.8 2.8 0 0 0-3.4 1.9z"/><path fill="#fcfcfc" d="M782.1 552.2l-.5.8a2.6 2.6 0 0 0-.3 2.1 2.7 2.7 0 0 0 1.2 1.7 3.1 3.1 0 0 0 2.1.3 3.7 3.7 0 0 0 1.7-1.3l.6-.8a3 3 0 0 0 .3-2.1 2.9 2.9 0 0 0-1.3-1.6 2.6 2.6 0 0 0-2.1-.3 3.3 3.3 0 0 0-1.7 1.2z"/><path fill="#fcfcfc" d="M787.1 549.5h-.4a2.7 2.7 0 0 0-2.7 2.7 2.8 2.8 0 0 0 2.7 2.8h.4a2.8 2.8 0 0 0 2.7-2.8 2.7 2.7 0 0 0-2.7-2.7z"/><path fill="#fcfcfc" d="M785.7 554.8c3.5 0 3.5-5.5 0-5.5s-3.5 5.5 0 5.5z"/><path fill="#fcfcfc" d="M787.4 554.1c1.9-.9 3.8-1.8 5.6-2.8s4-3 4-3c3.1 1.6 5.9-3.1 2.8-4.8s-4.9-.6-6.9 1.1-5.3 3.3-8.2 4.8-.4 6.2 2.7 4.7zm29.8 173.2a11.8 11.8 0 0 0-4.2.4l-2 .8-1 .6c1.2.2 1.5.1.9-.2-1.5-2.1-5-1.2-6.1.7s2 5.4 4.3 3.3l2.3-2.3c2.6-2.4-1.3-6.3-3.8-3.8l-2.4 2.2 4.3 3.3c-.4.7-2.3.1-1.8 1a4.1 4.1 0 0 0 1.3.8 4.9 4.9 0 0 0 2.7.2c.8-.3 1.4-.8 2.1-1.1a7.8 7.8 0 0 1 3.4-.4c3.5.2 3.5-5.3 0-5.5zm27.2-14.7l-2.1 2 2.6-.7a9.7 9.7 0 0 0-7.8 1.1l4 1.6c-.7-1.9-2.3-3.1-4.4-2.4l3.5 2.7a6 6 0 0 1 2.4-3.8l-4.6-2.6a26.9 26.9 0 0 0-3.8.2 9.7 9.7 0 0 0-3.6 1.6c-2.9 2-.2 6.7 2.7 4.7s4-.7 6.2-1.3a5.2 5.2 0 0 0 3.8-3.8c.8-2.8-2.6-4.2-4.6-2.6a11 11 0 0 0-4 7.6c-.2 1.7 2 3.1 3.5 2.6h.4l-2.1-.3.4.2-1.2-1.6v.4a2.8 2.8 0 0 0 4.1 1.6c1.5-.9 2.6-.4 4.3-.5s2.9-1.7 4.1-2.7-1.3-6.2-3.9-3.9zm-229.1 20.1c.8-2.1 4.7-2.5 6.5-3.1a24.4 24.4 0 0 0 7.8-3.7c2-1.5 3.3-3.7 5.3-5.1s5.6-2.4 8.4-3.4a54.2 54.2 0 0 0 13.8-7.5c2.1-1.6 4-3.5 6.5-4.5s5.9-1.3 8.8-2.3a39 39 0 0 0 12.9-7.9c2.2-1.9 4.2-4.1 6.9-5.3a44.7 44.7 0 0 1 6.3-1.6c4.3-1 8.3-2.8 10.9-6.5s2.4-5.1 5-6.9a35.6 35.6 0 0 1 7.2-3.1c6.7-2.2 3.8-12.7-2.9-10.5-5.1 1.7-10.4 3.6-14.2 7.7-1.8 2-2.6 5.4-4.6 7.1s-4.7 1.7-6.9 2.2a30.1 30.1 0 0 0-13.7 7.6c-5.1 4.5-9.6 6.6-16.2 8.3s-9.8 5.3-14.8 8.6-11.2 4.6-16.8 7.3a24.5 24.5 0 0 0-6.5 5c-2.4 2.6-4.4 3.4-7.7 4.4-5.8 1.8-10.3 4.4-12.6 10.3s8.1 9.5 10.6 2.9zm7.8 16.4l34.3-18.4c9.9-5.3 19.8-10.5 28.5-17.8 5.4-4.5-2.4-12.2-7.8-7.7-8.3 6.9-18.2 11.7-27.6 16.8l-32.9 17.7c-6.2 3.3-.7 12.8 5.5 9.4z"/><path fill="#fcfcfc" d="M685 711.9c7.8-1.8 15.7-3.7 22.5-7.9s12.5-12.1 20.6-12.7 7.1-11.5 0-11c-9 .7-15 5.8-21.8 11.2s-15.5 7.8-24.2 9.8c-6.9 1.6-4 12.1 2.9 10.6zM639.8 759c9.5-4.3 18.4-8.8 26.4-15.5 3.6-3 8.4-4.1 12.4-6.6s9.1-6.5 14.3-8.7 10-3.5 14.7-5.9 8.6-5.2 12.9-7.9a68.9 68.9 0 0 1 13.9-6.8 19.1 19.1 0 0 0 5.4-3c1.3-1.1 3.5-5.8 5.3-5.6 7 .7 7-10.3 0-10.9s-8.1 3.8-11.9 7.6c-1.6 1.6-3.9 2-6 2.8a69.7 69.7 0 0 0-7.3 3.5c-4.6 2.6-8.9 5.6-13.4 8.4s-10.9 4.9-16.5 7.2a78.7 78.7 0 0 0-14.1 8c-4.2 2.9-9 4.3-13.3 6.9s-8.4 6.9-13.2 9.6a124.1 124.1 0 0 1-15.1 7.4c-6.4 2.9-.9 12.4 5.5 9.5zm251.4-194.9c-5.7 1.5-11.8 2.5-17.4 4.7s-7.8 4.9-10.8 9.1-7.5 6.5-11.9 9.2l-17.3 10.6c-6 3.6-.5 13.1 5.6 9.4l15.6-9.5c4.3-2.7 9.1-5.2 12.9-8.6s4.8-7.6 8.8-9.6 11.8-3.3 17.4-4.7 4-12.3-2.9-10.6zm15.7 7.8c-3.4 1.8-7.2 1.9-10.9 3a21.5 21.5 0 0 0-9.3 5.5c-5.4 5.1-10.1 10.2-16.5 14.2s-13.2 5.3-19.2 8.9a32.4 32.4 0 0 0-7.9 7.3c-2.3 2.8-4.8 6.4-8.7 6.5-7.1.3-7.1 11.3 0 11 8.7-.4 13-6.2 18.5-12.1s13.5-6.9 19.9-10.5a78.9 78.9 0 0 0 18.1-13.8c3.1-3.2 5.2-5.8 9.6-6.9s8.1-1.6 11.9-3.6c6.3-3.2.8-12.7-5.5-9.5zm18 11.6c-5.9 2.4-12.3 4.3-18 7.3s-5.5 8.9-10.8 10.5-3.8 12.6 3 10.6 8.5-5 11.6-9.8c1.6-2.3 4.1-2.8 6.8-3.9l10.3-4.1c6.5-2.6 3.7-13.2-2.9-10.6zm-45.3 27.4c-5.4 1.7-10.9 3.5-15.6 6.6a33 33 0 0 0-6 5.2c-1.6 1.9-2.7 4.3-5 5.4-6.3 3.2-.8 12.6 5.5 9.5 4.5-2.2 6.2-6.7 9.9-9.7s9.2-4.9 14.1-6.4c6.7-2.1 3.8-12.7-2.9-10.6z"/><path fill="#e0f7fa" d="M758.3 524.9a5.3 5.3 0 0 0 4.6-.4c1.7-.9 2.4-2.5 3.8-3.7s3.2-1.3 4.7-2.1 2.3-2.4 3.9-3.1c3.7-1.5 8-2.1 11.9-3.2s5.9-2.3 6.8-5.5l-3.3 1.9a6 6 0 0 0 7.6-4.3c1-3.4-4.3-4.9-5.2-1.5-.2.5-.5.7-1 .5a2.9 2.9 0 0 0-3.4 1.9c-.5 2-5.8 2.5-7.5 2.9s-6.1 1.3-8.7 2.6a11.4 11.4 0 0 0-3 2.3 10.2 10.2 0 0 1-3.6 1.8 12.3 12.3 0 0 0-3.1 1.9c-.7.7-1.9 3.1-3.1 2.7-3.3-1.2-4.7 4.1-1.4 5.3zm22.6 30.9c.8 1.2 2.2 1.9 3.5 1.1s.8-1 1.2-1.6 1.6-1.1 2.5-1.5l6.8-3.1c2-.9 4.1-1.6 4.8-3.7l-1.3 1 1.6.3c1.7.4 2.4-2.3.7-2.7a6.1 6.1 0 0 0-2.3-.3 1.3 1.3 0 0 0-1.3 1c-.3.8-.3.4-1.1.8l-2.5 1.3-4.7 2.1c-1.2.5-6.6 2.1-5.5 3.9-.9-1.5-3.3-.1-2.4 1.4zm-22.6 28.3c-.3 1.3-.3 3-1.6 3.8a5.3 5.3 0 0 1-4.4.6l-.8 2.7a19.1 19.1 0 0 0 5.3.5c1.7-.1 1.7-2.9 0-2.7a13.5 13.5 0 0 1-4.5-.5 1.4 1.4 0 0 0-.8 2.7c2.2.9 4.6.1 6.6-1s2.3-3.2 2.8-5.4-2.3-2.4-2.6-.7zm-9.7 3.2h-2.7a1.4 1.4 0 0 0-1.2 2.1 3.3 3.3 0 0 0 4.1 1c1.5-.9.1-3.3-1.4-2.4h-.2c.1 0-.2-.1-.1-.1s-.2-.2 0 .1l-1.2 2.1h2.7a1.4 1.4 0 0 0 0-2.7zM610 735.5a6.9 6.9 0 0 0 4.6-1.3c1.9-1.2 2.8-3.6 4.9-4.4s4.4-.4 6.4-1.1a22.9 22.9 0 0 0 5.3-2.9c8.8-5.7 17.3-12.1 27.2-15.7a39.6 39.6 0 0 0 10.7-5.3 67.6 67.6 0 0 1 13.6-7.8c4.7-2.3 9.3-5.1 13.9-7.6a44.8 44.8 0 0 0 6-3.5c1.2-1 2.8-4.4 4.3-4.6 3.4-.5 2-5.8-1.5-5.3s-4.2 3.6-6.4 5.5c-4 3.5-10 5.9-14.6 8.4s-9.2 4-13.4 6.6-7.6 6-12.6 7.8c-8.7 3.2-16.5 7.8-24.3 13-4.6 3.1-8.3 6-13.9 6.8a12.1 12.1 0 0 0-4.1 1.2c-2 1.2-3.6 4.7-6.1 4.7s-3.5 5.5 0 5.5z"/><path fill="#e0f7fa" d="M709 679.9a22 22 0 0 1 10-7.5c3.3-1.3 1.8-6.6-1.5-5.3a28.5 28.5 0 0 0-13.2 10c-2.1 2.8 2.6 5.6 4.7 2.8zm-89.2 70.4c6.4-.6 11.2-5.8 16.5-9.1 6.8-4.2 13.7-8.1 21.5-10.2s11.3-6.3 16.4-10.2 12.7-9.3 20.5-11.2c3.5-.8 2-6.1-1.4-5.3-6.7 1.6-12.6 4.9-18.2 9s-10.5 9.4-16.9 11.8c-3.1 1.2-6.4 1.6-9.5 3s-6.1 3.2-9.1 4.9a102 102 0 0 0-9 5.4c-3.2 2.1-6.8 6.1-10.8 6.5s-3.5 5.8 0 5.4z"/><path fill="#e0f7fa" d="M697 708.5c3.6-5 10.3-6.3 15.4-9.3s11.6-7.2 18.6-9.1c3.4-.9 1.9-6.2-1.5-5.2-8 2.1-14 6.4-21.2 10.3s-11.9 4.8-16 10.5c-2.1 2.9 2.6 5.6 4.7 2.8zm-58.7 51.6c4.8.1 8.7-1.9 12.3-4.9s3.9-3.5 5.9-5.1 5.5-2.9 8.8-4.2 4.2-2.9 6.3-4.4a43.8 43.8 0 0 1 7.5-4.5c5-2.4 10.5-3.6 15-7.1s7.1-7.8 12.5-8.9a60.7 60.7 0 0 0 15.5-5.4c4.7-2.2 9.7-4.2 13.9-7.3a19.2 19.2 0 0 0 4.5-4.5c2.5-3.4 4.9-3.8 8.4-5.3s1.8-6.7-1.4-5.3-7.6 1.9-10.5 6-7.8 7-13 9.5-11.3 5.7-17.7 6.8c-4.6.7-7.8 2.9-11.1 6a38.7 38.7 0 0 1-14.2 8.7 57.6 57.6 0 0 0-13.9 7.8c-4.1 3.2-9.2 4-13.3 7.2s-8.9 9.6-15.5 9.4c-3.5-.1-3.5 5.4 0 5.5zm256.6-189.9c-5.5.6-12.2.3-17.3 2.7s-6.9 7.8-11 11.3-11.6 7.9-17.4 11.7a46.4 46.4 0 0 1-8.9 4.5 12.7 12.7 0 0 0-5.6 3.5c-2.4 2.6 1.5 6.5 3.8 3.9s4.3-2.4 6.6-3.3a38.5 38.5 0 0 0 6.8-3.9q8.1-5.1 15.9-10.5c3.9-2.8 6-6.2 9-9.7s12.3-4.1 18.1-4.7c3.5-.4 3.5-5.9 0-5.5zm-61.3 57.7c4.1.1 7-1.9 10.3-4.2l12.1-8.6a95.3 95.3 0 0 1 10.7-7.2c3.8-2 7.7-3.2 11.2-5.7 5.6-4.1 9.8-9.9 15.8-13.4 3.6-2.1 7.6-2.1 11.4-3.7a15.7 15.7 0 0 0 7.3-6.2c2.1-2.9-2.7-5.6-4.7-2.7s-6.8 4.2-11.2 5.5a25.4 25.4 0 0 0-7.9 3.9c-4.7 3.4-8.4 7.9-12.9 11.4-3 2.4-6.3 3.6-9.8 5.2s-6.5 3.8-9.6 6l-10.6 7.5c-3.5 2.5-7.6 6.8-12.1 6.7s-3.5 5.4 0 5.5zm93.3-39.1c-2.1 2-8.1 1.8-10.8 2.7a9.3 9.3 0 0 0-4.9 2.8c-4.5 5.2-8.4 10.4-15.7 11.6-3.4.6-2 5.8 1.5 5.3 6.8-1.2 12.2-5.8 16.7-10.8.7-.8 1.3-2.3 2.1-2.9s4.5-1.6 6.3-1.9 6.1-.5 8.6-2.9-1.3-6.4-3.8-3.9zm-44 27.2c-2.5.5-4 2.2-6.2 3s-5.9-.1-8.9 1.1a10.2 10.2 0 0 0-4.7 4c-1.6 2.4-2.7 8.2-6.1 8.8s-2 5.9 1.5 5.3c6.5-1.2 5.9-8.4 10-12.1s6.2-.6 9.2-1.5 4.1-2.8 6.6-3.4 2-6-1.4-5.2zM190.6 831.5l1.7.8a1.5 1.5 0 0 0 1.9-.5 1.4 1.4 0 0 0-.5-1.9l-1.7-.8a1.4 1.4 0 0 0-1.9.5 1.5 1.5 0 0 0 .5 1.9zM483 703.7a4.6 4.6 0 0 0 6.6-1.4c.9-1.3-1.1-2.9-2.1-1.7l-.9.9-.5.2h-.2l.6.8-.2 1c-.4.3-.4.4-.2.3l.4-.2c.2-.2.4-.3.5-.6a1.5 1.5 0 0 0 0-1.6c-.5-1.1-2.2-.7-2.5.3s.3-.2.5-.1l-1.4 2.3a5.3 5.3 0 0 0 5.1-1.1l-2.2-.3c-.1-.3.4-.1.6-.1l-1.8-1.3-.2 2.2c-.1 1 1.3 1.6 2.1 1.1a3.6 3.6 0 0 0 1.6-4.2c-.5-1.6-3.2-.9-2.6.8a1 1 0 0 1-.4 1.1l2.1 1.2.2-2.2c.1-1-1-1.5-1.8-1.4a2.7 2.7 0 0 0-.8 5 2.6 2.6 0 0 0 3.4-3.6 1.5 1.5 0 0 0-2.2-.3 2 2 0 0 1-2.3.5 1.4 1.4 0 0 0-1.4 2.3 2.5 2.5 0 0 0 4.1-1.1l-2.5.3h.1v-1.3c.5-.4.5-.4 0-.2l-.4.3a1.6 1.6 0 0 0-.5 1.1 1.6 1.6 0 0 0 1.4 1.7c1.5.3 3.3-.8 4.2-1.9l-2.1-1.7a2 2 0 0 1-2.9.4 1.3 1.3 0 0 0-1.9.5 1.5 1.5 0 0 0 .5 1.9zm648.1-236.6c9.1 9.3 18.3-4 27.2-5.6s26-5.8 22.8-17c-1.5-5.1-9.4-3-7.9 2.1.4 1.4-8 4.9-8.9 5.2-3.4 1.3-7 1.4-10.5 2.3a19.3 19.3 0 0 0-7.8 4c-2 1.5-6.5 5.9-9.1 3.1s-9.5 2.1-5.8 5.9zm122-64.6c-1.3 3.8-6.3 3.7-9.5 3.9l1.1 8h.4l-5-2.9.2.5 1.9-4.6c1.4-.2 1.1-.2-1-.2h-3.5a26.5 26.5 0 0 0-6.3.1c-4.1.6-6.5 3.4-9.5 6-6.9 5.9-15.1 10.9-24.3 11.9-4.2.4-5.9 6.9-1.1 8a33.3 33.3 0 0 0 21.8-2.2c7.9-3.7 12.3-11.6 21.1-13.4l-4-1c6.4 6.4 17.5-.5 23.4-4.4 2.4-1.6 2.5-4.3.8-6.4l-1.7-2.2c-3.2-4.2-9 1.7-5.8 5.8l1.7 2.2.8-6.5a63.8 63.8 0 0 1-7.1 4.3 9.4 9.4 0 0 1-7.1.7c-4.6-1.2-9.6 1.2-13.4 3.9s-7 6.9-11.5 9.2a24.5 24.5 0 0 1-16.8 2.1l-1.1 8.1a50.2 50.2 0 0 0 24.8-10.1c3.5-2.6 7.4-7.7 11.7-8s9 1.5 12.2-.8c1.4-1 2.6-2.9 1.9-4.7l-.2-.5a4.4 4.4 0 0 0-5.1-2.9h-.4c-4.6.8-3.5 8.3 1.1 8.1 7.5-.4 14.7-2.1 17.4-9.9 1.7-5-6.2-7.2-7.9-2.2z"/><path fill="#fcfcfc" d="M274.2 957c5.4-6.6 12.6-11.3 18.8-17.1a55.6 55.6 0 0 0 9-10.9 56.8 56.8 0 0 0 3.7-7.9c.1-.5.9-2.3.8-2.1s1.4-2.2.4-.8c2-2.8 5.5-4.2 9.3-6.2s9.4-5 14.2-7.4c2-1 6-2.1 7.6-3.8s-5.8 1.3-5.5-.9a33.7 33.7 0 0 0 2.6 2.5l5.5 5.1a21.2 21.2 0 0 0 3.4 3.3c1.7.8-.6.4-.4-2.8l1.9-6.9-.7 1.1 4.9-4.9c1.8-.5 1.9-.5.4-.2l-3.8.8-7.6 1.6-15.3 3.1c-6.6 1.3-10.7 8.7-9.8 15s6.5 11.1 13.5 11.9c10.6 1.1 21.2 2.6 31.8 3.5 13.7 1.2 23.3-7.3 24.1-20.8 1.4-21.1-14-40.4-35.2-42.3a34.7 34.7 0 0 0-27.5 10.1c-2.9 3-5.2 6.5-8.1 9.4a59.4 59.4 0 0 1-10.5 8c-1.9 1.2-3.9 2.2-5.8 3.5l-.7.4c-4.5 2.4-.6 3.9 11.7 4.4.3-.1.9 3.3.3.2a21.8 21.8 0 0 0-8.4-13.1c-11.4-8-23.2-2.5-32.9 5S241 913.4 245.3 928a18.2 18.2 0 0 0 2 4.5c2.7 4-1.8-5.5.2-5.7l.3-.6a10.9 10.9 0 0 1-.8 1.5 20.1 20.1 0 0 0-1.4 2.5c-2.9 5.9-4.2 13.3.1 19s9.1 8 15.4 6.3a14 14 0 0 0 10.1-13.2 39.7 39.7 0 0 1 6.9-23c2.4-3.6 6.3-7.6 7.9-12.8s.7-10.2 2.4-15.2c.3-1 .8-2 1.2-3.1l.4-.9a16.7 16.7 0 0 1 1.2-2.4c.1.1-1.2.7-1.3.7a13.8 13.8 0 0 1-5.4-.6c-2.6-.6-.9 0 .5 1.1a18.2 18.2 0 0 0 7.6 4.1c6.4 1.6 12.3-1 17.2-5 1-.9 2.1-1.7 3.1-2.7s-1.2.3 0-.2-2.9.6-2.9.6l-9.7-23.4-11.3 13.4c-4.4 5.2-5.6 12.4-1.1 18s11.9 7.3 17.7 3.5l40.9-26.9-20.2-8.2a40.6 40.6 0 0 0 18 22.1c5.3 3.1-2.7-1.8-1.3-3.7-.7.9.3 6.2.4 7.5.1 4.9-.1 9.9-.5 14.9l17.4-13.2a189 189 0 0 0-36.7-5.4c-7.3-.3-15.1-.3-20.6 5.3a18.2 18.2 0 0 0-4.8 9.2c-.4 1.9-.4 3.9-.8 5.8.4-1.8-.3.9-.5 1.5-.6 2.2-.5 1.9-2 4.1s-.3.6-1.1 1.4-2.3 2.2-1.1 1.2c-5.3 4.6-10.6 7.7-12.8 14.8-4.5 14.4 11.9 31.6 26.1 21.8l-18.8-4.9.5 1-1.4-10.5c.8-2.7 4.4-5.3 0-2.4l-4.1 2.6-8.2 5.3c-12.9 8.3-4.9 29 10.5 25 12.7-3.2 26.6-.5 39.4-4.5s24.1-12.7 27.8-26c3-10.9-10-22.5-20.1-15.5-6.9 4.7-14.3 6.6-21.5 5.1l10 13.2-1.4 5.1c5.8-4.6 4.7-14.6 0-19.4s-13.5-4.5-19.4 0-6 8.8-6.5 14.3 4.6 12.1 10 13.2c14.7 3.1 30.1.8 42.6-7.9l-20.1-15.4c-.6 2.3.2-.2-.3 1s-1.9 2.6-.5 1a16.2 16.2 0 0 1-1.8 1.9c1.3-1.2-.5.3-1.1.7-2.9 1.8-5.6 2.8-10.4 3.6-9.4 1.5-23.1.4-34 3.2l10.6 25.1c5.4-3.6 11.1-6.9 16.4-10.6 8.1-5.7 11-13.7 6.7-22.9-3-6.4-13.1-8.9-18.7-4.9l1.4-.6h7.3c4.2 1.8 5.9 5.2 5.1 10.3q-2.7 4.2-.3 1.5c-1.4.9 2-1.4 1.9-1.4a42.9 42.9 0 0 0 10.1-10.3 39.9 39.9 0 0 0 5.4-11.2 35.4 35.4 0 0 0 1.1-4.4l.6-5.1-.3 1.6-4.9 4.9c-3.3.3-4 .5-2.3.4h7.2q5.1.3 10.2.9a140.7 140.7 0 0 1 18.3 3.5c9.1 2.3 16.7-4.3 17.3-13.2s2.1-22.3-1.8-31.5c-2.3-5.6-6.7-8.6-11.6-11.6a16.3 16.3 0 0 1-2.3-1.9l-1.1-1.6c-.2-.3-1.2-2.9-.7-1.5-2.8-7.9-12.3-13.4-20.2-8.2l-40.9 27 16.6 21.5 11.4-13.4c3.6-4.3 5.2-9.6 2.8-15s-7-8.7-12.5-8.4-11 2.9-15.7 6.9l-2.4 2.1c-1.6 1.6.5-.3 1.4-.6a5 5 0 0 1 5.4.9c4.6 2 5.8 2.1 3.7.1s-2.9-2.6-4.2-3.4a21.2 21.2 0 0 0-21.1 0c-6.6 3.6-10 10-12.8 16.6a53.6 53.6 0 0 0-4.4 17.7c-.1.7-.8 5.3.2 2.5s-1.3 1.2-.2 0a65.4 65.4 0 0 0-16.1 44l25.5-6.9c.7.9 1.4 7.6 0 8.6a11.7 11.7 0 0 0 1.3-2.5 37.6 37.6 0 0 0 3.1-6.8 19.5 19.5 0 0 0 .2-9.3 19 19 0 0 0-1.8-4.9c-.4-.6-1.2-3-.7-1.1v7.3c-2.3 2.9-2.5 3.6-.8 1.9l3-2.2 5.1-4 5.1-4c.6-.6 3.5-1.8 4-2.7-1 2-7.9-3.6-5.9-1.6-1.7-3.5-2.2-4.1-1.4-2l.6 2.2c1.5 4.7 3.8 8.9 8.1 11.6 9.2 5.7 18.3.2 26.3-4.8s14.4-9.9 19.9-16.7c2.5-3 4-5.6 6.8-6.9-1.9.9 1.9-.4 2.1-.4-3 .5 4.2.3 1.3-.1a15.5 15.5 0 0 1 4.2 1.2c-2.4-1.1 3.1 2.6 1.2.9.1.1 2.8 3.2 1.6 1.6.4.5 2.5 4.6 1.9 3 .2.8 1.2 4.4 1.1 3.8a17.9 17.9 0 0 0 .1 3.9c.5-2.5 2.3-4.3 5.2-5.4q2-.3-.6-.3c-1.6-.3-3.5-.3-5.1-.5l-28.1-3.1 3.6 26.9c8.9-1.8 17.9-3.2 26.7-5.5 11.9-3.1 17.2-15.7 10.8-26.3-2.4-4.1-6.2-7.1-9.6-10.3s-6.9-6.8-10.8-9.6c-10-6.9-19.1-2.5-28.7 2.4-7.2 3.6-14.6 7.2-21.6 11.3-8.6 5.2-13.4 11.5-17.4 20.6a10.8 10.8 0 0 1-1.1 2.6c-.4.8-.9 1.6-1.4 2.4.7-.9.6-.7-.5.5a68.8 68.8 0 0 1-7.3 7c-5.2 4.3-10.6 8.4-14.9 13.7s-5.6 13.8 0 19.4 14.7 5.8 19.3 0z"/><path fill="#fcfcfc" d="M362.5 903.3c-.2-1.3-.3 2.1-.1.9a5 5 0 0 1-.9 2.6 4.4 4.4 0 0 1-1.5 1.8c-1 .9.7-.4-.5.3l-2 1c-4 1.8-5 7.7-2.9 11.3s7.2 4.7 11.2 2.9c9.8-4.3 14.1-15.1 12.5-25.2-.7-4.4-6.1-6.8-10.1-5.8s-6.4 5.7-5.7 10.2z"/><path fill="#e0f7fa" d="M367.7 906.5c-.8 1.6-2.4 2.5-3.7 3.7a18.6 18.6 0 0 0-3.3 4.1l5 2.1a3.3 3.3 0 0 0-2.1-4.2 3.1 3.1 0 0 0-2.5 0c-1 .3-1.6 1.1-2.6 1.1l2.3 1.4c.7 1.2 0-1.2-.2-1.4a2.9 2.9 0 0 0-1.3-1.4c-1.5-1-3.6-.5-5.3-.4-3.4.3-3.5 5.8 0 5.5h1.9c1.1.1 1.2 0 .4-.3l-.8-2a5.8 5.8 0 0 0 .6 2.9 2.7 2.7 0 0 0 2.4 1.3 8.4 8.4 0 0 0 2.7-.4 5.3 5.3 0 0 0 1-.6c.7-.3.6-.4-.1-.3l-1.6-1.3.3.4-.3-2.1v.5c-1 3.1 3.3 4.6 5 2.1s5.5-4.7 7-7.8-3.1-5.9-4.7-2.8zM329.6 929a34.1 34.1 0 0 1-7.1 7.1l4.1 2.3c.2-2.4 1-5.5-1.9-6.6s-5.8 2.5-7.8 4l4.3.6-.6-1.3c-.7-1.7-3.1-1.5-4.3-.5a27.5 27.5 0 0 1-4 2.6c-1.6.9-2.7.7-4.5.5l-11.7-1.2c-3.5-.3-3.5 5.1 0 5.5s9.7 1.5 14.4 1.4 7.2-2.8 9.7-4.9l-4.3-.6.5 1.2c.8 1.8 3.1 1.5 4.3.6s2.5-2.4 3.7-2.8l-2.1-.2h.4l-1.3-1.6c.3.7-.2 2.5-.2 3.2s2.5 3.6 4.1 2.4a40.4 40.4 0 0 0 9-9c2.1-2.9-2.6-5.6-4.7-2.8zm31.5-50.7a4.3 4.3 0 0 0-2.1 1.1l-.7.7c-.5.5-.4.5.2.2s-1.9-.1-2.8 0a15 15 0 0 0-2.9.6l2.7.7a5.9 5.9 0 0 0-5.6-1.5c-3.5.7-2 6 1.4 5.2.3 0 .9.6 1.2.7a2.7 2.7 0 0 0 1.8.1c1.3-.1 2.3-.4 3.6-.4a4.5 4.5 0 0 0 2.8-.5c.4-.2 1.5-1.5 1.8-1.6 3.4-.9 2-6.1-1.4-5.3zm-89.9 25.3l11.6 4.5-1.2-4.6c.6-.5-.2-.3-.7-.5a22.9 22.9 0 0 0-2.3-1 5.8 5.8 0 0 0-4.5.4c-1.6.6-1.8 3.2-.6 4.3a7.2 7.2 0 0 0 2.7 1.5c3.4.9 4.8-4.4 1.5-5.3h-.3l-.6 4.3c.4-.2 3.3 1.4 4.2 1.6a6 6 0 0 0 4.5-1.3c1.8-1.4.5-4-1.2-4.6l-11.6-4.5c-3.3-1.2-4.7 4.1-1.5 5.3zm196.7-206.5a119.1 119.1 0 0 0 13.9 6.8c2.8 1.2 4.7-3.6 2.1-5l-62.4-34.7c-3.1-1.8-5.8 3-2.8 4.7l62.4 34.7 2.1-5a111.8 111.8 0 0 1-12.5-6.2c-3.1-1.8-5.9 3-2.8 4.7zM1081.7 430a11.9 11.9 0 0 0 2.6 3.3 5.1 5.1 0 0 0 1.6.9l.7.3c.8.6 1.3.2 1.3-1.1l4.6 1.2-.7-1.9-3.4 3.4a10.5 10.5 0 0 1 6.1 3.9c1.5 1.8 3 3.1 5.5 3.2l-2.4-4.1c-1.6 2.7.3 5.5 3 6.5a15.5 15.5 0 0 0 5.2 1 4.3 4.3 0 0 1 2 .2 18.3 18.3 0 0 1 1.3 1.6c2.3 2.4 5.6 2.7 8.5 4a5.2 5.2 0 0 1 3 2.8 4.2 4.2 0 0 0 3.6 2.5c2.6.2 3.3-3.1 1.9-4.7a5.3 5.3 0 0 0-2.9-1.8l-1.7-.3h-.7c-.6-.4-.7-.2-.5.5l-4 1.6 6.2 4.6c2.8 2.1 5.5-2.6 2.7-4.7l-6.2-4.6c-1.4-1.1-3.6.1-4 1.6a4.6 4.6 0 0 0 1.9 5.2 8 8 0 0 0 2.5 1.1c1 .2 2.2 0 2.9.7l1.9-4.6h-.5l1.9.8c-.7-.8-1-2-1.8-2.8a9.4 9.4 0 0 0-2.8-2.1c-2.2-1.2-4.7-1.5-6.9-2.6s-2.5-3.3-4.8-3.9a10.2 10.2 0 0 0-3.5-.4l-2.3-.3-.9-.2c-.7-.6-.8-.1-.3 1.2a2.7 2.7 0 0 0-2.3-4.1c-1 0-3.1-3.4-4-4.1a17.4 17.4 0 0 0-6.2-2.8c-1.8-.6-4.1 1.4-3.3 3.4l.7 1.9c.7 1.7 3.1 2.9 4.6 1.2s1.7-3.9.2-5.8a5.6 5.6 0 0 0-2.5-1.7 6.1 6.1 0 0 1-3.1-2.6c-1.8-3-6.6-.3-4.7 2.8z"/><path fill="#e0f7fa" d="M1099.5 439.6c-.3-1.2-.6-1.5-.8-.8a3.6 3.6 0 0 0-.4.9 2.9 2.9 0 0 0 0 1.6 3.5 3.5 0 0 0 1.9 2.5c2.7 1.3 6.2 1.5 9 1.4l-2.7-2.8c.3-.6.3-.7.1-.3l-.5.6a8.8 8.8 0 0 0-.5 1.5 3.4 3.4 0 0 0 1.2 3.1c2 1.8 5.8 1.8 8.4 2s3.5-5.1 0-5.4l-3.1-.4-1.2-.3-.6-.2.8 2a12.6 12.6 0 0 0 .9-2.6 2.8 2.8 0 0 0-2.8-2.7 19.3 19.3 0 0 1-3.4-.1c-.5-.1-2.5-.2-2.9-.6l.8 2a1.6 1.6 0 0 0 .3-.6 4.7 4.7 0 0 0 .4-1.7 4.6 4.6 0 0 0-1.3-3.1 4.9 4.9 0 0 0-6.3-.7c-3.1 1.8-.3 6.5 2.7 4.7zm61-51.2a17.9 17.9 0 0 0-3.6 4.7l5 2.1 1.2-4.6a2.9 2.9 0 0 0-.7-2.7l-2.2-2a2.8 2.8 0 0 0-4.3.5l-1.1 1.6a2.8 2.8 0 0 0 .5 3.3 48.9 48.9 0 0 1 3.9 4c1.4 1.7 2.5 1.9 4.6 2.1a61 61 0 0 0 12.1.5l-2.7-3.4-.3 2.6a2.8 2.8 0 0 0 2.6 3.5h2.6l-2.4-4.1c-3 6 4.5 10.3 9.1 5.9l-4.6-2.7a8.5 8.5 0 0 0 8.3 10.6l-1.9-4.6-3.5 3.5c-1.5 1.5-.5 4.8 2 4.6s4.1-1.6 3.8-4.1l-2.7 2.8c.7 0 1.6 3.9 2 4.6a7.5 7.5 0 0 0 3.3 2.8c2.9 1.3 6.2.4 8.8-1.1l-4-3.1a35.9 35.9 0 0 1-3.8 8.2l4.7 2.8 1.2-2-4.3.6a9.6 9.6 0 0 0 8.1 2.3c3.4-.5 2-5.8-1.5-5.3a3 3 0 0 1-2.7-.9 2.7 2.7 0 0 0-4.3.6l-1.2 1.9c-1.9 3 2.8 5.7 4.7 2.8a43 43 0 0 0 4.4-9.5 2.8 2.8 0 0 0-4-3.1c-1 .6-2.5 1.3-3.7.9s-1.4-2-1.8-3.1c-1-2.8-2.9-4.7-5.9-4.9a2.6 2.6 0 0 0-2.7 2.7l1.6-1.3 1.9 4.6 3.4-3.5a2.7 2.7 0 0 0-1.9-4.6 3 3 0 0 1-3-3.7 2.8 2.8 0 0 0-4.6-2.7c-.5.1-.7.4-.5.7.9-1.8-.1-4.2-2.3-4.1h-2.6l2.7 3.4.3-2.6c.3-1.6-.6-3.5-2.6-3.4a64.2 64.2 0 0 1-9.8-.3c-1.7-.1-2.5-.1-3.6-1.4s-2.2-2.3-3.4-3.4l.5 3.4 1.1-1.6-4.3.6 2.1 2-.7-2.7-1.2 4.7c-.8 2.9 3.5 4.8 5 2.1a13.6 13.6 0 0 1 2.7-3.6c2.6-2.4-1.3-6.3-3.8-3.9z"/><path fill="#fcfcfc" d="M1056.4 178.8c1.1-1.7 3.8-1.9 5.5-2.4a13.6 13.6 0 0 0 6.1-3.1c2-2-.1-5.2-2.7-4.6a66.7 66.7 0 0 0-13 4.5l2.8 4.8 9.8-5.8-2.7-4.8a27.3 27.3 0 0 1-9.9 4.7l3.3 3.4.3-.6-1.3 1.7.6-.3c3.2-1.4.4-6.1-2.8-4.7a3.4 3.4 0 0 0-2 2.5c-.8 2 1.5 3.8 3.3 3.3a30.3 30.3 0 0 0 11.2-5.2c2.8-2.1.4-6.6-2.7-4.8l-9.9 5.8c-3.1 1.8-.4 6.2 2.8 4.8a52.1 52.1 0 0 1 11.7-4l-2.7-4.6c-1.7 1.7-4.3 1.8-6.5 2.5a9.6 9.6 0 0 0-5.9 4.1c-1.9 2.9 2.8 5.7 4.7 2.8zm-77.6 81.8c.6 4.6 3.6 7.9 7.3 10.6l-3-3 .4.6-1.1-4.1a13.2 13.2 0 0 0 3.4 10 18.7 18.7 0 0 0 3.5 2.8c1.2.7 4.7 3 3.4.8l-1.1-4.1c0 5.8 2.7 9.7 7.6 12.6 9.1 5.5 17.4-8.7 8.3-14.1-1.3-1-1.4-.8-.2.4s1.1 1.4.4-1.1a9 9 0 0 0-1.8-3.5c-1.6-2-4.9-4.5-7.6-4.8l-.7-.4c.8 2.7 1.2 3.4 1.2 1.9s-.4-3.5-1.1-4.7-2.6-2.3-3.3-3.5c.5.9.4.4.2-.8-.6-4.4-6.2-6.8-10.1-5.7s-6.3 5.7-5.7 10.1zm94.4-.5c3.5-1.8 7.2-4.3 11-5.6 1.5-.5 3.1-.6 4.6-1.2s3.5-2.4 4.2-2.7l-6.4.8.9.2c10.2 2.7 14.6-13.1 4.4-15.8a10 10 0 0 0-8.1 1 7.8 7.8 0 0 0-2 1.6c-.6.6-.4.5.5-.3l-2.9.7c-5 1.8-9.8 4.7-14.5 7.1-9.5 4.8-1.2 19 8.3 14.2zm-30.6-125.8l-7.6 1.1 2.6 4.6a.8.8 0 0 1 .8-.1c2.6.2 3.8-3.9 1.3-5.1a6.1 6.1 0 0 0-8.2 2.3c-1.8 3.1 2.9 5.9 4.7 2.8a.7.7 0 0 1 .8-.4l1.4-5.1a6.3 6.3 0 0 0-4.6 1.7c-2.3 2 .2 5 2.6 4.6l7.7-1.2c1.5-.2 2.2-2 1.9-3.3a2.7 2.7 0 0 0-3.4-1.9zm-83 13.2c2.7 6.4 7.4 9.5 14.1 10.9l-6-8a10 10 0 0 0 2.9 7.5 11.1 11.1 0 0 0 3.4 2.2c.7.3 3 1.7 1.5.3 1.3 1.2 2.4 3 4.1 4a17.9 17.9 0 0 0 7 2.5l-1.9-15-1.4.7c-4 1.9-5.1 7.6-3 11.2s7.3 4.9 11.3 3l1.4-.7c6-3 4.9-13.9-2-15l-2.6-.5c.9 1 .9.9 0-.1l-1.3-1.7c-2-2.2-4.3-2.3-6.6-3.8l3 2.9-.5-.8 1.1 4.2v-.9c.1-3.4-2.6-7.2-6-7.9a19.5 19.5 0 0 0-3.1-.7c-1.5-.1-1.1-2.6.5 1.4-1.7-4.1-5.5-7.1-10.1-5.8s-7.5 6-5.8 10.1zm134.3-1.2a13.3 13.3 0 0 0 5.1 2l-6.1-7.9v1l1.1-4.1c-2.7 3.6-3.3 8.3-.4 12s7.8 3.5 12.1 3.9l-7.1-12.3c-3.5 5-1.1 10.5.8 13.8l-.8-6.3c-.7 3-2 5.3-.6 8.5s3.3 4.1 5.9 5.6l-3-3 .9 2.8v-4.4l-.3.8 2.2-3.6c-2.7 2.9-5.1 5.4-4.6 9.7a11 11 0 0 0 2.9 5.8c1.1 1.1 2.5 1.6 2.6 2.1 3.2 10 19.1 5.8 15.9-4.4-1.6-4.8-4.4-7.9-8.5-10.6l2.9 2.9-.6-1 .8 6.3.3-.8-2.2 3.6c3.2-3.4 5.8-6.6 4.2-11.6a36.8 36.8 0 0 0-1.8-4.9c-1-2-3.4-3.3-4.3-4.3l2.1 8c.4-2.2 1.5-3.9 1.1-6.4s-1.6-3.9-2.5-5.4l1.2 4.1-.4 1c4-5.6-1.5-11.9-7.1-12.4a22.1 22.1 0 0 1-3.5-.4l5.8 5.8-.3-1-.8 6.3c1.4-2.4 2.4-4.2 2.5-7.1s-2.6-7.4-6.1-7.9c-.8.2-1.2.1-1.1-.4-8.7-6-17 8.3-8.3 14.2z"/><path fill="#e0f7fa" d="M978.5 261.9c.1 2.1 1.2 3.3 2.9 4.4s1.1.5 1.2 2a8.5 8.5 0 0 0 1.1 3.4 16.6 16.6 0 0 0 5.2 5c.9.7 2.5 1.5 2.9 2.5s.3 2 1.1 3 3.4 1.2 5.1 2.1.9 1.2 1.5 1.9a4.9 4.9 0 0 0 3 1.4 7.6 7.6 0 0 0 6.2-2.6 3.3 3.3 0 0 0-1.7-5.3c-3.3-1.1-4.8 4.2-1.4 5.3h.3l-1.9-1.9.2.4.2-2.1c-.3.6-1.7.3-.9.9s-.7-1.3-1-1.6a6.7 6.7 0 0 0-3.6-1.9 7.6 7.6 0 0 1-1.6-.3v-.7c-.1-1.6-1.4-2.8-2.5-3.7s-6.4-3.6-6.6-7a5.3 5.3 0 0 0-1.6-4.1 7.1 7.1 0 0 0-1.4-1l-.9-.6c-.5-.4-.6-.3-.2.4-.2-3.5-5.7-3.5-5.5 0zm81.3-8.5c.4 7.2 8.1 10.4 13.6 5.9h-3.9l1.2.9a2.9 2.9 0 0 0 3.3.4l6.4-2.9c2.2-1 4.2-.8 6.5-1.1 4.1-.6 6.6-4.7 9.2-7.6s-1.6-6.5-3.9-3.9-2.7 3.2-4.1 4.7a3.5 3.5 0 0 1-2.4 1.4h-2.8c-4.1.5-8 2.9-11.7 4.6l3.4.4-1.2-.9a2.9 2.9 0 0 0-3.9 0 2.7 2.7 0 0 1-4.3-2c-.2-3.5-5.6-3.5-5.4 0zm30.7-109.6a3.2 3.2 0 0 1 .3 1.9 2.9 2.9 0 0 0 2.7 2.8 22.9 22.9 0 0 1 5.2 1.1l-1.7-4.1c-1.3 3-2.3 6.7.6 9.1.6.4 3.1 1.8 3.9 1.2-.9-1.6-1.5-1.8-1.8-.5l-.4.8c-.5 1-1.1 2-1.7 3a2.8 2.8 0 0 0 1.7 4c-.6-.8-.8-.8-.7-.2v.9c.1.7.1 1.4.2 2a9.8 9.8 0 0 0 1.6 4.4 13.8 13.8 0 0 0 2.9 3c.9.8.3.2.8 1.1a8.2 8.2 0 0 0 1.2 2c4.2 4.3 11.5 3.4 15.6-.4 2.6-2.4-1.3-6.3-3.9-3.9a6.1 6.1 0 0 1-5.9 1.5 2.8 2.8 0 0 1-2.1-2.1 6.2 6.2 0 0 0-2.6-2.7c-3.8-2.9-.5-9.3-5.7-10.9l1.7 4.1c1.4-2.4 4.1-6.1 3.2-9.1a4.2 4.2 0 0 0-2.8-2.4c-.4-.1-1.3.1-1.6-.1h-.1a4.8 4.8 0 0 1 .7-2 2.8 2.8 0 0 0-1.7-4 28.6 28.6 0 0 0-6.6-1.3l2.8 2.7a12.6 12.6 0 0 0-.5-3.3c-1.1-3.4-6.4-2-5.3 1.4zm-26.4 28.3c-.2.4-1.9.4-2.3.5a11.3 11.3 0 0 0-2.4.8c-1.4.7-3.5 2.8-5.1 1.7s-5.6 2.7-2.7 4.8 6.3.7 9.1-1 6.1-1.1 8.2-4-2.8-5.6-4.8-2.8zm-30.5-29.3a33.9 33.9 0 0 1 9 0 2.9 2.9 0 0 0 3.4-1.9c.3-1.3-.5-3.2-1.9-3.4a36.5 36.5 0 0 0-11.9.1 2.6 2.6 0 0 0-1.9 3.3 2.7 2.7 0 0 0 3.3 1.9zm-74.1 1.1a5.5 5.5 0 0 0-.4 5c.8 2 2.3 2.3 4 3.3l-1.3-1.7c.7 1.8.4 3.4 2.3 4.5s3 .3 4.3.9c-.8-.4-.5-.2-.2.5a2.4 2.4 0 0 0 .6 1.1 4.1 4.1 0 0 0 2.1 1.5c.9.3 1.9.2 2.8.5s.7.2 1.2 1.1a7 7 0 0 0 1.5 1.9 4.2 4.2 0 0 0 1.2.8c.3 0 1.9.4.9 0s0 .2.2.5a5.2 5.2 0 0 0 1 1.1 17.5 17.5 0 0 0 2.9 1.8c5 2.7 9.1 1.5 13.2-2.2s-1.3-6.2-3.9-3.9-3.6 2.8-6.2 1.6a7.8 7.8 0 0 1-2.6-1.7c-.5-.6-.7-1.3-1.4-1.7l-1.2-.6c-.3 0-1.4-.4-.8 0s-.4-1-.6-1.3a5.8 5.8 0 0 0-4.1-2.7c-.5-.1-1.8 0-2.2-.3s0-1.1-.2-1.4a5.3 5.3 0 0 0-3.6-2 6.9 6.9 0 0 0-2-.3h-.4c.6 1.1.9 1.3.8.6s-.1-1-.2-1.3a3.4 3.4 0 0 0-1.7-2.2c-.3-.2-1.4-.4-1.3-.6 1.9-3-2.9-5.7-4.7-2.7z"/><path fill="#fcfcfc" d="M267.6 634.2c1.1-1.7 3.8-1.9 5.5-2.4a13.6 13.6 0 0 0 6.1-3.1c2-2-.1-5.2-2.7-4.6a66.7 66.7 0 0 0-13 4.5l2.8 4.8 9.8-5.8-2.7-4.7a31.1 31.1 0 0 1-9.9 4.7l3.3 3.3.3-.6-1.3 1.7.6-.3c3.2-1.4.4-6.1-2.8-4.7a3.4 3.4 0 0 0-2 2.5c-.8 2 1.5 3.8 3.3 3.3a30.3 30.3 0 0 0 11.2-5.2c2.8-2.1.4-6.6-2.7-4.7l-9.9 5.7c-3.1 1.9-.4 6.2 2.8 4.8a52.1 52.1 0 0 1 11.7-4l-2.7-4.6c-1.7 1.7-4.3 1.8-6.5 2.5a10 10 0 0 0-5.9 4.1c-1.9 3 2.8 5.7 4.7 2.8zM190 716c.6 4.7 3.6 7.9 7.3 10.6l-3-3 .4.6-1.1-4.1a13.1 13.1 0 0 0 3.4 10 14 14 0 0 0 3.6 2.8c1.1.7 4.6 3.1 3.3.8l-1.1-4.1c0 5.8 2.7 9.7 7.6 12.7 9.1 5.4 17.4-8.8 8.3-14.2-1.3-1-1.4-.8-.2.4s1.1 1.4.5-1.1a10.8 10.8 0 0 0-1.9-3.5c-1.6-2-4.9-4.5-7.6-4.8l-.7-.4c.8 2.7 1.2 3.4 1.2 1.9s-.4-3.5-1.1-4.7-2.6-2.3-3.3-3.5c.5.9.4.4.2-.8-.6-4.4-6.2-6.8-10.1-5.7s-6.3 5.7-5.7 10.1zm94.4-.5c3.5-1.8 7.2-4.3 11-5.6 1.5-.5 3.1-.6 4.6-1.2s3.5-2.4 4.2-2.7l-6.4.8.9.2c10.2 2.7 14.6-13.1 4.4-15.8a10 10 0 0 0-8.1 1 7.8 7.8 0 0 0-2 1.6c-.6.6-.4.5.5-.3l-2.9.7c-5 1.8-9.8 4.7-14.5 7.1-9.5 4.8-1.2 19 8.3 14.2zm-30.6-125.8l-7.6 1.2 2.6 4.5a1.1 1.1 0 0 1 .8-.1c2.6.2 3.8-3.9 1.3-5.1a6.1 6.1 0 0 0-8.2 2.4c-1.8 3 2.9 5.8 4.7 2.7.2-.3.5-.5.8-.3l1.4-5.2a6.5 6.5 0 0 0-4.6 1.8c-2.3 1.9.2 4.9 2.6 4.5l7.7-1.1a2.8 2.8 0 0 0 1.9-3.4c-.4-1.6-1.9-2.1-3.4-1.9zm-82.9 13.2c2.6 6.4 7.3 9.5 14 10.9l-6-8a10 10 0 0 0 2.9 7.5 11.1 11.1 0 0 0 3.4 2.2c.7.3 3 1.7 1.5.4 1.3 1.1 2.4 2.9 4.1 3.9a17.8 17.8 0 0 0 7.1 2.5l-2-15-1.4.7c-4 1.9-5.1 7.6-3 11.2s7.3 4.9 11.3 3l1.4-.7c6-2.9 4.9-13.9-2-15l-2.6-.5c.9 1 .9.9 0-.1l-1.2-1.7c-2.1-2.2-4.4-2.3-6.7-3.8l3 2.9-.5-.7 1.1 4.1v-.9c.1-3.4-2.5-7.2-6-7.9a19.5 19.5 0 0 0-3.1-.7c-1.5-.1-1.1-2.6.5 1.4-1.7-4.1-5.5-7-10.1-5.8s-7.5 6-5.7 10.1zm134.2-1.2a11.9 11.9 0 0 0 5.1 2l-6.1-7.9v1l1.1-4.1c-2.7 3.6-3.3 8.3-.4 12s7.8 3.5 12.1 3.9l-7.1-12.3c-3.5 5-1.1 10.5.8 13.8l-.8-6.3c-.7 3-2 5.3-.6 8.5s3.3 4.1 5.9 5.6l-3-3 .9 2.8v-4.4l-.2.8 2.1-3.6c-2.7 2.9-5.1 5.5-4.6 9.7a10.7 10.7 0 0 0 2.9 5.8c1.2 1.1 2.5 1.6 2.6 2.1 3.2 10.1 19.1 5.8 15.9-4.3a19.3 19.3 0 0 0-8.5-10.7l2.9 2.9-.6-1 .8 6.3.3-.8-2.2 3.6c3.2-3.4 5.8-6.6 4.2-11.5a33.4 33.4 0 0 0-1.8-5c-1-2-3.4-3.3-4.3-4.3l2.1 8c.4-2.2 1.5-3.9 1.2-6.4s-1.7-3.9-2.6-5.4l1.2 4.2-.4.9c4-5.6-1.5-11.9-7.1-12.4a22.1 22.1 0 0 1-3.5-.4l5.8 5.8-.3-1-.8 6.3c1.4-2.4 2.4-4.2 2.5-7.1s-2.6-7.4-6.1-7.9c-.8.2-1.1.1-1.1-.4-8.7-6-17 8.3-8.3 14.2z"/><path fill="#e0f7fa" d="M189.7 717.3a5.1 5.1 0 0 0 2.9 4.4c1.3.7 1.1.6 1.2 2a8.5 8.5 0 0 0 1.1 3.4 16.6 16.6 0 0 0 5.2 5c.9.7 2.5 1.5 2.9 2.5s.3 2.1 1.1 3 3.4 1.2 5.1 2.1.9 1.3 1.5 1.9a4.9 4.9 0 0 0 3 1.4 7.6 7.6 0 0 0 6.2-2.6 3.3 3.3 0 0 0-1.7-5.3c-3.3-1-4.8 4.2-1.4 5.3h.3l-1.9-1.9.2.5.2-2.2c-.3.7-1.7.3-.9.9s-.7-1.3-1-1.6a7.4 7.4 0 0 0-3.6-1.9 7.6 7.6 0 0 1-1.6-.3v-.7c-.1-1.5-1.4-2.8-2.5-3.7s-6.4-3.6-6.6-7a5.3 5.3 0 0 0-1.6-4.1 7.1 7.1 0 0 0-1.4-1l-.9-.5c-.5-.5-.6-.4-.2.3-.2-3.5-5.7-3.5-5.5 0zm81.3-8.5c.4 7.2 8.1 10.4 13.6 5.9h-3.8l1.1.9a2.9 2.9 0 0 0 3.3.4l6.4-2.9c2.2-1 4.2-.8 6.5-1.1 4.1-.5 6.6-4.7 9.2-7.6s-1.6-6.5-3.9-3.8-2.7 3.2-4.1 4.6a3.5 3.5 0 0 1-2.4 1.4 26.2 26.2 0 0 1-2.8.1c-4.1.5-8 2.9-11.7 4.6l3.4.4-1.2-.9a2.8 2.8 0 0 0-3.8 0 2.7 2.7 0 0 1-4.4-2c-.2-3.5-5.6-3.5-5.4 0zm30.7-109.6a3.2 3.2 0 0 1 .3 1.9 2.9 2.9 0 0 0 2.7 2.8 30 30 0 0 1 5.2 1.1l-1.7-4.1c-1.3 3-2.3 6.7.6 9.1.6.4 3.1 1.8 3.9 1.2-.9-1.6-1.5-1.8-1.8-.5l-.3.8c-.6 1-1.1 2-1.8 3a2.8 2.8 0 0 0 1.7 4c-.6-.8-.8-.8-.7-.2v.9c.1.7.1 1.4.2 2.1a9.8 9.8 0 0 0 1.6 4.3 13.8 13.8 0 0 0 2.9 3c.9.8.3.2.8 1.1a6.7 6.7 0 0 0 1.2 2c4.2 4.4 11.5 3.4 15.6-.4 2.6-2.4-1.3-6.3-3.9-3.9a6.1 6.1 0 0 1-5.9 1.5c-1.4-.4-1.6-.9-2.1-2.1a6.8 6.8 0 0 0-2.6-2.7c-3.8-2.9-.5-9.3-5.7-10.9l1.7 4.1c1.4-2.4 4.1-6.1 3.2-9a4.1 4.1 0 0 0-2.8-2.5c-.4-.1-1.3.1-1.6-.1h-.1a4.8 4.8 0 0 1 .7-2 2.8 2.8 0 0 0-1.7-4 28.6 28.6 0 0 0-6.6-1.3l2.8 2.7a12.6 12.6 0 0 0-.5-3.3c-1.1-3.4-6.4-1.9-5.3 1.4zm-26.4 28.4c-.2.3-1.9.3-2.3.4l-2.4.8c-1.4.7-3.5 2.8-5.1 1.7s-5.6 2.7-2.7 4.8 6.3.7 9.1-.9 6.1-1.1 8.2-4.1-2.8-5.6-4.8-2.7zm-30.5-29.3a30.2 30.2 0 0 1 9-.1 2.9 2.9 0 0 0 3.4-1.9c.4-1.3-.5-3.2-1.9-3.4a39.5 39.5 0 0 0-11.9.1 2.6 2.6 0 0 0-1.9 3.3 2.8 2.8 0 0 0 3.3 2zm-74.1 1a5.5 5.5 0 0 0-.4 5c.8 2 2.3 2.3 4 3.3l-1.3-1.7c.7 1.8.4 3.4 2.3 4.5s3 .3 4.3.9c-.8-.4-.5-.2-.2.6a2.7 2.7 0 0 0 .6 1 4.1 4.1 0 0 0 2.1 1.5c.9.4 1.9.2 2.8.5s.7.2 1.2 1.1a9.5 9.5 0 0 0 1.5 2l1.2.7c.3.1 1.9.5.9 0s0 .2.2.5a5.2 5.2 0 0 0 1 1.1 17.5 17.5 0 0 0 2.9 1.8c5 2.7 9.1 1.5 13.2-2.2s-1.3-6.2-3.9-3.8-3.6 2.7-6.2 1.5a7.8 7.8 0 0 1-2.6-1.7 7.5 7.5 0 0 0-1.4-1.7 3.4 3.4 0 0 0-1.2-.6c-.3 0-1.4-.4-.8 0s-.4-1-.6-1.3a5.6 5.6 0 0 0-4.1-2.7c-.5-.1-1.8 0-2.2-.3s0-1-.2-1.4a5.3 5.3 0 0 0-3.6-2 6.9 6.9 0 0 0-2-.3h-.4c.6 1.2.9 1.3.8.6s-.1-1-.2-1.3a3.3 3.3 0 0 0-1.7-2.1c-.3-.2-1.4-.4-1.3-.7 1.9-3-2.9-5.7-4.7-2.7z"/><path fill="#fcfcfc" d="M1295.8 556.6h14.2v8.22h-14.2zm7.1-25h14.2v8.22h-14.2zm27.2 17.7h14.2v8.22h-14.2zm-315-62.6h14.2v8.22h-14.2zm7.1-25h14.2v8.22h-14.2zm27.2 17.7h14.2v8.22h-14.2zm-137-93.6h14.2v8.22h-14.2zm7.2-25h14.2v8.22h-14.2zm27.1 17.8h14.2v8.22h-14.2zM507.8 834H522v8.22h-14.2zm7.1-25h14.2v8.22h-14.2zm27.1 17.8h14.2v8.22H542zm109.2 359.7h14.2v8.22h-14.2zm7.1-25h14.2v8.22h-14.2zm27.1 17.8h14.2v8.22h-14.2zm345.5-487h14.2v8.22h-14.2zm7.2-25h14.2v8.22h-14.2zm27.1 17.7h14.2v8.22h-14.2zm-713.8 10.9h14.2v8.22h-14.2zm7.2-25h14.2v8.22h-14.2zm27.1 17.7h14.2v8.22h-14.2zm379.2-166.8c1.5-2.2 5-3.1 7.3-4.2s4.8-3.9 7.5-5.6 5.9-.6 9.1-1.4a18.3 18.3 0 0 0 8.8-5.1c4.9-5-2.8-12.8-7.8-7.8-3 3.1-6.3 1.9-10.2 2.6s-6 2.7-8.8 5c-5.1 4.3-11.4 5.2-15.3 11s5.5 11.3 9.4 5.5z"/></svg>